IBM Plex Mono-Italic.ufo
<glyph name="exclam" format="1">
  <advance width="600"/>
  <unicode hex="0021"/>
  <outline>
    <contour>
      <point x="311" y="233" type="line" name="hr00"/>
      <point x="383" y="495" type="line"/>
      <point x="417" y="698" type="line"/>
      <point x="331" y="698" type="line"/>
      <point x="297" y="495" type="line"/>
      <point x="280" y="233" type="line"/>
    </contour>
    <contour>
      <point x="257" y="-9" type="curve" smooth="yes"/>
      <point x="310" y="-9"/>
      <point x="332" y="14"/>
      <point x="338" y="50" type="curve" smooth="yes"/>
      <point x="341" y="68"/>
      <point x="342" y="77"/>
      <point x="342" y="83" type="curve" smooth="yes"/>
      <point x="342" y="108"/>
      <point x="324" y="127"/>
      <point x="277" y="127" type="curve" smooth="yes"/>
      <point x="224" y="127"/>
      <point x="202" y="104"/>
      <point x="196" y="68" type="curve" smooth="yes"/>
      <point x="193" y="50"/>
      <point x="192" y="41"/>
      <point x="192" y="35" type="curve" smooth="yes"/>
      <point x="192" y="10"/>
      <point x="210" y="-9"/>
    </contour>
  </outline>
</glyph>
<glyph name="numbersign" format="1">
  <advance width="600"/>
  <unicode hex="0023"/>
  <outline>
    <contour>
      <point x="68" y="0" type="line" name="hr00"/>
      <point x="141" y="0" type="line"/>
      <point x="379" y="698" type="line"/>
      <point x="306" y="698" type="line"/>
      <point x="232" y="481" type="line"/>
      <point x="92" y="481" type="line"/>
      <point x="81" y="417" type="line"/>
      <point x="210" y="417" type="line"/>
      <point x="164" y="281" type="line"/>
      <point x="23" y="281" type="line"/>
      <point x="12" y="217" type="line"/>
      <point x="142" y="217" type="line"/>
    </contour>
    <contour>
      <point x="252" y="0" type="line"/>
      <point x="325" y="0" type="line"/>
      <point x="399" y="217" type="line"/>
      <point x="539" y="217" type="line"/>
      <point x="550" y="281" type="line"/>
      <point x="421" y="281" type="line"/>
      <point x="467" y="417" type="line"/>
      <point x="608" y="417" type="line"/>
      <point x="619" y="481" type="line"/>
      <point x="489" y="481" type="line"/>
      <point x="563" y="698" type="line"/>
      <point x="490" y="698" type="line"/>
    </contour>
  </outline>
</glyph>
<glyph name="dollar" format="1">
  <advance width="600"/>
  <unicode hex="0024"/>
  <outline>
    <contour>
      <point x="206" y="-113" type="line" name="hr00"/>
      <point x="266" y="-113" type="line"/>
      <point x="283" y="-12" type="line"/>
      <point x="437" y="-6"/>
      <point x="534" y="84"/>
      <point x="534" y="212" type="curve" smooth="yes"/>
      <point x="534" y="297"/>
      <point x="487" y="356"/>
      <point x="374" y="382" type="curve" smooth="yes"/>
      <point x="348" y="388" type="line"/>
      <point x="390" y="637" type="line"/>
      <point x="449" y="629"/>
      <point x="493" y="599"/>
      <point x="525" y="550" type="curve"/>
      <point x="585" y="594" type="line"/>
      <point x="554" y="649"/>
      <point x="494" y="695"/>
      <point x="402" y="707" type="curve"/>
      <point x="420" y="811" type="line"/>
      <point x="360" y="811" type="line"/>
      <point x="343" y="710" type="line"/>
      <point x="199" y="706"/>
      <point x="102" y="628"/>
      <point x="102" y="502" type="curve" smooth="yes"/>
      <point x="102" y="412"/>
      <point x="156" y="355"/>
      <point x="263" y="331" type="curve" smooth="yes"/>
      <point x="279" y="327" type="line"/>
      <point x="235" y="61" type="line"/>
      <point x="169" y="70"/>
      <point x="123" y="104"/>
      <point x="85" y="162" type="curve"/>
      <point x="23" y="113" type="line"/>
      <point x="59" y="50"/>
      <point x="128" y="2"/>
      <point x="223" y="-9" type="curve"/>
    </contour>
    <contour>
      <point x="186" y="508" type="curve" smooth="yes"/>
      <point x="186" y="584"/>
      <point x="241" y="633"/>
      <point x="331" y="639" type="curve"/>
      <point x="292" y="401" type="line"/>
      <point x="223" y="419"/>
      <point x="186" y="447"/>
    </contour>
    <contour>
      <point x="450" y="205" type="curve" smooth="yes"/>
      <point x="450" y="123"/>
      <point x="390" y="68"/>
      <point x="294" y="60" type="curve"/>
      <point x="336" y="314" type="line"/>
      <point x="418" y="297"/>
      <point x="450" y="262"/>
    </contour>
  </outline>
</glyph>
<glyph name="percent" format="1">
  <advance width="600"/>
  <unicode hex="0025"/>
  <outline>
    <contour>
      <point x="192" y="357" type="curve" smooth="yes"/>
      <point x="289" y="357"/>
      <point x="367" y="442"/>
      <point x="367" y="567" type="curve" smooth="yes"/>
      <point x="367" y="662"/>
      <point x="316" y="710"/>
      <point x="238" y="710" type="curve" smooth="yes"/>
      <point x="141" y="710"/>
      <point x="63" y="625"/>
      <point x="63" y="500" type="curve" smooth="yes"/>
      <point x="63" y="405"/>
      <point x="114" y="357"/>
    </contour>
    <contour>
      <point x="194" y="410" type="curve" smooth="yes"/>
      <point x="150" y="410"/>
      <point x="128" y="436"/>
      <point x="128" y="483" type="curve" smooth="yes"/>
      <point x="128" y="494"/>
      <point x="130" y="505"/>
      <point x="139" y="559" type="curve" smooth="yes"/>
      <point x="149" y="619"/>
      <point x="180" y="657"/>
      <point x="236" y="657" type="curve" smooth="yes"/>
      <point x="280" y="657"/>
      <point x="302" y="631"/>
      <point x="302" y="584" type="curve" smooth="yes"/>
      <point x="302" y="573"/>
      <point x="300" y="562"/>
      <point x="291" y="508" type="curve" smooth="yes"/>
      <point x="281" y="448"/>
      <point x="250" y="410"/>
    </contour>
    <contour>
      <point x="375" y="398" type="line"/>
      <point x="447" y="398" type="line"/>
      <point x="656" y="698" type="line" name="hr01"/>
      <point x="584" y="698" type="line"/>
    </contour>
    <contour>
      <point x="-24" y="0" type="line"/>
      <point x="48" y="0" type="line"/>
      <point x="257" y="300" type="line"/>
      <point x="185" y="300" type="line"/>
    </contour>
    <contour>
      <point x="394" y="-12" type="curve" smooth="yes" name="hr02"/>
      <point x="491" y="-12"/>
      <point x="569" y="73"/>
      <point x="569" y="198" type="curve" smooth="yes"/>
      <point x="569" y="293"/>
      <point x="518" y="341"/>
      <point x="440" y="341" type="curve" smooth="yes"/>
      <point x="343" y="341"/>
      <point x="265" y="256"/>
      <point x="265" y="131" type="curve" smooth="yes"/>
      <point x="265" y="36"/>
      <point x="316" y="-12"/>
    </contour>
    <contour>
      <point x="396" y="41" type="curve" smooth="yes"/>
      <point x="352" y="41"/>
      <point x="330" y="67"/>
      <point x="330" y="114" type="curve" smooth="yes"/>
      <point x="330" y="125"/>
      <point x="332" y="136"/>
      <point x="341" y="190" type="curve" smooth="yes"/>
      <point x="351" y="250"/>
      <point x="382" y="288"/>
      <point x="438" y="288" type="curve" smooth="yes"/>
      <point x="482" y="288"/>
      <point x="504" y="262"/>
      <point x="504" y="215" type="curve" smooth="yes"/>
      <point x="504" y="204"/>
      <point x="502" y="193"/>
      <point x="493" y="139" type="curve" smooth="yes"/>
      <point x="483" y="79"/>
      <point x="452" y="41"/>
    </contour>
  </outline>
</glyph>
<glyph name="ampersand" format="1">
  <advance width="600"/>
  <unicode hex="0026"/>
  <outline>
    <contour>
      <point x="164" y="-12" type="curve" smooth="yes" name="hr00"/>
      <point x="229" y="-12"/>
      <point x="300" y="17"/>
      <point x="317" y="135" type="curve"/>
      <point x="322" y="135" type="line"/>
      <point x="353" y="37"/>
      <point x="386" y="-12"/>
      <point x="443" y="-12" type="curve" smooth="yes"/>
      <point x="482" y="-12"/>
      <point x="507" y="10"/>
      <point x="538" y="67" type="curve" smooth="yes"/>
      <point x="588" y="160" type="line"/>
      <point x="533" y="188" type="line"/>
      <point x="455" y="59" type="line"/>
      <point x="438" y="59" type="line"/>
      <point x="301" y="327" type="line"/>
      <point x="420" y="347"/>
      <point x="498" y="416"/>
      <point x="498" y="542" type="curve" smooth="yes"/>
      <point x="498" y="655"/>
      <point x="429" y="710"/>
      <point x="333" y="710" type="curve" smooth="yes"/>
      <point x="225" y="710"/>
      <point x="147" y="640"/>
      <point x="147" y="531" type="curve" smooth="yes"/>
      <point x="147" y="486"/>
      <point x="160" y="449"/>
      <point x="190" y="388" type="curve"/>
      <point x="39" y="376"/>
      <point x="1" y="261"/>
      <point x="1" y="171" type="curve" smooth="yes"/>
      <point x="1" y="65"/>
      <point x="59" y="-12"/>
    </contour>
    <contour>
      <point x="176" y="56" type="curve" smooth="yes"/>
      <point x="115" y="56"/>
      <point x="84" y="89"/>
      <point x="84" y="175" type="curve" smooth="yes"/>
      <point x="84" y="190"/>
      <point x="85" y="212"/>
      <point x="89" y="233" type="curve" smooth="yes"/>
      <point x="98" y="281"/>
      <point x="116" y="336"/>
      <point x="209" y="349" type="curve"/>
      <point x="298" y="166" type="line"/>
      <point x="285" y="105"/>
      <point x="251" y="56"/>
    </contour>
    <contour>
      <point x="327" y="645" type="curve" smooth="yes"/>
      <point x="381" y="645"/>
      <point x="419" y="618"/>
      <point x="419" y="539" type="curve" smooth="yes"/>
      <point x="419" y="521"/>
      <point x="417" y="492"/>
      <point x="408" y="466" type="curve" smooth="yes"/>
      <point x="390" y="415"/>
      <point x="349" y="380"/>
      <point x="283" y="364" type="curve"/>
      <point x="272" y="385" type="line" smooth="yes"/>
      <point x="239" y="448"/>
      <point x="225" y="489"/>
      <point x="225" y="533" type="curve" smooth="yes"/>
      <point x="225" y="611"/>
      <point x="267" y="645"/>
    </contour>
  </outline>
</glyph>
<glyph name="quotesingle" format="1">
  <advance width="600"/>
  <unicode hex="0027"/>
  <outline>
    <contour>
      <point x="371" y="464" type="line" name="hr00"/>
      <point x="417" y="740" type="line"/>
      <point x="343" y="740" type="line"/>
      <point x="297" y="464" type="line"/>
    </contour>
  </outline>
</glyph>
<glyph name="parenleft" format="1">
  <advance width="600"/>
  <unicode hex="0028"/>
  <outline>
    <contour>
      <point x="206" y="216" type="curve" smooth="yes" name="hr00"/>
      <point x="206" y="61"/>
      <point x="270" y="-68"/>
      <point x="352" y="-138" type="curve"/>
      <point x="429" y="-138" type="line"/>
      <point x="342" y="-64"/>
      <point x="275" y="55"/>
      <point x="275" y="195" type="curve" smooth="yes"/>
      <point x="275" y="219"/>
      <point x="277" y="245"/>
      <point x="281" y="269" type="curve" smooth="yes"/>
      <point x="295" y="354" type="line" smooth="yes"/>
      <point x="323" y="522"/>
      <point x="444" y="669"/>
      <point x="578" y="760" type="curve"/>
      <point x="493" y="760" type="line"/>
      <point x="347" y="663"/>
      <point x="206" y="447"/>
    </contour>
  </outline>
</glyph>
<glyph name="parenright" format="1">
  <advance width="600"/>
  <unicode hex="0029"/>
  <outline>
    <contour>
      <point x="413" y="406" type="curve" smooth="yes" name="hr00"/>
      <point x="413" y="561"/>
      <point x="349" y="690"/>
      <point x="267" y="760" type="curve"/>
      <point x="190" y="760" type="line"/>
      <point x="277" y="686"/>
      <point x="344" y="567"/>
      <point x="344" y="427" type="curve" smooth="yes"/>
      <point x="344" y="403"/>
      <point x="342" y="377"/>
      <point x="338" y="353" type="curve" smooth="yes"/>
      <point x="324" y="268" type="line" smooth="yes"/>
      <point x="296" y="100"/>
      <point x="175" y="-47"/>
      <point x="41" y="-138" type="curve"/>
      <point x="126" y="-138" type="line"/>
      <point x="272" y="-41"/>
      <point x="413" y="175"/>
    </contour>
  </outline>
</glyph>
<glyph name="asterisk" format="1">
  <advance width="600"/>
  <unicode hex="002A"/>
  <outline>
    <contour>
      <point x="296" y="227" type="line" name="hr00"/>
      <point x="392" y="55" type="line"/>
      <point x="450" y="96" type="line"/>
      <point x="355" y="264" type="line"/>
      <point x="562" y="332" type="line"/>
      <point x="553" y="396" type="line"/>
      <point x="348" y="332" type="line"/>
      <point x="384" y="548" type="line"/>
      <point x="312" y="548" type="line"/>
      <point x="276" y="332" type="line"/>
      <point x="86" y="396" type="line"/>
      <point x="56" y="336" type="line"/>
      <point x="242" y="267" type="line"/>
      <point x="92" y="99" type="line"/>
      <point x="145" y="55" type="line"/>
    </contour>
  </outline>
</glyph>
<glyph name="plus" format="1">
  <advance width="600"/>
  <unicode hex="002B"/>
  <outline>
    <contour>
      <point x="304" y="62" type="line" name="hr00"/>
      <point x="339" y="272" type="line"/>
      <point x="537" y="272" type="line"/>
      <point x="548" y="338" type="line"/>
      <point x="350" y="338" type="line"/>
      <point x="385" y="548" type="line"/>
      <point x="311" y="548" type="line"/>
      <point x="276" y="338" type="line"/>
      <point x="78" y="338" type="line"/>
      <point x="67" y="272" type="line"/>
      <point x="265" y="272" type="line"/>
      <point x="230" y="62" type="line"/>
    </contour>
  </outline>
</glyph>
<glyph name="hyphen" format="1">
  <advance width="600"/>
  <unicode hex="002D"/>
  <outline>
    <contour>
      <point x="443" y="263" type="line" name="hr00"/>
      <point x="457" y="345" type="line"/>
      <point x="171" y="345" type="line"/>
      <point x="157" y="263" type="line"/>
    </contour>
  </outline>
</glyph>
<glyph name="period" format="1">
  <advance width="600"/>
  <unicode hex="002E"/>
  <outline>
    <contour>
      <point x="257" y="-9" type="curve" smooth="yes" name="hr00"/>
      <point x="308" y="-9"/>
      <point x="332" y="14"/>
      <point x="338" y="50" type="curve" smooth="yes"/>
      <point x="340" y="62"/>
      <point x="342" y="74"/>
      <point x="342" y="82" type="curve" smooth="yes"/>
      <point x="342" y="107"/>
      <point x="324" y="127"/>
      <point x="277" y="127" type="curve" smooth="yes"/>
      <point x="226" y="127"/>
      <point x="202" y="104"/>
      <point x="196" y="68" type="curve" smooth="yes"/>
      <point x="194" y="56"/>
      <point x="192" y="44"/>
      <point x="192" y="36" type="curve" smooth="yes"/>
      <point x="192" y="11"/>
      <point x="210" y="-9"/>
    </contour>
  </outline>
</glyph>
<glyph name="slash" format="1">
  <advance width="600"/>
  <unicode hex="002F"/>
  <outline>
    <contour>
      <point x="97" y="-138" type="line" name="hr00"/>
      <point x="594" y="760" type="line"/>
      <point x="521" y="760" type="line"/>
      <point x="25" y="-138" type="line"/>
    </contour>
  </outline>
</glyph>
<glyph name="zero" format="1">
  <advance width="600"/>
  <unicode hex="0030"/>
  <outline>
    <contour>
      <point x="260" y="-12" type="curve" smooth="yes" name="hr00"/>
      <point x="508" y="-12"/>
      <point x="570" y="297"/>
      <point x="570" y="473" type="curve" smooth="yes"/>
      <point x="570" y="625"/>
      <point x="508" y="710"/>
      <point x="372" y="710" type="curve" smooth="yes"/>
      <point x="124" y="710"/>
      <point x="62" y="401"/>
      <point x="62" y="225" type="curve" smooth="yes"/>
      <point x="62" y="73"/>
      <point x="124" y="-12"/>
    </contour>
    <contour>
      <point x="266" y="60" type="curve" smooth="yes"/>
      <point x="178" y="60"/>
      <point x="141" y="115"/>
      <point x="141" y="210" type="curve" smooth="yes"/>
      <point x="141" y="233"/>
      <point x="143" y="262"/>
      <point x="148" y="292" type="curve" smooth="yes"/>
      <point x="167" y="406" type="line" smooth="yes"/>
      <point x="191" y="549"/>
      <point x="259" y="638"/>
      <point x="366" y="638" type="curve" smooth="yes"/>
      <point x="454" y="638"/>
      <point x="491" y="583"/>
      <point x="491" y="488" type="curve" smooth="yes"/>
      <point x="491" y="465"/>
      <point x="489" y="436"/>
      <point x="484" y="406" type="curve" smooth="yes"/>
      <point x="465" y="292" type="line" smooth="yes"/>
      <point x="441" y="149"/>
      <point x="373" y="60"/>
    </contour>
    <contour>
      <point x="307" y="291" type="curve" smooth="yes"/>
      <point x="354" y="291"/>
      <point x="372" y="312"/>
      <point x="377" y="342" type="curve" smooth="yes"/>
      <point x="379" y="354"/>
      <point x="381" y="364"/>
      <point x="381" y="370" type="curve" smooth="yes"/>
      <point x="381" y="391"/>
      <point x="365" y="407"/>
      <point x="325" y="407" type="curve" smooth="yes"/>
      <point x="278" y="407"/>
      <point x="260" y="386"/>
      <point x="255" y="356" type="curve" smooth="yes"/>
      <point x="253" y="344"/>
      <point x="251" y="334"/>
      <point x="251" y="328" type="curve" smooth="yes"/>
      <point x="251" y="307"/>
      <point x="267" y="291"/>
    </contour>
  </outline>
</glyph>
<glyph name="one" format="1">
  <advance width="600"/>
  <unicode hex="0031"/>
  <outline>
    <contour>
      <point x="509" y="0" type="line" name="hr00"/>
      <point x="521" y="72" type="line"/>
      <point x="336" y="72" type="line"/>
      <point x="441" y="698" type="line"/>
      <point x="310" y="698" type="line"/>
      <point x="97" y="525" type="line"/>
      <point x="138" y="472" type="line"/>
      <point x="341" y="636" type="line"/>
      <point x="349" y="636" type="line"/>
      <point x="254" y="72" type="line"/>
      <point x="54" y="72" type="line"/>
      <point x="42" y="0" type="line"/>
    </contour>
  </outline>
</glyph>
<glyph name="two" format="1">
  <advance width="600"/>
  <unicode hex="0032"/>
  <outline>
    <contour>
      <point x="505" y="71" type="line" name="hr00"/>
      <point x="132" y="71" type="line"/>
      <point x="359" y="245" type="line" smooth="yes"/>
      <point x="481" y="338"/>
      <point x="551" y="421"/>
      <point x="551" y="532" type="curve" smooth="yes"/>
      <point x="551" y="637"/>
      <point x="476" y="710"/>
      <point x="351" y="710" type="curve" smooth="yes"/>
      <point x="220" y="710"/>
      <point x="147" y="637"/>
      <point x="107" y="547" type="curve"/>
      <point x="179" y="519" type="line"/>
      <point x="210" y="585"/>
      <point x="257" y="639"/>
      <point x="342" y="639" type="curve" smooth="yes"/>
      <point x="420" y="639"/>
      <point x="465" y="595"/>
      <point x="465" y="531" type="curve" smooth="yes"/>
      <point x="465" y="521"/>
      <point x="464" y="511"/>
      <point x="462" y="499" type="curve" smooth="yes"/>
      <point x="449" y="421"/>
      <point x="423" y="384"/>
      <point x="311" y="296" type="curve" smooth="yes"/>
      <point x="43" y="85" type="line"/>
      <point x="29" y="0" type="line"/>
      <point x="493" y="0" type="line"/>
    </contour>
  </outline>
</glyph>
<glyph name="three" format="1">
  <advance width="600"/>
  <unicode hex="0033"/>
  <outline>
    <contour>
      <point x="216" y="401" type="line"/>
      <point x="204" y="331" type="line"/>
      <point x="287" y="331" type="line" smooth="yes"/>
      <point x="378" y="331"/>
      <point x="421" y="291"/>
      <point x="421" y="223" type="curve" smooth="yes"/>
      <point x="421" y="213"/>
      <point x="419" y="199"/>
      <point x="417" y="186" type="curve" smooth="yes"/>
      <point x="404" y="103"/>
      <point x="344" y="59"/>
      <point x="248" y="59" type="curve" smooth="yes"/>
      <point x="154" y="59"/>
      <point x="119" y="100"/>
      <point x="92" y="153" type="curve"/>
      <point x="24" y="111" type="line"/>
      <point x="57" y="50"/>
      <point x="110" y="-12"/>
      <point x="239" y="-12" type="curve" smooth="yes"/>
      <point x="407" y="-12"/>
      <point x="507" y="94"/>
      <point x="507" y="214" type="curve" smooth="yes"/>
      <point x="507" y="302"/>
      <point x="453" y="354"/>
      <point x="383" y="365" type="curve"/>
      <point x="384" y="369" type="line"/>
      <point x="491" y="393"/>
      <point x="550" y="468"/>
      <point x="550" y="555" type="curve" smooth="yes" name="hr01"/>
      <point x="550" y="655"/>
      <point x="472" y="710"/>
      <point x="357" y="710" type="curve" smooth="yes"/>
      <point x="245" y="710"/>
      <point x="180" y="657"/>
      <point x="133" y="596" type="curve"/>
      <point x="188" y="549" type="line"/>
      <point x="223" y="598"/>
      <point x="273" y="639"/>
      <point x="349" y="639" type="curve" smooth="yes"/>
      <point x="417" y="639"/>
      <point x="463" y="606"/>
      <point x="463" y="550" type="curve" smooth="yes"/>
      <point x="463" y="540"/>
      <point x="461" y="529"/>
      <point x="459" y="518" type="curve" smooth="yes"/>
      <point x="446" y="447"/>
      <point x="389" y="401"/>
      <point x="293" y="401" type="curve" smooth="yes"/>
    </contour>
  </outline>
</glyph>
<glyph name="four" format="1">
  <advance width="600"/>
  <unicode hex="0034"/>
  <outline>
    <contour>
      <point x="415" y="0" type="line"/>
      <point x="438" y="137" type="line"/>
      <point x="543" y="137" type="line"/>
      <point x="554" y="205" type="line" name="hr01"/>
      <point x="449" y="205" type="line"/>
      <point x="532" y="698" type="line"/>
      <point x="421" y="698" type="line"/>
      <point x="28" y="214" type="line"/>
      <point x="15" y="137" type="line"/>
      <point x="360" y="137" type="line"/>
      <point x="337" y="0" type="line" name="hr02"/>
    </contour>
    <contour>
      <point x="436" y="614" type="line"/>
      <point x="440" y="614" type="line"/>
      <point x="371" y="205" type="line" name="hr03"/>
      <point x="103" y="205" type="line"/>
    </contour>
  </outline>
</glyph>
<glyph name="five" format="1">
  <advance width="600"/>
  <unicode hex="0035"/>
  <outline>
    <contour>
      <point x="571" y="698" type="line" name="hr00"/>
      <point x="193" y="698" type="line"/>
      <point x="105" y="314" type="line"/>
      <point x="173" y="305" type="line"/>
      <point x="209" y="338"/>
      <point x="246" y="364"/>
      <point x="312" y="364" type="curve" smooth="yes"/>
      <point x="398" y="364"/>
      <point x="442" y="320"/>
      <point x="442" y="247" type="curve" smooth="yes"/>
      <point x="442" y="230"/>
      <point x="441" y="221"/>
      <point x="438" y="203" type="curve" smooth="yes"/>
      <point x="423" y="113"/>
      <point x="362" y="60"/>
      <point x="266" y="60" type="curve" smooth="yes"/>
      <point x="182" y="60"/>
      <point x="148" y="98"/>
      <point x="118" y="153" type="curve"/>
      <point x="48" y="107" type="line"/>
      <point x="81" y="47"/>
      <point x="148" y="-12"/>
      <point x="256" y="-12" type="curve" smooth="yes"/>
      <point x="437" y="-12"/>
      <point x="529" y="115"/>
      <point x="529" y="252" type="curve" smooth="yes"/>
      <point x="529" y="364"/>
      <point x="455" y="433"/>
      <point x="343" y="433" type="curve" smooth="yes"/>
      <point x="273" y="433"/>
      <point x="232" y="404"/>
      <point x="191" y="358" type="curve"/>
      <point x="185" y="358" type="line"/>
      <point x="250" y="627" type="line"/>
      <point x="559" y="627" type="line"/>
    </contour>
  </outline>
</glyph>
<glyph name="six" format="1">
  <advance width="600"/>
  <unicode hex="0036"/>
  <outline>
    <contour>
      <point x="259" y="-12" type="curve" smooth="yes" name="hr00"/>
      <point x="432" y="-12"/>
      <point x="535" y="115"/>
      <point x="535" y="252" type="curve" smooth="yes"/>
      <point x="535" y="364"/>
      <point x="464" y="434"/>
      <point x="353" y="434" type="curve" smooth="yes"/>
      <point x="268" y="434"/>
      <point x="212" y="390"/>
      <point x="169" y="334" type="curve"/>
      <point x="164" y="336" type="line"/>
      <point x="232" y="497"/>
      <point x="331" y="588"/>
      <point x="502" y="698" type="curve"/>
      <point x="392" y="698" type="line"/>
      <point x="240" y="609"/>
      <point x="61" y="415"/>
      <point x="61" y="201" type="curve" smooth="yes"/>
      <point x="61" y="69"/>
      <point x="132" y="-12"/>
    </contour>
    <contour>
      <point x="271" y="58" type="curve" smooth="yes"/>
      <point x="186" y="58"/>
      <point x="142" y="100"/>
      <point x="142" y="176" type="curve" smooth="yes"/>
      <point x="142" y="190"/>
      <point x="144" y="204"/>
      <point x="146" y="216" type="curve" smooth="yes"/>
      <point x="162" y="312"/>
      <point x="228" y="366"/>
      <point x="322" y="366" type="curve" smooth="yes"/>
      <point x="407" y="366"/>
      <point x="451" y="324"/>
      <point x="451" y="248" type="curve" smooth="yes"/>
      <point x="451" y="234"/>
      <point x="449" y="220"/>
      <point x="447" y="208" type="curve" smooth="yes"/>
      <point x="431" y="112"/>
      <point x="365" y="58"/>
    </contour>
  </outline>
</glyph>
<glyph name="seven" format="1">
  <advance width="600"/>
  <unicode hex="0037"/>
  <outline>
    <contour>
      <point x="222" y="0" type="line" name="hr00"/>
      <point x="590" y="626" type="line"/>
      <point x="602" y="698" type="line"/>
      <point x="137" y="698" type="line"/>
      <point x="104" y="497" type="line"/>
      <point x="178" y="497" type="line"/>
      <point x="199" y="627" type="line"/>
      <point x="503" y="627" type="line"/>
      <point x="131" y="0" type="line"/>
    </contour>
  </outline>
</glyph>
<glyph name="eight" format="1">
  <advance width="600"/>
  <unicode hex="0038"/>
  <outline>
    <contour>
      <point x="255" y="-12" type="curve" smooth="yes"/>
      <point x="437" y="-12"/>
      <point x="535" y="90"/>
      <point x="535" y="207" type="curve" smooth="yes"/>
      <point x="535" y="296"/>
      <point x="493" y="342"/>
      <point x="419" y="363" type="curve"/>
      <point x="420" y="371" type="line"/>
      <point x="517" y="402"/>
      <point x="570" y="477"/>
      <point x="570" y="556" type="curve" smooth="yes" name="hr01"/>
      <point x="570" y="650"/>
      <point x="501" y="710"/>
      <point x="374" y="710" type="curve" smooth="yes"/>
      <point x="208" y="710"/>
      <point x="120" y="609"/>
      <point x="120" y="508" type="curve" smooth="yes"/>
      <point x="120" y="443"/>
      <point x="154" y="394"/>
      <point x="216" y="372" type="curve"/>
      <point x="215" y="364" type="line"/>
      <point x="105" y="335"/>
      <point x="41" y="258"/>
      <point x="41" y="160" type="curve" smooth="yes" name="hr02"/>
      <point x="41" y="60"/>
      <point x="110" y="-12"/>
    </contour>
    <contour>
      <point x="267" y="58" type="curve" smooth="yes"/>
      <point x="178" y="58"/>
      <point x="127" y="96"/>
      <point x="127" y="164" type="curve" smooth="yes"/>
      <point x="127" y="178"/>
      <point x="129" y="189"/>
      <point x="132" y="207" type="curve" smooth="yes"/>
      <point x="145" y="285"/>
      <point x="207" y="334"/>
      <point x="311" y="334" type="curve" smooth="yes"/>
      <point x="400" y="334"/>
      <point x="451" y="296"/>
      <point x="451" y="228" type="curve" smooth="yes"/>
      <point x="451" y="214"/>
      <point x="449" y="203"/>
      <point x="446" y="185" type="curve" smooth="yes"/>
      <point x="433" y="107"/>
      <point x="371" y="58"/>
    </contour>
    <contour>
      <point x="324" y="401" type="curve" smooth="yes"/>
      <point x="245" y="401"/>
      <point x="201" y="435"/>
      <point x="201" y="495" type="curve" smooth="yes" name="hr03"/>
      <point x="201" y="505"/>
      <point x="202" y="516"/>
      <point x="204" y="528" type="curve" smooth="yes"/>
      <point x="215" y="594"/>
      <point x="270" y="640"/>
      <point x="362" y="640" type="curve" smooth="yes"/>
      <point x="441" y="640"/>
      <point x="485" y="606"/>
      <point x="485" y="546" type="curve" smooth="yes"/>
      <point x="485" y="536"/>
      <point x="484" y="525"/>
      <point x="482" y="513" type="curve" smooth="yes"/>
      <point x="471" y="447"/>
      <point x="416" y="401"/>
    </contour>
  </outline>
</glyph>
<glyph name="nine" format="1">
  <advance width="600"/>
  <unicode hex="0039"/>
  <outline>
    <contour>
      <point x="561" y="497" type="curve" smooth="yes" name="hr00"/>
      <point x="561" y="629"/>
      <point x="490" y="710"/>
      <point x="363" y="710" type="curve" smooth="yes"/>
      <point x="190" y="710"/>
      <point x="87" y="583"/>
      <point x="87" y="446" type="curve" smooth="yes"/>
      <point x="87" y="334"/>
      <point x="158" y="264"/>
      <point x="269" y="264" type="curve" smooth="yes"/>
      <point x="354" y="264"/>
      <point x="409" y="308"/>
      <point x="453" y="364" type="curve"/>
      <point x="458" y="362" type="line"/>
      <point x="389" y="201"/>
      <point x="290" y="110"/>
      <point x="119" y="0" type="curve"/>
      <point x="230" y="0" type="line"/>
      <point x="382" y="89"/>
      <point x="561" y="283"/>
    </contour>
    <contour>
      <point x="300" y="332" type="curve" smooth="yes"/>
      <point x="215" y="332"/>
      <point x="171" y="374"/>
      <point x="171" y="450" type="curve" smooth="yes"/>
      <point x="171" y="464"/>
      <point x="173" y="478"/>
      <point x="175" y="490" type="curve" smooth="yes"/>
      <point x="191" y="586"/>
      <point x="257" y="640"/>
      <point x="351" y="640" type="curve" smooth="yes"/>
      <point x="436" y="640"/>
      <point x="480" y="598"/>
      <point x="480" y="522" type="curve" smooth="yes"/>
      <point x="480" y="508"/>
      <point x="478" y="494"/>
      <point x="476" y="482" type="curve" smooth="yes"/>
      <point x="460" y="386"/>
      <point x="394" y="332"/>
    </contour>
  </outline>
</glyph>
<glyph name="less" format="1">
  <advance width="600"/>
  <unicode hex="003C"/>
  <outline>
    <contour>
      <point x="473" y="20" type="line" name="hr00"/>
      <point x="486" y="95" type="line"/>
      <point x="167" y="297" type="line"/>
      <point x="168" y="305" type="line"/>
      <point x="555" y="508" type="line"/>
      <point x="569" y="593" type="line"/>
      <point x="101" y="344" type="line"/>
      <point x="88" y="268" type="line"/>
    </contour>
  </outline>
</glyph>
<glyph name="equal" format="1">
  <advance width="600"/>
  <unicode hex="003D"/>
  <outline>
    <contour>
      <point x="555" y="373" type="line" name="hr00"/>
      <point x="566" y="439" type="line"/>
      <point x="95" y="439" type="line"/>
      <point x="84" y="373" type="line"/>
    </contour>
    <contour>
      <point x="522" y="174" type="line"/>
      <point x="533" y="240" type="line"/>
      <point x="62" y="240" type="line"/>
      <point x="51" y="174" type="line"/>
    </contour>
  </outline>
</glyph>
<glyph name="greater" format="1">
  <advance width="600"/>
  <unicode hex="003E"/>
  <outline>
    <contour>
      <point x="49" y="20" type="line" name="hr00"/>
      <point x="517" y="269" type="line"/>
      <point x="530" y="345" type="line"/>
      <point x="145" y="593" type="line"/>
      <point x="132" y="519" type="line"/>
      <point x="451" y="316" type="line"/>
      <point x="450" y="308" type="line"/>
      <point x="63" y="106" type="line"/>
    </contour>
  </outline>
</glyph>
<glyph name="question" format="1">
  <advance width="600"/>
  <unicode hex="003F"/>
  <outline>
    <contour>
      <point x="310" y="215" type="line" name="hr00"/>
      <point x="327" y="315" type="line"/>
      <point x="454" y="333"/>
      <point x="555" y="408"/>
      <point x="555" y="543" type="curve" smooth="yes"/>
      <point x="555" y="644"/>
      <point x="483" y="710"/>
      <point x="363" y="710" type="curve" smooth="yes"/>
      <point x="233" y="710"/>
      <point x="160" y="634"/>
      <point x="128" y="550" type="curve"/>
      <point x="199" y="520" type="line"/>
      <point x="225" y="589"/>
      <point x="271" y="639"/>
      <point x="356" y="639" type="curve" smooth="yes"/>
      <point x="425" y="639"/>
      <point x="470" y="602"/>
      <point x="470" y="544" type="curve" smooth="yes"/>
      <point x="470" y="542"/>
      <point x="470" y="527"/>
      <point x="468" y="515" type="curve" smooth="yes"/>
      <point x="453" y="425"/>
      <point x="400" y="390"/>
      <point x="259" y="372" type="curve"/>
      <point x="233" y="215" type="line"/>
    </contour>
    <contour>
      <point x="239" y="-9" type="curve" smooth="yes"/>
      <point x="290" y="-9"/>
      <point x="314" y="14"/>
      <point x="320" y="50" type="curve" smooth="yes"/>
      <point x="322" y="62"/>
      <point x="324" y="74"/>
      <point x="324" y="82" type="curve" smooth="yes"/>
      <point x="324" y="107"/>
      <point x="306" y="127"/>
      <point x="259" y="127" type="curve" smooth="yes"/>
      <point x="208" y="127"/>
      <point x="184" y="104"/>
      <point x="178" y="68" type="curve" smooth="yes"/>
      <point x="176" y="56"/>
      <point x="174" y="44"/>
      <point x="174" y="36" type="curve" smooth="yes"/>
      <point x="174" y="11"/>
      <point x="192" y="-9"/>
    </contour>
  </outline>
</glyph>
<glyph name="at" format="1">
  <advance width="600"/>
  <unicode hex="0040"/>
  <outline>
    <contour>
      <point x="418" y="-49" type="line" name="hr00"/>
      <point x="295" y="-49" type="line" smooth="yes"/>
      <point x="165" y="-49"/>
      <point x="127" y="20"/>
      <point x="127" y="138" type="curve" smooth="yes"/>
      <point x="127" y="156"/>
      <point x="129" y="215"/>
      <point x="134" y="244" type="curve" smooth="yes"/>
      <point x="159" y="396" type="line" smooth="yes"/>
      <point x="192" y="594"/>
      <point x="260" y="649"/>
      <point x="357" y="649" type="curve" smooth="yes"/>
      <point x="457" y="649"/>
      <point x="492" y="596"/>
      <point x="492" y="517" type="curve" smooth="yes"/>
      <point x="492" y="500"/>
      <point x="490" y="480"/>
      <point x="487" y="461" type="curve" smooth="yes"/>
      <point x="482" y="429" type="line"/>
      <point x="478" y="429" type="line"/>
      <point x="469" y="475"/>
      <point x="439" y="508"/>
      <point x="385" y="508" type="curve" smooth="yes"/>
      <point x="273" y="508"/>
      <point x="215" y="369"/>
      <point x="215" y="237" type="curve" smooth="yes"/>
      <point x="215" y="125"/>
      <point x="257" y="79"/>
      <point x="320" y="79" type="curve" smooth="yes"/>
      <point x="381" y="79"/>
      <point x="417" y="123"/>
      <point x="436" y="176" type="curve"/>
      <point x="440" y="176" type="line"/>
      <point x="426" y="91" type="line"/>
      <point x="496" y="91" type="line"/>
      <point x="557" y="463" type="line" smooth="yes"/>
      <point x="560" y="484"/>
      <point x="562" y="502"/>
      <point x="562" y="520" type="curve" smooth="yes"/>
      <point x="562" y="628"/>
      <point x="495" y="710"/>
      <point x="356" y="710" type="curve" smooth="yes"/>
      <point x="198" y="710"/>
      <point x="119" y="606"/>
      <point x="75" y="338" type="curve" smooth="yes"/>
      <point x="63" y="265"/>
      <point x="57" y="204"/>
      <point x="57" y="159" type="curve" smooth="yes"/>
      <point x="57" y="-18"/>
      <point x="119" y="-112"/>
      <point x="292" y="-112" type="curve" smooth="yes"/>
      <point x="409" y="-112" type="line"/>
    </contour>
    <contour>
      <point x="347" y="138" type="curve" smooth="yes"/>
      <point x="310" y="138"/>
      <point x="288" y="164"/>
      <point x="288" y="218" type="curve" smooth="yes"/>
      <point x="288" y="230"/>
      <point x="289" y="246"/>
      <point x="292" y="264" type="curve" smooth="yes"/>
      <point x="302" y="324" type="line" smooth="yes"/>
      <point x="316" y="408"/>
      <point x="345" y="449"/>
      <point x="402" y="449" type="curve" smooth="yes"/>
      <point x="461" y="449"/>
      <point x="478" y="405"/>
      <point x="472" y="370" type="curve" smooth="yes"/>
      <point x="455" y="269" type="line" smooth="yes"/>
      <point x="449" y="233"/>
      <point x="437" y="205"/>
      <point x="418" y="179" type="curve" smooth="yes"/>
      <point x="400" y="154"/>
      <point x="377" y="138"/>
    </contour>
  </outline>
</glyph>
<glyph name="A" format="1">
  <advance width="600"/>
  <unicode hex="0041"/>
  <outline>
    <contour>
      <point x="528" y="0" type="line" name="hr00"/>
      <point x="431" y="698" type="line"/>
      <point x="321" y="698" type="line"/>
      <point x="-9" y="0" type="line"/>
      <point x="79" y="0" type="line"/>
      <point x="171" y="199" type="line"/>
      <point x="417" y="199" type="line"/>
      <point x="442" y="0" type="line"/>
    </contour>
    <contour>
      <point x="409" y="272" type="line"/>
      <point x="202" y="272" type="line"/>
      <point x="357" y="614" type="line"/>
      <point x="366" y="614" type="line"/>
    </contour>
    <contour>
      <point x="264" y="0" type="move" name="bottom"/>
    </contour>
    <contour>
      <point x="528" y="0" type="move" name="bottomright"/>
    </contour>
    <contour>
      <point x="374" y="698" type="move" name="top"/>
    </contour>
  </outline>
</glyph>
<glyph name="B" format="1">
  <advance width="600"/>
  <unicode hex="0042"/>
  <outline>
    <contour>
      <point x="46" y="0" type="line"/>
      <point x="313" y="0" type="line" smooth="yes"/>
      <point x="442" y="0"/>
      <point x="531" y="106"/>
      <point x="531" y="222" type="curve" smooth="yes"/>
      <point x="531" y="305"/>
      <point x="485" y="343"/>
      <point x="423" y="362" type="curve"/>
      <point x="424" y="366" type="line"/>
      <point x="501" y="387"/>
      <point x="556" y="445"/>
      <point x="556" y="537" type="curve" smooth="yes" name="hr01"/>
      <point x="556" y="635"/>
      <point x="497" y="698"/>
      <point x="388" y="698" type="curve" smooth="yes"/>
      <point x="163" y="698" type="line"/>
    </contour>
    <contour>
      <point x="139" y="72" type="line"/>
      <point x="182" y="327" type="line"/>
      <point x="338" y="327" type="line" smooth="yes"/>
      <point x="407" y="327"/>
      <point x="447" y="296"/>
      <point x="447" y="245" type="curve" smooth="yes" name="hr02"/>
      <point x="447" y="232"/>
      <point x="445" y="220"/>
      <point x="443" y="208" type="curve" smooth="yes"/>
      <point x="438" y="178" type="line" smooth="yes"/>
      <point x="426" y="106"/>
      <point x="376" y="72"/>
      <point x="296" y="72" type="curve" smooth="yes"/>
    </contour>
    <contour>
      <point x="193" y="395" type="line"/>
      <point x="231" y="626" type="line"/>
      <point x="374" y="626" type="line" smooth="yes"/>
      <point x="434" y="626"/>
      <point x="472" y="604"/>
      <point x="472" y="551" type="curve" smooth="yes" name="hr03"/>
      <point x="472" y="541"/>
      <point x="471" y="531"/>
      <point x="469" y="519" type="curve" smooth="yes"/>
      <point x="464" y="489" type="line" smooth="yes"/>
      <point x="454" y="429"/>
      <point x="411" y="395"/>
      <point x="336" y="395" type="curve" smooth="yes"/>
    </contour>
    <contour>
      <point x="266" y="0" type="move" name="bottom"/>
    </contour>
    <contour>
      <point x="360" y="698" type="move" name="top"/>
    </contour>
  </outline>
</glyph>
<glyph name="C" format="1">
  <advance width="600"/>
  <unicode hex="0043"/>
  <outline>
    <contour>
      <point x="287" y="-12" type="curve" smooth="yes" name="hr00"/>
      <point x="412" y="-12"/>
      <point x="479" y="55"/>
      <point x="532" y="165" type="curve"/>
      <point x="467" y="198" type="line"/>
      <point x="414" y="104"/>
      <point x="376" y="60"/>
      <point x="296" y="60" type="curve" smooth="yes"/>
      <point x="200" y="60"/>
      <point x="160" y="123"/>
      <point x="160" y="219" type="curve" smooth="yes"/>
      <point x="160" y="247"/>
      <point x="163" y="277"/>
      <point x="168" y="307" type="curve" smooth="yes"/>
      <point x="184" y="403" type="line" smooth="yes"/>
      <point x="208" y="547"/>
      <point x="273" y="638"/>
      <point x="385" y="638" type="curve" smooth="yes"/>
      <point x="468" y="638"/>
      <point x="494" y="588"/>
      <point x="508" y="528" type="curve"/>
      <point x="582" y="552" type="line"/>
      <point x="567" y="629"/>
      <point x="520" y="710"/>
      <point x="391" y="710" type="curve" smooth="yes"/>
      <point x="138" y="710"/>
      <point x="78" y="401"/>
      <point x="78" y="240" type="curve" smooth="yes"/>
      <point x="78" y="78"/>
      <point x="142" y="-12"/>
    </contour>
    <contour>
      <point x="290" y="0" type="move" name="bottom"/>
    </contour>
    <contour>
      <point x="392" y="698" type="move" name="top"/>
    </contour>
  </outline>
</glyph>
<glyph name="D" format="1">
  <advance width="600"/>
  <unicode hex="0044"/>
  <outline>
    <contour>
      <point x="55" y="0" type="line" name="hr00"/>
      <point x="248" y="0" type="line" smooth="yes"/>
      <point x="443" y="0"/>
      <point x="565" y="148"/>
      <point x="565" y="473" type="curve" smooth="yes"/>
      <point x="565" y="602"/>
      <point x="489" y="698"/>
      <point x="343" y="698" type="curve" smooth="yes"/>
      <point x="172" y="698" type="line"/>
    </contour>
    <contour>
      <point x="149" y="72" type="line"/>
      <point x="242" y="626" type="line"/>
      <point x="333" y="626" type="line" smooth="yes"/>
      <point x="431" y="626"/>
      <point x="483" y="572"/>
      <point x="483" y="471" type="curve" smooth="yes"/>
      <point x="483" y="443"/>
      <point x="480" y="409"/>
      <point x="476" y="385" type="curve" smooth="yes"/>
      <point x="460" y="289" type="line" smooth="yes"/>
      <point x="436" y="146"/>
      <point x="366" y="72"/>
      <point x="255" y="72" type="curve" smooth="yes"/>
    </contour>
    <contour>
      <point x="242" y="0" type="move" name="bottom"/>
    </contour>
    <contour>
      <point x="343" y="698" type="move" name="top"/>
    </contour>
  </outline>
</glyph>
<glyph name="E" format="1">
  <advance width="600"/>
  <unicode hex="0045"/>
  <outline>
    <contour>
      <point x="477" y="0" type="line" name="hr00"/>
      <point x="489" y="72" type="line"/>
      <point x="141" y="72" type="line"/>
      <point x="182" y="318" type="line"/>
      <point x="517" y="318" type="line"/>
      <point x="529" y="390" type="line"/>
      <point x="194" y="390" type="line"/>
      <point x="234" y="626" type="line"/>
      <point x="580" y="626" type="line"/>
      <point x="592" y="698" type="line"/>
      <point x="164" y="698" type="line"/>
      <point x="47" y="0" type="line"/>
    </contour>
    <contour>
      <point x="279" y="0" type="move" name="bottom"/>
    </contour>
    <contour>
      <point x="477" y="0" type="move" name="bottomright"/>
    </contour>
    <contour>
      <point x="379" y="698" type="move" name="top"/>
    </contour>
  </outline>
</glyph>
<glyph name="F" format="1">
  <advance width="600"/>
  <unicode hex="0046"/>
  <outline>
    <contour>
      <point x="129" y="0" type="line" name="hr00"/>
      <point x="182" y="317" type="line"/>
      <point x="509" y="317" type="line"/>
      <point x="521" y="389" type="line"/>
      <point x="194" y="389" type="line"/>
      <point x="234" y="626" type="line"/>
      <point x="590" y="626" type="line"/>
      <point x="602" y="698" type="line"/>
      <point x="164" y="698" type="line"/>
      <point x="47" y="0" type="line"/>
    </contour>
    <contour>
      <point x="87" y="0" type="move" name="bottom"/>
    </contour>
    <contour>
      <point x="382" y="698" type="move" name="top"/>
    </contour>
  </outline>
</glyph>
<glyph name="G" format="1">
  <advance width="600"/>
  <unicode hex="0047"/>
  <outline>
    <contour>
      <point x="404" y="0" type="line"/>
      <point x="480" y="0" type="line"/>
      <point x="537" y="344" type="line"/>
      <point x="315" y="344" type="line"/>
      <point x="304" y="278" type="line"/>
      <point x="450" y="278" type="line"/>
      <point x="441" y="224" type="line" smooth="yes"/>
      <point x="426" y="134"/>
      <point x="367" y="58"/>
      <point x="272" y="58" type="curve" smooth="yes" name="hr01"/>
      <point x="184" y="58"/>
      <point x="150" y="123"/>
      <point x="150" y="225" type="curve" smooth="yes"/>
      <point x="150" y="242"/>
      <point x="151" y="276"/>
      <point x="156" y="306" type="curve" smooth="yes"/>
      <point x="172" y="402" type="line" smooth="yes"/>
      <point x="196" y="545"/>
      <point x="259" y="638"/>
      <point x="373" y="638" type="curve" smooth="yes"/>
      <point x="456" y="638"/>
      <point x="482" y="588"/>
      <point x="496" y="528" type="curve"/>
      <point x="570" y="552" type="line"/>
      <point x="555" y="629"/>
      <point x="508" y="710"/>
      <point x="379" y="710" type="curve" smooth="yes"/>
      <point x="127" y="710"/>
      <point x="66" y="401"/>
      <point x="66" y="240" type="curve" smooth="yes"/>
      <point x="66" y="74"/>
      <point x="128" y="-12"/>
      <point x="246" y="-12" type="curve" smooth="yes"/>
      <point x="337" y="-12"/>
      <point x="379" y="40"/>
      <point x="416" y="102" type="curve" name="hr02"/>
      <point x="421" y="102" type="line"/>
    </contour>
    <contour>
      <point x="288" y="0" type="move" name="bottom"/>
    </contour>
    <contour>
      <point x="367" y="698" type="move" name="top"/>
    </contour>
  </outline>
</glyph>
<glyph name="H" format="1">
  <advance width="600"/>
  <unicode hex="0048"/>
  <outline>
    <contour>
      <point x="393" y="0" type="line" name="hr00"/>
      <point x="475" y="0" type="line"/>
      <point x="592" y="698" type="line"/>
      <point x="510" y="698" type="line"/>
      <point x="458" y="390" type="line"/>
      <point x="186" y="390" type="line"/>
      <point x="238" y="698" type="line"/>
      <point x="156" y="698" type="line"/>
      <point x="39" y="0" type="line"/>
      <point x="121" y="0" type="line"/>
      <point x="174" y="318" type="line"/>
      <point x="446" y="318" type="line"/>
    </contour>
    <contour>
      <point x="255" y="0" type="move" name="bottom"/>
    </contour>
    <contour>
      <point x="372" y="698" type="move" name="top"/>
    </contour>
  </outline>
</glyph>
<glyph name="I" format="1">
  <advance width="600"/>
  <unicode hex="0049"/>
  <outline>
    <contour>
      <point x="473" y="0" type="line" name="hr00"/>
      <point x="484" y="66" type="line"/>
      <point x="309" y="66" type="line"/>
      <point x="404" y="632" type="line"/>
      <point x="579" y="632" type="line"/>
      <point x="590" y="698" type="line"/>
      <point x="158" y="698" type="line"/>
      <point x="147" y="632" type="line"/>
      <point x="322" y="632" type="line"/>
      <point x="227" y="66" type="line"/>
      <point x="52" y="66" type="line"/>
      <point x="41" y="0" type="line"/>
    </contour>
    <contour>
      <point x="261" y="0" type="move" name="bottom"/>
    </contour>
    <contour>
      <point x="473" y="0" type="move" name="bottomright"/>
    </contour>
    <contour>
      <point x="372" y="698" type="move" name="top"/>
    </contour>
  </outline>
</glyph>
<glyph name="J" format="1">
  <advance width="600"/>
  <unicode hex="004A"/>
  <outline>
    <contour>
      <point x="217" y="698" type="line" name="hr00"/>
      <point x="205" y="626" type="line"/>
      <point x="459" y="626" type="line"/>
      <point x="387" y="195" type="line" smooth="yes"/>
      <point x="372" y="105"/>
      <point x="326" y="61"/>
      <point x="251" y="61" type="curve" smooth="yes"/>
      <point x="166" y="61"/>
      <point x="144" y="109"/>
      <point x="137" y="168" type="curve"/>
      <point x="58" y="151" type="line"/>
      <point x="69" y="43"/>
      <point x="142" y="-12"/>
      <point x="249" y="-12" type="curve" smooth="yes"/>
      <point x="362" y="-12"/>
      <point x="444" y="45"/>
      <point x="465" y="170" type="curve" smooth="yes"/>
      <point x="553" y="698" type="line"/>
    </contour>
    <contour>
      <point x="252" y="0" type="move" name="bottom"/>
    </contour>
    <contour>
      <point x="384" y="698" type="move" name="top"/>
    </contour>
  </outline>
</glyph>
<glyph name="K" format="1">
  <advance width="600"/>
  <unicode hex="004B"/>
  <outline>
    <contour>
      <point x="440" y="0" type="line" name="hr00"/>
      <point x="530" y="0" type="line"/>
      <point x="347" y="402" type="line"/>
      <point x="645" y="698" type="line"/>
      <point x="541" y="698" type="line"/>
      <point x="319" y="477" type="line"/>
      <point x="185" y="335" type="line"/>
      <point x="181" y="335" type="line"/>
      <point x="242" y="698" type="line"/>
      <point x="160" y="698" type="line"/>
      <point x="43" y="0" type="line"/>
      <point x="125" y="0" type="line"/>
      <point x="162" y="221" type="line"/>
      <point x="287" y="345" type="line"/>
    </contour>
    <contour>
      <point x="266" y="0" type="move" name="bottom"/>
    </contour>
    <contour>
      <point x="377" y="698" type="move" name="top"/>
    </contour>
  </outline>
</glyph>
<glyph name="L" format="1">
  <advance width="600"/>
  <unicode hex="004C"/>
  <outline>
    <contour>
      <point x="491" y="0" type="line" name="hr00"/>
      <point x="503" y="72" type="line"/>
      <point x="172" y="72" type="line"/>
      <point x="276" y="698" type="line"/>
      <point x="195" y="698" type="line"/>
      <point x="78" y="0" type="line"/>
    </contour>
    <contour>
      <point x="283" y="0" type="move" name="bottom"/>
    </contour>
    <contour>
      <point x="235" y="698" type="move" name="top"/>
    </contour>
    <contour>
      <point x="371" y="740" type="move" name="topright"/>
    </contour>
  </outline>
</glyph>
<glyph name="M" format="1">
  <advance width="600"/>
  <unicode hex="004D"/>
  <outline>
    <contour>
      <point x="413" y="0" type="line" name="hr00"/>
      <point x="488" y="0" type="line"/>
      <point x="605" y="698" type="line"/>
      <point x="500" y="698" type="line"/>
      <point x="323" y="389" type="line"/>
      <point x="317" y="389" type="line"/>
      <point x="243" y="698" type="line"/>
      <point x="143" y="698" type="line"/>
      <point x="26" y="0" type="line"/>
      <point x="101" y="0" type="line"/>
      <point x="159" y="350" type="line"/>
      <point x="196" y="574" type="line"/>
      <point x="203" y="574" type="line"/>
      <point x="292" y="214" type="line"/>
      <point x="503" y="574" type="line"/>
      <point x="510" y="574" type="line"/>
      <point x="472" y="350" type="line"/>
    </contour>
    <contour>
      <point x="256" y="0" type="move" name="bottom"/>
    </contour>
    <contour>
      <point x="374" y="698" type="move" name="top"/>
    </contour>
  </outline>
</glyph>
<glyph name="N" format="1">
  <advance width="600"/>
  <unicode hex="004E"/>
  <outline>
    <contour>
      <point x="356" y="0" type="line" name="hr00"/>
      <point x="475" y="0" type="line"/>
      <point x="592" y="698" type="line"/>
      <point x="516" y="698" type="line"/>
      <point x="415" y="96" type="line"/>
      <point x="408" y="96" type="line"/>
      <point x="275" y="698" type="line"/>
      <point x="156" y="698" type="line"/>
      <point x="39" y="0" type="line"/>
      <point x="115" y="0" type="line"/>
      <point x="216" y="602" type="line"/>
      <point x="223" y="602" type="line"/>
    </contour>
    <contour>
      <point x="254" y="0" type="move" name="bottom"/>
    </contour>
    <contour>
      <point x="371" y="698" type="move" name="top"/>
    </contour>
  </outline>
</glyph>
<glyph name="O" format="1">
  <advance width="600"/>
  <unicode hex="004F"/>
  <outline>
    <contour>
      <point x="260" y="-12" type="curve" smooth="yes" name="hr00"/>
      <point x="510" y="-12"/>
      <point x="570" y="297"/>
      <point x="570" y="473" type="curve" smooth="yes"/>
      <point x="570" y="625"/>
      <point x="508" y="710"/>
      <point x="372" y="710" type="curve" smooth="yes"/>
      <point x="122" y="710"/>
      <point x="62" y="401"/>
      <point x="62" y="225" type="curve" smooth="yes"/>
      <point x="62" y="73"/>
      <point x="124" y="-12"/>
    </contour>
    <contour>
      <point x="266" y="60" type="curve" smooth="yes"/>
      <point x="178" y="60"/>
      <point x="143" y="115"/>
      <point x="143" y="210" type="curve" smooth="yes"/>
      <point x="143" y="233"/>
      <point x="145" y="262"/>
      <point x="150" y="292" type="curve" smooth="yes"/>
      <point x="169" y="406" type="line" smooth="yes"/>
      <point x="193" y="549"/>
      <point x="259" y="638"/>
      <point x="366" y="638" type="curve" smooth="yes"/>
      <point x="454" y="638"/>
      <point x="489" y="583"/>
      <point x="489" y="488" type="curve" smooth="yes"/>
      <point x="489" y="465"/>
      <point x="487" y="436"/>
      <point x="482" y="406" type="curve" smooth="yes"/>
      <point x="463" y="292" type="line" smooth="yes"/>
      <point x="439" y="149"/>
      <point x="373" y="60"/>
    </contour>
    <contour>
      <point x="263" y="0" type="move" name="bottom"/>
    </contour>
    <contour>
      <point x="365" y="698" type="move" name="top"/>
    </contour>
  </outline>
</glyph>
<glyph name="P" format="1">
  <advance width="600"/>
  <unicode hex="0050"/>
  <outline>
    <contour>
      <point x="129" y="0" type="line" name="hr00"/>
      <point x="179" y="297" type="line"/>
      <point x="355" y="297" type="line" smooth="yes"/>
      <point x="501" y="297"/>
      <point x="584" y="386"/>
      <point x="584" y="534" type="curve" smooth="yes"/>
      <point x="584" y="631"/>
      <point x="530" y="698"/>
      <point x="413" y="698" type="curve" smooth="yes"/>
      <point x="164" y="698" type="line"/>
      <point x="47" y="0" type="line"/>
    </contour>
    <contour>
      <point x="234" y="626" type="line"/>
      <point x="403" y="626" type="line" smooth="yes"/>
      <point x="464" y="626"/>
      <point x="500" y="598"/>
      <point x="500" y="543" type="curve" smooth="yes"/>
      <point x="500" y="530"/>
      <point x="499" y="516"/>
      <point x="497" y="504" type="curve" smooth="yes"/>
      <point x="491" y="468" type="line" smooth="yes"/>
      <point x="481" y="408"/>
      <point x="438" y="369"/>
      <point x="363" y="369" type="curve" smooth="yes"/>
      <point x="191" y="369" type="line"/>
    </contour>
    <contour>
      <point x="88" y="0" type="move" name="bottom"/>
    </contour>
    <contour>
      <point x="377" y="698" type="move" name="top"/>
    </contour>
  </outline>
</glyph>
<glyph name="Q" format="1">
  <advance width="600"/>
  <unicode hex="0051"/>
  <outline>
    <contour>
      <point x="384" y="-182" type="curve" smooth="yes" name="hr00"/>
      <point x="421" y="-182"/>
      <point x="441" y="-163"/>
      <point x="484" y="-122" type="curve" smooth="yes"/>
      <point x="545" y="-64" type="line"/>
      <point x="501" y="-27" type="line"/>
      <point x="401" y="-117" type="line"/>
      <point x="388" y="-114" type="line"/>
      <point x="316" y="-6" type="line"/>
      <point x="517" y="35"/>
      <point x="570" y="307"/>
      <point x="570" y="473" type="curve" smooth="yes"/>
      <point x="570" y="625"/>
      <point x="508" y="710"/>
      <point x="372" y="710" type="curve" smooth="yes"/>
      <point x="122" y="710"/>
      <point x="62" y="401"/>
      <point x="62" y="225" type="curve" smooth="yes"/>
      <point x="62" y="85"/>
      <point x="114" y="1"/>
      <point x="229" y="-10" type="curve"/>
      <point x="316" y="-137" type="line" smooth="yes"/>
      <point x="334" y="-163"/>
      <point x="353" y="-182"/>
    </contour>
    <contour>
      <point x="266" y="60" type="curve" smooth="yes"/>
      <point x="178" y="60"/>
      <point x="143" y="115"/>
      <point x="143" y="210" type="curve" smooth="yes"/>
      <point x="143" y="233"/>
      <point x="145" y="262"/>
      <point x="150" y="292" type="curve" smooth="yes"/>
      <point x="169" y="406" type="line" smooth="yes"/>
      <point x="193" y="549"/>
      <point x="259" y="638"/>
      <point x="366" y="638" type="curve" smooth="yes"/>
      <point x="454" y="638"/>
      <point x="489" y="583"/>
      <point x="489" y="488" type="curve" smooth="yes"/>
      <point x="489" y="465"/>
      <point x="487" y="436"/>
      <point x="482" y="406" type="curve" smooth="yes"/>
      <point x="463" y="292" type="line" smooth="yes"/>
      <point x="439" y="149"/>
      <point x="373" y="60"/>
    </contour>
    <contour>
      <point x="365" y="698" type="move" name="top"/>
    </contour>
  </outline>
</glyph>
<glyph name="R" format="1">
  <advance width="600"/>
  <unicode hex="0052"/>
  <outline>
    <contour>
      <point x="179" y="299" type="line" name="hr00"/>
      <point x="293" y="299" type="line"/>
      <point x="412" y="0" type="line"/>
      <point x="501" y="0" type="line"/>
      <point x="374" y="302" type="line"/>
      <point x="506" y="311"/>
      <point x="584" y="395"/>
      <point x="584" y="534" type="curve" smooth="yes"/>
      <point x="584" y="631"/>
      <point x="530" y="698"/>
      <point x="413" y="698" type="curve" smooth="yes"/>
      <point x="164" y="698" type="line"/>
      <point x="47" y="0" type="line"/>
      <point x="129" y="0" type="line"/>
    </contour>
    <contour>
      <point x="191" y="369" type="line"/>
      <point x="234" y="626" type="line"/>
      <point x="403" y="626" type="line" smooth="yes"/>
      <point x="464" y="626"/>
      <point x="500" y="598"/>
      <point x="500" y="543" type="curve" smooth="yes"/>
      <point x="500" y="530"/>
      <point x="499" y="516"/>
      <point x="497" y="504" type="curve" smooth="yes"/>
      <point x="491" y="468" type="line" smooth="yes"/>
      <point x="480" y="402"/>
      <point x="431" y="369"/>
      <point x="363" y="369" type="curve" smooth="yes"/>
    </contour>
    <contour>
      <point x="265" y="0" type="move" name="bottom"/>
    </contour>
    <contour>
      <point x="354" y="698" type="move" name="top"/>
    </contour>
  </outline>
</glyph>
<glyph name="S" format="1">
  <advance width="600"/>
  <unicode hex="0053"/>
  <outline>
    <contour>
      <point x="266" y="-12" type="curve" smooth="yes" name="hr00"/>
      <point x="429" y="-12"/>
      <point x="532" y="80"/>
      <point x="532" y="212" type="curve" smooth="yes"/>
      <point x="532" y="297"/>
      <point x="490" y="355"/>
      <point x="374" y="382" type="curve" smooth="yes"/>
      <point x="301" y="399" type="line" smooth="yes"/>
      <point x="227" y="416"/>
      <point x="188" y="444"/>
      <point x="188" y="508" type="curve" smooth="yes"/>
      <point x="188" y="589"/>
      <point x="250" y="640"/>
      <point x="351" y="640" type="curve" smooth="yes"/>
      <point x="430" y="640"/>
      <point x="484" y="609"/>
      <point x="523" y="551" type="curve"/>
      <point x="583" y="595" type="line"/>
      <point x="547" y="658"/>
      <point x="476" y="710"/>
      <point x="355" y="710" type="curve" smooth="yes"/>
      <point x="206" y="710"/>
      <point x="104" y="631"/>
      <point x="104" y="502" type="curve" smooth="yes"/>
      <point x="104" y="412"/>
      <point x="153" y="356"/>
      <point x="263" y="331" type="curve" smooth="yes"/>
      <point x="338" y="314" type="line" smooth="yes"/>
      <point x="419" y="296"/>
      <point x="448" y="262"/>
      <point x="448" y="205" type="curve" smooth="yes"/>
      <point x="448" y="116"/>
      <point x="379" y="59"/>
      <point x="270" y="59" type="curve" smooth="yes"/>
      <point x="186" y="59"/>
      <point x="130" y="93"/>
      <point x="87" y="160" type="curve"/>
      <point x="25" y="111" type="line"/>
      <point x="66" y="39"/>
      <point x="145" y="-12"/>
    </contour>
    <contour>
      <point x="269" y="0" type="move" name="bottom"/>
    </contour>
    <contour>
      <point x="356" y="698" type="move" name="top"/>
    </contour>
  </outline>
</glyph>
<glyph name="T" format="1">
  <advance width="600"/>
  <unicode hex="0054"/>
  <outline>
    <contour>
      <point x="637" y="626" type="line" name="hr00"/>
      <point x="649" y="698" type="line"/>
      <point x="99" y="698" type="line"/>
      <point x="87" y="626" type="line"/>
      <point x="321" y="626" type="line"/>
      <point x="216" y="0" type="line"/>
      <point x="298" y="0" type="line"/>
      <point x="403" y="626" type="line"/>
    </contour>
    <contour>
      <point x="258" y="0" type="move" name="bottom"/>
    </contour>
    <contour>
      <point x="368" y="698" type="move" name="top"/>
    </contour>
  </outline>
</glyph>
<glyph name="V" format="1">
  <advance width="600"/>
  <unicode hex="0056"/>
  <outline>
    <contour>
      <point x="313" y="0" type="line" name="hr00"/>
      <point x="635" y="698" type="line"/>
      <point x="549" y="698" type="line"/>
      <point x="392" y="349" type="line"/>
      <point x="271" y="81" type="line"/>
      <point x="266" y="81" type="line"/>
      <point x="231" y="349" type="line"/>
      <point x="187" y="698" type="line"/>
      <point x="109" y="698" type="line"/>
      <point x="201" y="0" type="line"/>
    </contour>
    <contour>
      <point x="255" y="0" type="move" name="bottom"/>
    </contour>
    <contour>
      <point x="355" y="698" type="move" name="top"/>
    </contour>
  </outline>
</glyph>
<glyph name="W" format="1">
  <advance width="600"/>
  <unicode hex="0057"/>
  <outline>
    <contour>
      <point x="167" y="0" type="line" name="hr00"/>
      <point x="322" y="421" type="line"/>
      <point x="330" y="421" type="line"/>
      <point x="345" y="0" type="line"/>
      <point x="466" y="0" type="line"/>
      <point x="637" y="698" type="line"/>
      <point x="562" y="698" type="line"/>
      <point x="467" y="298" type="line"/>
      <point x="416" y="82" type="line"/>
      <point x="408" y="82" type="line"/>
      <point x="387" y="516" type="line"/>
      <point x="293" y="516" type="line"/>
      <point x="130" y="82" type="line"/>
      <point x="122" y="82" type="line"/>
      <point x="143" y="305" type="line"/>
      <point x="180" y="698" type="line"/>
      <point x="107" y="698" type="line"/>
      <point x="46" y="0" type="line"/>
    </contour>
    <contour>
      <point x="258" y="0" type="move" name="bottom"/>
    </contour>
    <contour>
      <point x="363" y="698" type="move" name="top"/>
    </contour>
  </outline>
</glyph>
<glyph name="X" format="1">
  <advance width="600"/>
  <unicode hex="0058"/>
  <outline>
    <contour>
      <point x="367" y="353" type="line" name="hr00"/>
      <point x="643" y="698" type="line"/>
      <point x="547" y="698" type="line"/>
      <point x="441" y="563" type="line"/>
      <point x="332" y="425" type="line"/>
      <point x="328" y="425" type="line"/>
      <point x="264" y="563" type="line"/>
      <point x="202" y="698" type="line"/>
      <point x="114" y="698" type="line"/>
      <point x="275" y="360" type="line"/>
      <point x="-16" y="0" type="line"/>
      <point x="80" y="0" type="line"/>
      <point x="191" y="141" type="line"/>
      <point x="309" y="290" type="line"/>
      <point x="313" y="290" type="line"/>
      <point x="381" y="141" type="line"/>
      <point x="445" y="0" type="line"/>
      <point x="533" y="0" type="line"/>
    </contour>
    <contour>
      <point x="261" y="0" type="move" name="bottom"/>
    </contour>
    <contour>
      <point x="377" y="698" type="move" name="top"/>
    </contour>
  </outline>
</glyph>
<glyph name="Y" format="1">
  <advance width="600"/>
  <unicode hex="0059"/>
  <outline>
    <contour>
      <point x="298" y="0" type="line" name="hr00"/>
      <point x="345" y="279" type="line"/>
      <point x="656" y="698" type="line"/>
      <point x="558" y="698" type="line"/>
      <point x="427" y="515" type="line"/>
      <point x="312" y="354" type="line"/>
      <point x="308" y="354" type="line"/>
      <point x="249" y="515" type="line"/>
      <point x="178" y="698" type="line"/>
      <point x="90" y="698" type="line"/>
      <point x="262" y="272" type="line"/>
      <point x="216" y="0" type="line"/>
    </contour>
    <contour>
      <point x="259" y="0" type="move" name="bottom"/>
    </contour>
    <contour>
      <point x="364" y="698" type="move" name="top"/>
    </contour>
  </outline>
</glyph>
<glyph name="Z" format="1">
  <advance width="600"/>
  <unicode hex="005A"/>
  <outline>
    <contour>
      <point x="520" y="72" type="line" name="hr00"/>
      <point x="111" y="72" type="line"/>
      <point x="597" y="624" type="line"/>
      <point x="609" y="698" type="line"/>
      <point x="141" y="698" type="line"/>
      <point x="129" y="626" type="line"/>
      <point x="503" y="626" type="line"/>
      <point x="17" y="74" type="line"/>
      <point x="5" y="0" type="line"/>
      <point x="508" y="0" type="line"/>
    </contour>
    <contour>
      <point x="257" y="0" type="move" name="bottom"/>
    </contour>
    <contour>
      <point x="364" y="698" type="move" name="top"/>
    </contour>
  </outline>
</glyph>
<glyph name="bracketleft" format="1">
  <advance width="600"/>
  <unicode hex="005B"/>
  <outline>
    <contour>
      <point x="436" y="-138" type="line" name="hr00"/>
      <point x="446" y="-77" type="line"/>
      <point x="238" y="-77" type="line"/>
      <point x="367" y="699" type="line"/>
      <point x="576" y="699" type="line"/>
      <point x="586" y="760" type="line"/>
      <point x="310" y="760" type="line"/>
      <point x="160" y="-138" type="line"/>
    </contour>
  </outline>
</glyph>
<glyph name="backslash" format="1">
  <advance width="600"/>
  <unicode hex="005C"/>
  <outline>
    <contour>
      <point x="443" y="-138" type="line" name="hr00"/>
      <point x="245" y="760" type="line"/>
      <point x="182" y="760" type="line"/>
      <point x="380" y="-138" type="line"/>
    </contour>
  </outline>
</glyph>
<glyph name="bracketright" format="1">
  <advance width="600"/>
  <unicode hex="005D"/>
  <outline>
    <contour>
      <point x="160" y="760" type="line" name="hr00"/>
      <point x="149" y="699" type="line"/>
      <point x="358" y="699" type="line"/>
      <point x="229" y="-77" type="line"/>
      <point x="20" y="-77" type="line"/>
      <point x="10" y="-138" type="line"/>
      <point x="286" y="-138" type="line"/>
      <point x="436" y="760" type="line"/>
    </contour>
  </outline>
</glyph>
<glyph name="asciicircum" format="1">
  <advance width="600"/>
  <unicode hex="005E"/>
  <outline>
    <contour>
      <point x="572" y="320" type="line" name="hr00"/>
      <point x="422" y="698" type="line"/>
      <point x="334" y="698" type="line"/>
      <point x="65" y="328" type="line"/>
      <point x="123" y="293" type="line"/>
      <point x="367" y="630" type="line"/>
      <point x="371" y="630" type="line"/>
      <point x="507" y="293" type="line"/>
    </contour>
  </outline>
</glyph>
<glyph name="underscore" format="1">
  <advance width="600"/>
  <unicode hex="005F"/>
  <outline>
    <contour>
      <point x="477" y="-167" type="line" name="hr00"/>
      <point x="489" y="-95" type="line"/>
      <point x="14" y="-95" type="line"/>
      <point x="2" y="-167" type="line"/>
    </contour>
  </outline>
</glyph>
<glyph name="grave" format="1">
  <advance width="600"/>
  <unicode hex="0060"/>
  <outline>
    <contour>
      <point x="304" y="585" type="line" name="hr00"/>
      <point x="355" y="605" type="line"/>
      <point x="303" y="779" type="line"/>
      <point x="229" y="752" type="line"/>
    </contour>
    <contour>
      <point x="300" y="516" type="move" name="_top"/>
    </contour>
  </outline>
</glyph>
<glyph name="a" format="1">
  <advance width="600"/>
  <unicode hex="0061"/>
  <outline>
    <contour>
      <point x="213" y="-12" type="curve" smooth="yes"/>
      <point x="302" y="-12"/>
      <point x="352" y="41"/>
      <point x="392" y="122" type="curve"/>
      <point x="395" y="122" type="line"/>
      <point x="389" y="85" type="line" smooth="yes"/>
      <point x="381" y="38"/>
      <point x="402" y="0"/>
      <point x="466" y="0" type="curve" smooth="yes" name="hr01"/>
      <point x="524" y="0" type="line"/>
      <point x="536" y="70" type="line"/>
      <point x="465" y="70" type="line"/>
      <point x="539" y="516" type="line"/>
      <point x="461" y="516" type="line"/>
      <point x="446" y="426" type="line"/>
      <point x="443" y="426" type="line"/>
      <point x="421" y="493"/>
      <point x="370" y="528"/>
      <point x="296" y="528" type="curve" smooth="yes" name="hr02"/>
      <point x="117" y="528"/>
      <point x="56" y="326"/>
      <point x="56" y="188" type="curve" smooth="yes"/>
      <point x="56" y="56"/>
      <point x="112" y="-12"/>
    </contour>
    <contour>
      <point x="240" y="57" type="curve" smooth="yes"/>
      <point x="171" y="57"/>
      <point x="135" y="103"/>
      <point x="135" y="180" type="curve" smooth="yes"/>
      <point x="135" y="193"/>
      <point x="136" y="207"/>
      <point x="139" y="225" type="curve" smooth="yes"/>
      <point x="151" y="297" type="line" smooth="yes"/>
      <point x="167" y="393"/>
      <point x="222" y="459"/>
      <point x="318" y="459" type="curve" smooth="yes"/>
      <point x="394" y="459"/>
      <point x="445" y="418"/>
      <point x="433" y="346" type="curve" smooth="yes"/>
      <point x="414" y="232" type="line" smooth="yes"/>
      <point x="406" y="185"/>
      <point x="385" y="144"/>
      <point x="359" y="114" type="curve" smooth="yes"/>
      <point x="324" y="74"/>
      <point x="282" y="57"/>
    </contour>
    <contour>
      <point x="240.0" y="0.0" type="move" name="bottom"/>
    </contour>
    <contour>
      <point x="524.0" y="0.0" type="move" name="bottomright"/>
    </contour>
    <contour>
      <point x="316.0" y="516.0" type="move" name="top"/>
    </contour>
  </outline>
</glyph>
<glyph name="c" format="1">
  <advance width="600"/>
  <unicode hex="0063"/>
  <outline>
    <contour>
      <point x="270" y="-12" type="curve" smooth="yes" name="hr00"/>
      <point x="378" y="-12"/>
      <point x="443" y="44"/>
      <point x="508" y="149" type="curve"/>
      <point x="452" y="182" type="line"/>
      <point x="370" y="69"/>
      <point x="326" y="56"/>
      <point x="280" y="56" type="curve" smooth="yes"/>
      <point x="205" y="56"/>
      <point x="154" y="97"/>
      <point x="154" y="185" type="curve" smooth="yes"/>
      <point x="154" y="198"/>
      <point x="155" y="209"/>
      <point x="159" y="233" type="curve" smooth="yes"/>
      <point x="169" y="293" type="line" smooth="yes"/>
      <point x="187" y="401"/>
      <point x="244" y="460"/>
      <point x="332" y="460" type="curve" smooth="yes"/>
      <point x="396" y="460"/>
      <point x="434" y="441"/>
      <point x="454" y="378" type="curve"/>
      <point x="521" y="404" type="line"/>
      <point x="503" y="472"/>
      <point x="450" y="528"/>
      <point x="341" y="528" type="curve" smooth="yes"/>
      <point x="194" y="528"/>
      <point x="75" y="403"/>
      <point x="75" y="206" type="curve" smooth="yes"/>
      <point x="75" y="77"/>
      <point x="142" y="-12"/>
    </contour>
    <contour>
      <point x="272" y="0" type="move" name="bottom"/>
    </contour>
    <contour>
      <point x="339" y="516" type="move" name="top"/>
    </contour>
  </outline>
</glyph>
<glyph name="e" format="1">
  <advance width="600"/>
  <unicode hex="0065"/>
  <outline>
    <contour>
      <point x="277" y="-12" type="curve" smooth="yes" name="hr00"/>
      <point x="386" y="-12"/>
      <point x="456" y="40"/>
      <point x="514" y="135" type="curve"/>
      <point x="459" y="169" type="line"/>
      <point x="401" y="87"/>
      <point x="358" y="55"/>
      <point x="284" y="55" type="curve" smooth="yes"/>
      <point x="176" y="55"/>
      <point x="155" y="122"/>
      <point x="155" y="194" type="curve" smooth="yes"/>
      <point x="155" y="196"/>
      <point x="155" y="207"/>
      <point x="156" y="217" type="curve"/>
      <point x="485" y="226"/>
      <point x="532" y="316"/>
      <point x="532" y="389" type="curve" smooth="yes"/>
      <point x="532" y="479"/>
      <point x="458" y="528"/>
      <point x="357" y="528" type="curve" smooth="yes"/>
      <point x="191" y="528"/>
      <point x="73" y="396"/>
      <point x="73" y="209" type="curve" smooth="yes"/>
      <point x="73" y="61"/>
      <point x="147" y="-12"/>
    </contour>
    <contour>
      <point x="350" y="463" type="curve" smooth="yes"/>
      <point x="425" y="463"/>
      <point x="452" y="428"/>
      <point x="452" y="386" type="curve" smooth="yes"/>
      <point x="452" y="336"/>
      <point x="414" y="279"/>
      <point x="162" y="271" type="curve"/>
      <point x="163" y="281" type="line" smooth="yes"/>
      <point x="178" y="398"/>
      <point x="246" y="463"/>
    </contour>
    <contour>
      <point x="281" y="0" type="move" name="bottom"/>
    </contour>
    <contour>
      <point x="360" y="0" type="move" name="bottomright"/>
    </contour>
    <contour>
      <point x="354" y="516" type="move" name="top"/>
    </contour>
  </outline>
</glyph>
<glyph name="f" format="1">
  <advance width="600"/>
  <unicode hex="0066"/>
  <outline>
    <contour>
      <point x="196" y="-212" type="curve" smooth="yes" name="hr00"/>
      <point x="256" y="-212"/>
      <point x="283" y="-163"/>
      <point x="292" y="-107" type="curve" smooth="yes"/>
      <point x="385" y="449" type="line"/>
      <point x="594" y="449" type="line"/>
      <point x="605" y="516" type="line"/>
      <point x="396" y="516" type="line"/>
      <point x="422" y="673" type="line"/>
      <point x="630" y="673" type="line"/>
      <point x="641" y="740" type="line"/>
      <point x="468" y="740" type="line" smooth="yes"/>
      <point x="391" y="740"/>
      <point x="347" y="691"/>
      <point x="336" y="623" type="curve" smooth="yes"/>
      <point x="318" y="516" type="line"/>
      <point x="134" y="516" type="line"/>
      <point x="123" y="449" type="line"/>
      <point x="307" y="449" type="line"/>
      <point x="209" y="-138" type="line"/>
      <point x="191" y="-142" type="line"/>
      <point x="37" y="22" type="line"/>
      <point x="-16" y="-26" type="line"/>
      <point x="45" y="-93" type="line" smooth="yes"/>
      <point x="125" y="-180"/>
      <point x="154" y="-212"/>
    </contour>
  </outline>
</glyph>
<glyph name="g" format="1">
  <advance width="600"/>
  <unicode hex="0067"/>
  <outline>
    <contour>
      <point x="212" y="-212" type="curve" smooth="yes"/>
      <point x="341" y="-212"/>
      <point x="435" y="-152"/>
      <point x="461" y="0" type="curve" smooth="yes"/>
      <point x="547" y="516" type="line"/>
      <point x="469" y="516" type="line"/>
      <point x="454" y="426" type="line"/>
      <point x="451" y="426" type="line"/>
      <point x="429" y="493"/>
      <point x="376" y="528"/>
      <point x="300" y="528" type="curve" smooth="yes" name="hr01"/>
      <point x="122" y="528"/>
      <point x="57" y="334"/>
      <point x="57" y="201" type="curve" smooth="yes"/>
      <point x="57" y="75"/>
      <point x="113" y="5"/>
      <point x="219" y="5" type="curve" smooth="yes"/>
      <point x="310" y="5"/>
      <point x="364" y="56"/>
      <point x="403" y="139" type="curve"/>
      <point x="407" y="139" type="line"/>
      <point x="386" y="15" type="line" smooth="yes"/>
      <point x="367" y="-99"/>
      <point x="311" y="-143"/>
      <point x="217" y="-143" type="curve" smooth="yes"/>
      <point x="154" y="-143"/>
      <point x="112" y="-123"/>
      <point x="85" y="-89" type="curve"/>
      <point x="31" y="-141" type="line"/>
      <point x="68" y="-187"/>
      <point x="129" y="-212"/>
    </contour>
    <contour>
      <point x="246" y="74" type="curve" smooth="yes"/>
      <point x="174" y="74"/>
      <point x="137" y="119"/>
      <point x="137" y="201" type="curve" smooth="yes"/>
      <point x="137" y="215"/>
      <point x="139" y="227"/>
      <point x="142" y="245" type="curve" smooth="yes"/>
      <point x="151" y="299" type="line" smooth="yes"/>
      <point x="167" y="395"/>
      <point x="226" y="459"/>
      <point x="323" y="459" type="curve" smooth="yes"/>
      <point x="400" y="459"/>
      <point x="453" y="418"/>
      <point x="441" y="346" type="curve" smooth="yes"/>
      <point x="425" y="248" type="line" smooth="yes"/>
      <point x="416" y="192"/>
      <point x="387" y="152"/>
      <point x="368" y="131" type="curve" smooth="yes"/>
      <point x="331" y="90"/>
      <point x="289" y="74"/>
    </contour>
    <contour>
      <point x="328" y="516" type="move" name="top"/>
    </contour>
  </outline>
</glyph>
<glyph name="i" format="1">
  <advance width="600"/>
  <unicode hex="0069"/>
  <outline>
    <contour>
      <point x="340" y="631" type="curve" smooth="yes" name="hr00"/>
      <point x="380" y="631"/>
      <point x="401" y="649"/>
      <point x="406" y="679" type="curve" smooth="yes"/>
      <point x="408" y="691"/>
      <point x="410" y="700"/>
      <point x="410" y="708" type="curve" smooth="yes"/>
      <point x="410" y="729"/>
      <point x="395" y="748"/>
      <point x="352" y="748" type="curve" smooth="yes"/>
      <point x="312" y="748"/>
      <point x="291" y="730"/>
      <point x="286" y="700" type="curve" smooth="yes"/>
      <point x="284" y="688"/>
      <point x="282" y="679"/>
      <point x="282" y="671" type="curve" smooth="yes"/>
      <point x="282" y="650"/>
      <point x="297" y="631"/>
    </contour>
    <contour>
      <point x="272" y="-12" type="curve" smooth="yes"/>
      <point x="317" y="-12"/>
      <point x="354" y="12"/>
      <point x="448" y="99" type="curve" smooth="yes"/>
      <point x="539" y="183" type="line"/>
      <point x="492" y="227" type="line"/>
      <point x="295" y="57" type="line"/>
      <point x="272" y="66" type="line"/>
      <point x="359" y="516" type="line"/>
      <point x="93" y="516" type="line"/>
      <point x="82" y="449" type="line"/>
      <point x="268" y="449" type="line"/>
      <point x="200" y="97" type="line" smooth="yes"/>
      <point x="198" y="85"/>
      <point x="195" y="70"/>
      <point x="195" y="57" type="curve" smooth="yes"/>
      <point x="195" y="17"/>
      <point x="222" y="-12"/>
    </contour>
    <contour>
      <point x="264" y="0" type="move" name="bottom"/>
    </contour>
    <contour>
      <point x="322" y="0" type="move" name="bottomright"/>
    </contour>
  </outline>
</glyph>
<glyph name="j" format="1">
  <advance width="600"/>
  <unicode hex="006A"/>
  <outline>
    <contour>
      <point x="275" y="-212" type="curve" smooth="yes" name="hr00"/>
      <point x="334" y="-212"/>
      <point x="361" y="-162"/>
      <point x="370" y="-107" type="curve" smooth="yes"/>
      <point x="474" y="516" type="line"/>
      <point x="183" y="516" type="line"/>
      <point x="172" y="449" type="line"/>
      <point x="385" y="449" type="line"/>
      <point x="287" y="-138" type="line"/>
      <point x="269" y="-142" type="line"/>
      <point x="111" y="26" type="line"/>
      <point x="58" y="-22" type="line"/>
      <point x="123" y="-93" type="line" smooth="yes"/>
      <point x="209" y="-187"/>
      <point x="234" y="-212"/>
    </contour>
    <contour>
      <point x="457" y="631" type="curve" smooth="yes"/>
      <point x="497" y="631"/>
      <point x="518" y="649"/>
      <point x="523" y="679" type="curve" smooth="yes"/>
      <point x="525" y="691"/>
      <point x="527" y="700"/>
      <point x="527" y="708" type="curve" smooth="yes"/>
      <point x="527" y="729"/>
      <point x="512" y="748"/>
      <point x="469" y="748" type="curve" smooth="yes"/>
      <point x="429" y="748"/>
      <point x="408" y="730"/>
      <point x="403" y="700" type="curve" smooth="yes"/>
      <point x="401" y="688"/>
      <point x="399" y="679"/>
      <point x="399" y="671" type="curve" smooth="yes"/>
      <point x="399" y="650"/>
      <point x="414" y="631"/>
    </contour>
  </outline>
</glyph>
<glyph name="k" format="1">
  <advance width="600"/>
  <unicode hex="006B"/>
  <outline>
    <contour>
      <point x="59" y="0" type="line"/>
      <point x="137" y="0" type="line"/>
      <point x="185" y="285" type="line" smooth="yes"/>
      <point x="192" y="328"/>
      <point x="213" y="366"/>
      <point x="242" y="402" type="curve" smooth="yes"/>
      <point x="270" y="436"/>
      <point x="304" y="461"/>
      <point x="355" y="461" type="curve" smooth="yes"/>
      <point x="409" y="461"/>
      <point x="439" y="433"/>
      <point x="439" y="386" type="curve" smooth="yes"/>
      <point x="439" y="325"/>
      <point x="388" y="268"/>
      <point x="221" y="227" type="curve"/>
      <point x="302" y="51" type="line" smooth="yes"/>
      <point x="323" y="5"/>
      <point x="345" y="-12"/>
      <point x="379" y="-12" type="curve" smooth="yes" name="hr01"/>
      <point x="417" y="-12"/>
      <point x="447" y="10"/>
      <point x="499" y="62" type="curve" smooth="yes"/>
      <point x="570" y="133" type="line"/>
      <point x="527" y="178" type="line"/>
      <point x="394" y="56" type="line"/>
      <point x="381" y="58" type="line"/>
      <point x="310" y="213" type="line"/>
      <point x="485" y="256"/>
      <point x="519" y="339"/>
      <point x="519" y="401" type="curve" smooth="yes"/>
      <point x="519" y="478"/>
      <point x="466" y="528"/>
      <point x="384" y="528" type="curve" smooth="yes"/>
      <point x="298" y="528"/>
      <point x="244" y="473"/>
      <point x="207" y="394" type="curve"/>
      <point x="203" y="394" type="line"/>
      <point x="261" y="740" type="line" name="hr02"/>
      <point x="183" y="740" type="line"/>
    </contour>
    <contour>
      <point x="251" y="0" type="move" name="bottom"/>
    </contour>
  </outline>
</glyph>
<glyph name="l" format="1">
  <advance width="600"/>
  <unicode hex="006C"/>
  <outline>
    <contour>
      <point x="249" y="-12" type="curve" smooth="yes" name="hr00"/>
      <point x="289" y="-12"/>
      <point x="325" y="5"/>
      <point x="422" y="93" type="curve" smooth="yes"/>
      <point x="526" y="187" type="line"/>
      <point x="481" y="231" type="line"/>
      <point x="276" y="57" type="line"/>
      <point x="251" y="65" type="line"/>
      <point x="381" y="740" type="line"/>
      <point x="118" y="740" type="line"/>
      <point x="107" y="673" type="line"/>
      <point x="289" y="673" type="line"/>
      <point x="177" y="91" type="line" smooth="yes"/>
      <point x="175" y="82"/>
      <point x="174" y="68"/>
      <point x="174" y="59" type="curve" smooth="yes"/>
      <point x="174" y="18"/>
      <point x="195" y="-12"/>
    </contour>
    <contour>
      <point x="248" y="0" type="move" name="bottom"/>
    </contour>
    <contour>
      <point x="332" y="698" type="move" name="top"/>
    </contour>
    <contour>
      <point x="466" y="740" type="move" name="topright"/>
    </contour>
  </outline>
</glyph>
<glyph name="m" format="1">
  <advance width="600"/>
  <unicode hex="006D"/>
  <outline>
    <contour>
      <point x="84" y="0" type="line"/>
      <point x="140" y="334" type="line" smooth="yes"/>
      <point x="145" y="364"/>
      <point x="157" y="397"/>
      <point x="176" y="424" type="curve" smooth="yes"/>
      <point x="192" y="447"/>
      <point x="215" y="464"/>
      <point x="243" y="464" type="curve" smooth="yes"/>
      <point x="271" y="464"/>
      <point x="285" y="447"/>
      <point x="285" y="405" type="curve" smooth="yes"/>
      <point x="285" y="389"/>
      <point x="283" y="370"/>
      <point x="279" y="346" type="curve" smooth="yes"/>
      <point x="221" y="0" type="line"/>
      <point x="293" y="0" type="line"/>
      <point x="349" y="334" type="line" smooth="yes"/>
      <point x="354" y="364"/>
      <point x="366" y="398"/>
      <point x="385" y="424" type="curve" smooth="yes"/>
      <point x="402" y="447"/>
      <point x="422" y="464"/>
      <point x="450" y="464" type="curve" smooth="yes"/>
      <point x="480" y="464"/>
      <point x="494" y="445"/>
      <point x="494" y="408" type="curve" smooth="yes"/>
      <point x="494" y="394"/>
      <point x="491" y="370"/>
      <point x="487" y="346" type="curve" smooth="yes"/>
      <point x="429" y="0" type="line"/>
      <point x="501" y="0" type="line"/>
      <point x="561" y="359" type="line" smooth="yes"/>
      <point x="565" y="383"/>
      <point x="568" y="410"/>
      <point x="568" y="429" type="curve" smooth="yes"/>
      <point x="568" y="492"/>
      <point x="537" y="528"/>
      <point x="480" y="528" type="curve" smooth="yes"/>
      <point x="420" y="528"/>
      <point x="381" y="489"/>
      <point x="355" y="430" type="curve"/>
      <point x="352" y="430" type="line"/>
      <point x="356" y="486"/>
      <point x="331" y="528"/>
      <point x="273" y="528" type="curve" smooth="yes"/>
      <point x="216" y="528"/>
      <point x="185" y="487"/>
      <point x="161" y="435" type="curve"/>
      <point x="157" y="435" type="line"/>
      <point x="170" y="516" type="line" name="hr01"/>
      <point x="98" y="516" type="line"/>
      <point x="12" y="0" type="line"/>
    </contour>
    <contour>
      <point x="257" y="0" type="move" name="bottom"/>
    </contour>
    <contour>
      <point x="352" y="516" type="move" name="top"/>
    </contour>
  </outline>
</glyph>
<glyph name="n" format="1">
  <advance width="600"/>
  <unicode hex="006E"/>
  <outline>
    <contour>
      <point x="137" y="0" type="line"/>
      <point x="185" y="285" type="line" smooth="yes"/>
      <point x="195" y="344"/>
      <point x="233" y="390"/>
      <point x="244" y="403" type="curve" smooth="yes"/>
      <point x="273" y="437"/>
      <point x="308" y="459"/>
      <point x="353" y="459" type="curve" smooth="yes"/>
      <point x="411" y="459"/>
      <point x="439" y="421"/>
      <point x="439" y="360" type="curve" smooth="yes"/>
      <point x="439" y="349"/>
      <point x="438" y="329"/>
      <point x="434" y="305" type="curve" smooth="yes"/>
      <point x="383" y="0" type="line"/>
      <point x="461" y="0" type="line"/>
      <point x="513" y="312" type="line" smooth="yes"/>
      <point x="517" y="335"/>
      <point x="519" y="359"/>
      <point x="519" y="379" type="curve" smooth="yes"/>
      <point x="519" y="473"/>
      <point x="465" y="528"/>
      <point x="379" y="528" type="curve" smooth="yes"/>
      <point x="296" y="528"/>
      <point x="245" y="476"/>
      <point x="207" y="394" type="curve"/>
      <point x="203" y="394" type="line"/>
      <point x="223" y="516" type="line" name="hr01"/>
      <point x="145" y="516" type="line"/>
      <point x="59" y="0" type="line"/>
    </contour>
    <contour>
      <point x="253" y="0" type="move" name="bottom"/>
    </contour>
    <contour>
      <point x="337" y="516" type="move" name="top"/>
    </contour>
  </outline>
</glyph>
<glyph name="o" format="1">
  <advance width="600"/>
  <unicode hex="006F"/>
  <outline>
    <contour>
      <point x="265" y="-12" type="curve" smooth="yes" name="hr00"/>
      <point x="417" y="-12"/>
      <point x="536" y="113"/>
      <point x="536" y="310" type="curve" smooth="yes"/>
      <point x="536" y="439"/>
      <point x="468" y="528"/>
      <point x="334" y="528" type="curve" smooth="yes"/>
      <point x="183" y="528"/>
      <point x="64" y="403"/>
      <point x="64" y="206" type="curve" smooth="yes"/>
      <point x="64" y="77"/>
      <point x="133" y="-12"/>
    </contour>
    <contour>
      <point x="269" y="56" type="curve" smooth="yes"/>
      <point x="192" y="56"/>
      <point x="143" y="96"/>
      <point x="143" y="183" type="curve" smooth="yes"/>
      <point x="143" y="195"/>
      <point x="144" y="210"/>
      <point x="148" y="234" type="curve" smooth="yes"/>
      <point x="158" y="294" type="line" smooth="yes"/>
      <point x="175" y="396"/>
      <point x="234" y="460"/>
      <point x="331" y="460" type="curve" smooth="yes"/>
      <point x="408" y="460"/>
      <point x="457" y="420"/>
      <point x="457" y="333" type="curve" smooth="yes"/>
      <point x="457" y="321"/>
      <point x="456" y="306"/>
      <point x="452" y="282" type="curve" smooth="yes"/>
      <point x="442" y="222" type="line" smooth="yes"/>
      <point x="425" y="120"/>
      <point x="366" y="56"/>
    </contour>
    <contour>
      <point x="257" y="0" type="move" name="bottom"/>
    </contour>
    <contour>
      <point x="343" y="516" type="move" name="top"/>
    </contour>
  </outline>
</glyph>
<glyph name="p" format="1">
  <advance width="600"/>
  <unicode hex="0070"/>
  <outline>
    <contour>
      <point x="19" y="-200" type="line"/>
      <point x="97" y="-200" type="line"/>
      <point x="146" y="90" type="line"/>
      <point x="149" y="90" type="line"/>
      <point x="171" y="23"/>
      <point x="224" y="-12"/>
      <point x="300" y="-12" type="curve" smooth="yes"/>
      <point x="482" y="-12"/>
      <point x="544" y="190"/>
      <point x="544" y="328" type="curve" smooth="yes"/>
      <point x="544" y="460"/>
      <point x="487" y="528"/>
      <point x="383" y="528" type="curve" smooth="yes"/>
      <point x="292" y="528"/>
      <point x="240" y="475"/>
      <point x="200" y="394" type="curve"/>
      <point x="197" y="394" type="line"/>
      <point x="217" y="516" type="line" name="hr01"/>
      <point x="139" y="516" type="line"/>
    </contour>
    <contour>
      <point x="277" y="57" type="curve" smooth="yes"/>
      <point x="200" y="57"/>
      <point x="147" y="98"/>
      <point x="159" y="170" type="curve" smooth="yes"/>
      <point x="178" y="284" type="line" smooth="yes"/>
      <point x="186" y="332"/>
      <point x="209" y="373"/>
      <point x="235" y="402" type="curve" smooth="yes"/>
      <point x="271" y="442"/>
      <point x="313" y="459"/>
      <point x="356" y="459" type="curve" smooth="yes" name="hr02"/>
      <point x="428" y="459"/>
      <point x="465" y="413"/>
      <point x="465" y="336" type="curve" smooth="yes"/>
      <point x="465" y="323"/>
      <point x="464" y="309"/>
      <point x="461" y="291" type="curve" smooth="yes"/>
      <point x="449" y="219" type="line" smooth="yes"/>
      <point x="433" y="123"/>
      <point x="376" y="57"/>
    </contour>
    <contour>
      <point x="375" y="516" type="move" name="top"/>
    </contour>
  </outline>
</glyph>
<glyph name="r" format="1">
  <advance width="600"/>
  <unicode hex="0072"/>
  <outline>
    <contour>
      <point x="256" y="0" type="line"/>
      <point x="301" y="269" type="line" smooth="yes"/>
      <point x="311" y="329"/>
      <point x="347" y="371"/>
      <point x="360" y="386" type="curve" smooth="yes"/>
      <point x="391" y="422"/>
      <point x="428" y="438"/>
      <point x="488" y="438" type="curve" smooth="yes"/>
      <point x="576" y="438" type="line"/>
      <point x="589" y="516" type="line"/>
      <point x="511" y="516" type="line" smooth="yes"/>
      <point x="412" y="516"/>
      <point x="360" y="460"/>
      <point x="324" y="378" type="curve"/>
      <point x="319" y="378" type="line"/>
      <point x="342" y="516" type="line"/>
      <point x="119" y="516" type="line"/>
      <point x="108" y="449" type="line" name="hr01"/>
      <point x="253" y="449" type="line"/>
      <point x="178" y="0" type="line"/>
    </contour>
    <contour>
      <point x="218" y="0" type="move" name="bottom"/>
    </contour>
    <contour>
      <point x="369" y="516" type="move" name="top"/>
    </contour>
  </outline>
</glyph>
<glyph name="s" format="1">
  <advance width="600"/>
  <unicode hex="0073"/>
  <outline>
    <contour>
      <point x="268" y="-12" type="curve" smooth="yes" name="hr00"/>
      <point x="406" y="-12"/>
      <point x="499" y="54"/>
      <point x="499" y="161" type="curve" smooth="yes"/>
      <point x="499" y="263"/>
      <point x="414" y="279"/>
      <point x="348" y="290" type="curve" smooth="yes"/>
      <point x="275" y="302" type="line" smooth="yes"/>
      <point x="233" y="309"/>
      <point x="195" y="320"/>
      <point x="195" y="370" type="curve" smooth="yes"/>
      <point x="195" y="426"/>
      <point x="242" y="462"/>
      <point x="331" y="462" type="curve" smooth="yes"/>
      <point x="418" y="462"/>
      <point x="460" y="428"/>
      <point x="478" y="401" type="curve"/>
      <point x="533" y="449" type="line"/>
      <point x="494" y="498"/>
      <point x="430" y="528"/>
      <point x="340" y="528" type="curve" smooth="yes"/>
      <point x="218" y="528"/>
      <point x="119" y="473"/>
      <point x="119" y="364" type="curve" smooth="yes"/>
      <point x="119" y="268"/>
      <point x="197" y="243"/>
      <point x="272" y="232" type="curve" smooth="yes"/>
      <point x="347" y="221" type="line" smooth="yes"/>
      <point x="389" y="215"/>
      <point x="422" y="201"/>
      <point x="422" y="153" type="curve" smooth="yes"/>
      <point x="422" y="91"/>
      <point x="366" y="54"/>
      <point x="275" y="54" type="curve" smooth="yes"/>
      <point x="197" y="54"/>
      <point x="146" y="81"/>
      <point x="106" y="131" type="curve"/>
      <point x="48" y="85" type="line"/>
      <point x="93" y="23"/>
      <point x="168" y="-12"/>
    </contour>
    <contour>
      <point x="272" y="0" type="move" name="bottom"/>
    </contour>
    <contour>
      <point x="336" y="516" type="move" name="top"/>
    </contour>
  </outline>
</glyph>
<glyph name="t" format="1">
  <advance width="600"/>
  <unicode hex="0074"/>
  <outline>
    <contour>
      <point x="239" y="-12" type="curve" smooth="yes" name="hr00"/>
      <point x="280" y="-12"/>
      <point x="320" y="9"/>
      <point x="413" y="75" type="curve" smooth="yes"/>
      <point x="526" y="155" type="line"/>
      <point x="487" y="205" type="line"/>
      <point x="262" y="55" type="line"/>
      <point x="242" y="67" type="line"/>
      <point x="306" y="449" type="line"/>
      <point x="519" y="449" type="line"/>
      <point x="530" y="516" type="line"/>
      <point x="317" y="516" type="line"/>
      <point x="348" y="698" type="line"/>
      <point x="274" y="698" type="line"/>
      <point x="251" y="563" type="line" smooth="yes"/>
      <point x="245" y="528"/>
      <point x="229" y="516"/>
      <point x="195" y="516" type="curve" smooth="yes"/>
      <point x="90" y="516" type="line"/>
      <point x="79" y="449" type="line"/>
      <point x="228" y="449" type="line"/>
      <point x="168" y="101" type="line" smooth="yes"/>
      <point x="166" y="90"/>
      <point x="165" y="71"/>
      <point x="165" y="62" type="curve" smooth="yes"/>
      <point x="165" y="14"/>
      <point x="192" y="-12"/>
    </contour>
    <contour>
      <point x="233" y="0" type="move" name="bottom"/>
    </contour>
    <contour>
      <point x="454" y="760" type="move" name="topright"/>
    </contour>
  </outline>
</glyph>
<glyph name="u" format="1">
  <advance width="600"/>
  <unicode hex="0075"/>
  <outline>
    <contour>
      <point x="379" y="0" type="line"/>
      <point x="457" y="0" type="line"/>
      <point x="543" y="516" type="line"/>
      <point x="465" y="516" type="line"/>
      <point x="417" y="231" type="line" smooth="yes"/>
      <point x="407" y="172"/>
      <point x="369" y="126"/>
      <point x="358" y="113" type="curve" smooth="yes"/>
      <point x="329" y="79"/>
      <point x="294" y="57"/>
      <point x="249" y="57" type="curve" smooth="yes" name="hr01"/>
      <point x="191" y="57"/>
      <point x="163" y="95"/>
      <point x="163" y="156" type="curve" smooth="yes"/>
      <point x="163" y="167"/>
      <point x="164" y="187"/>
      <point x="168" y="211" type="curve" smooth="yes"/>
      <point x="219" y="516" type="line"/>
      <point x="141" y="516" type="line"/>
      <point x="89" y="204" type="line" smooth="yes"/>
      <point x="85" y="181"/>
      <point x="83" y="157"/>
      <point x="83" y="137" type="curve" smooth="yes"/>
      <point x="83" y="43"/>
      <point x="137" y="-12"/>
      <point x="223" y="-12" type="curve" smooth="yes"/>
      <point x="306" y="-12"/>
      <point x="357" y="40"/>
      <point x="395" y="122" type="curve" name="hr02"/>
      <point x="399" y="122" type="line"/>
    </contour>
    <contour>
      <point x="261" y="0" type="move" name="bottom"/>
    </contour>
    <contour>
      <point x="457" y="0" type="move" name="bottomright"/>
    </contour>
    <contour>
      <point x="340" y="516" type="move" name="top"/>
    </contour>
  </outline>
</glyph>
<glyph name="v" format="1">
  <advance width="600"/>
  <unicode hex="0076"/>
  <outline>
    <contour>
      <point x="77" y="516" type="line" name="hr00"/>
      <point x="66" y="449" type="line"/>
      <point x="176" y="449" type="line"/>
      <point x="124" y="101" type="line" smooth="yes"/>
      <point x="122" y="89"/>
      <point x="120" y="74"/>
      <point x="120" y="64" type="curve" smooth="yes"/>
      <point x="120" y="19"/>
      <point x="145" y="-8"/>
      <point x="197" y="-8" type="curve" smooth="yes"/>
      <point x="383" y="-8"/>
      <point x="541" y="167"/>
      <point x="541" y="377" type="curve" smooth="yes"/>
      <point x="541" y="431"/>
      <point x="529" y="482"/>
      <point x="508" y="522" type="curve"/>
      <point x="433" y="500" type="line"/>
      <point x="452" y="463"/>
      <point x="461" y="418"/>
      <point x="461" y="373" type="curve" smooth="yes"/>
      <point x="461" y="224"/>
      <point x="374" y="75"/>
      <point x="208" y="53" type="curve"/>
      <point x="195" y="62" type="line"/>
      <point x="263" y="516" type="line"/>
    </contour>
    <contour>
      <point x="246" y="0" type="move" name="bottom"/>
    </contour>
    <contour>
      <point x="336" y="516" type="move" name="top"/>
    </contour>
  </outline>
</glyph>
<glyph name="w" format="1">
  <advance width="600"/>
  <unicode hex="0077"/>
  <outline>
    <contour>
      <point x="133" y="-10" type="curve" smooth="yes" name="hr00"/>
      <point x="196" y="-10"/>
      <point x="231" y="30"/>
      <point x="260" y="95" type="curve"/>
      <point x="265" y="95" type="line"/>
      <point x="260" y="17"/>
      <point x="296" y="-10"/>
      <point x="350" y="-10" type="curve" smooth="yes"/>
      <point x="405" y="-10"/>
      <point x="453" y="16"/>
      <point x="489" y="66" type="curve" smooth="yes"/>
      <point x="539" y="136"/>
      <point x="567" y="251"/>
      <point x="567" y="371" type="curve" smooth="yes"/>
      <point x="567" y="432"/>
      <point x="556" y="486"/>
      <point x="540" y="521" type="curve"/>
      <point x="474" y="501" type="line"/>
      <point x="489" y="469"/>
      <point x="497" y="417"/>
      <point x="497" y="367" type="curve" smooth="yes"/>
      <point x="497" y="220"/>
      <point x="441" y="54"/>
      <point x="366" y="54" type="curve" smooth="yes"/>
      <point x="335" y="54"/>
      <point x="322" y="71"/>
      <point x="322" y="112" type="curve" smooth="yes"/>
      <point x="322" y="129"/>
      <point x="323" y="148"/>
      <point x="327" y="173" type="curve" smooth="yes"/>
      <point x="383" y="516" type="line"/>
      <point x="315" y="516" type="line"/>
      <point x="258" y="186" type="line" smooth="yes"/>
      <point x="253" y="160"/>
      <point x="244" y="120"/>
      <point x="225" y="94" type="curve" smooth="yes"/>
      <point x="207" y="70"/>
      <point x="188" y="54"/>
      <point x="161" y="54" type="curve" smooth="yes"/>
      <point x="132" y="54"/>
      <point x="116" y="71"/>
      <point x="116" y="111" type="curve" smooth="yes"/>
      <point x="116" y="129"/>
      <point x="118" y="150"/>
      <point x="122" y="173" type="curve" smooth="yes"/>
      <point x="178" y="516" type="line"/>
      <point x="108" y="516" type="line"/>
      <point x="49" y="159" type="line" smooth="yes"/>
      <point x="45" y="133"/>
      <point x="43" y="113"/>
      <point x="43" y="92" type="curve" smooth="yes"/>
      <point x="43" y="30"/>
      <point x="73" y="-10"/>
    </contour>
    <contour>
      <point x="247" y="0" type="move" name="bottom"/>
    </contour>
    <contour>
      <point x="348" y="516" type="move" name="top"/>
    </contour>
  </outline>
</glyph>
<glyph name="x" format="1">
  <advance width="600"/>
  <unicode hex="0078"/>
  <outline>
    <contour>
      <point x="106" y="-12" type="curve" smooth="yes"/>
      <point x="185" y="-12"/>
      <point x="241" y="40"/>
      <point x="268" y="166" type="curve"/>
      <point x="275" y="165" type="line"/>
      <point x="275" y="79"/>
      <point x="276" y="-12"/>
      <point x="356" y="-12" type="curve" smooth="yes"/>
      <point x="387" y="-12"/>
      <point x="428" y="2"/>
      <point x="501" y="65" type="curve" smooth="yes"/>
      <point x="551" y="108" type="line"/>
      <point x="518" y="154" type="line"/>
      <point x="370" y="50" type="line"/>
      <point x="355" y="57" type="line"/>
      <point x="340" y="87"/>
      <point x="337" y="151"/>
      <point x="337" y="179" type="curve" smooth="yes"/>
      <point x="337" y="285"/>
      <point x="383" y="466"/>
      <point x="475" y="466" type="curve" smooth="yes"/>
      <point x="507" y="466"/>
      <point x="519" y="443"/>
      <point x="519" y="393" type="curve" smooth="yes"/>
      <point x="519" y="379"/>
      <point x="518" y="359"/>
      <point x="515" y="336" type="curve"/>
      <point x="588" y="342" type="line"/>
      <point x="593" y="377"/>
      <point x="593" y="397"/>
      <point x="593" y="409" type="curve" smooth="yes"/>
      <point x="593" y="489"/>
      <point x="561" y="528"/>
      <point x="494" y="528" type="curve" smooth="yes"/>
      <point x="415" y="528"/>
      <point x="359" y="476"/>
      <point x="332" y="350" type="curve"/>
      <point x="325" y="351" type="line" name="hr01"/>
      <point x="325" y="434"/>
      <point x="324" y="528"/>
      <point x="246" y="528" type="curve" smooth="yes"/>
      <point x="205" y="528"/>
      <point x="159" y="502"/>
      <point x="109" y="465" type="curve" smooth="yes"/>
      <point x="43" y="416" type="line"/>
      <point x="74" y="369" type="line"/>
      <point x="232" y="466" type="line"/>
      <point x="247" y="459" type="line"/>
      <point x="260" y="430"/>
      <point x="263" y="364"/>
      <point x="263" y="337" type="curve" smooth="yes"/>
      <point x="263" y="231"/>
      <point x="217" y="50"/>
      <point x="125" y="50" type="curve" smooth="yes"/>
      <point x="93" y="50"/>
      <point x="81" y="73"/>
      <point x="81" y="123" type="curve" smooth="yes"/>
      <point x="81" y="137"/>
      <point x="82" y="157"/>
      <point x="85" y="180" type="curve"/>
      <point x="12" y="174" type="line"/>
      <point x="7" y="138"/>
      <point x="7" y="119"/>
      <point x="7" y="107" type="curve" smooth="yes"/>
      <point x="7" y="27"/>
      <point x="39" y="-12"/>
    </contour>
    <contour>
      <point x="252" y="0" type="move" name="bottom"/>
    </contour>
    <contour>
      <point x="348" y="516" type="move" name="top"/>
    </contour>
  </outline>
</glyph>
<glyph name="y" format="1">
  <advance width="600"/>
  <unicode hex="0079"/>
  <outline>
    <contour>
      <point x="208" y="-212" type="curve" smooth="yes" name="hr00"/>
      <point x="337" y="-212"/>
      <point x="431" y="-152"/>
      <point x="457" y="0" type="curve" smooth="yes"/>
      <point x="543" y="516" type="line"/>
      <point x="465" y="516" type="line"/>
      <point x="420" y="246" type="line" smooth="yes"/>
      <point x="410" y="187"/>
      <point x="372" y="141"/>
      <point x="361" y="128" type="curve" smooth="yes"/>
      <point x="332" y="94"/>
      <point x="297" y="72"/>
      <point x="252" y="72" type="curve" smooth="yes"/>
      <point x="194" y="72"/>
      <point x="165" y="110"/>
      <point x="165" y="171" type="curve" smooth="yes"/>
      <point x="165" y="182"/>
      <point x="166" y="200"/>
      <point x="170" y="223" type="curve" smooth="yes"/>
      <point x="219" y="516" type="line"/>
      <point x="141" y="516" type="line"/>
      <point x="91" y="216" type="line" smooth="yes"/>
      <point x="87" y="189"/>
      <point x="85" y="170"/>
      <point x="85" y="152" type="curve" smooth="yes"/>
      <point x="85" y="58"/>
      <point x="140" y="3"/>
      <point x="226" y="3" type="curve" smooth="yes"/>
      <point x="309" y="3"/>
      <point x="361" y="55"/>
      <point x="399" y="137" type="curve"/>
      <point x="402" y="137" type="line"/>
      <point x="382" y="15" type="line" smooth="yes"/>
      <point x="364" y="-97"/>
      <point x="308" y="-143"/>
      <point x="213" y="-143" type="curve" smooth="yes"/>
      <point x="150" y="-143"/>
      <point x="108" y="-123"/>
      <point x="81" y="-89" type="curve"/>
      <point x="27" y="-141" type="line"/>
      <point x="64" y="-187"/>
      <point x="125" y="-212"/>
    </contour>
    <contour>
      <point x="233" y="0" type="move" name="bottom"/>
    </contour>
    <contour>
      <point x="345" y="516" type="move" name="top"/>
    </contour>
  </outline>
</glyph>
<glyph name="z" format="1">
  <advance width="600"/>
  <unicode hex="007A"/>
  <outline>
    <contour>
      <point x="425" y="-10" type="curve" smooth="yes"/>
      <point x="487" y="-10"/>
      <point x="524" y="32"/>
      <point x="524" y="76" type="curve" smooth="yes"/>
      <point x="524" y="107"/>
      <point x="512" y="146"/>
      <point x="498" y="180" type="curve" smooth="yes"/>
      <point x="482" y="220" type="line"/>
      <point x="425" y="200" type="line"/>
      <point x="456" y="64" type="line"/>
      <point x="445" y="53" type="line"/>
      <point x="190" y="112" type="line"/>
      <point x="548" y="440" type="line"/>
      <point x="559" y="516" type="line"/>
      <point x="480" y="516" type="line"/>
      <point x="470" y="453" type="line"/>
      <point x="465" y="449" type="line"/>
      <point x="445" y="461" type="line" smooth="yes"/>
      <point x="368" y="507"/>
      <point x="313" y="528"/>
      <point x="258" y="528" type="curve" smooth="yes" name="hr01"/>
      <point x="159" y="528"/>
      <point x="102" y="466"/>
      <point x="102" y="353" type="curve" smooth="yes"/>
      <point x="102" y="341" type="line"/>
      <point x="166" y="341" type="line"/>
      <point x="166" y="403"/>
      <point x="177" y="462"/>
      <point x="255" y="462" type="curve" smooth="yes"/>
      <point x="292" y="462"/>
      <point x="338" y="449"/>
      <point x="420" y="407" type="curve"/>
      <point x="62" y="78" type="line"/>
      <point x="51" y="0" type="line"/>
      <point x="130" y="0" type="line"/>
      <point x="140" y="66" type="line"/>
      <point x="145" y="70" type="line"/>
      <point x="324" y="10" type="line" smooth="yes"/>
      <point x="367" y="-4"/>
      <point x="397" y="-10"/>
    </contour>
    <contour>
      <point x="286" y="0" type="move" name="bottom"/>
    </contour>
    <contour>
      <point x="331" y="516" type="move" name="top"/>
    </contour>
  </outline>
</glyph>
<glyph name="braceleft" format="1">
  <advance width="600"/>
  <unicode hex="007B"/>
  <outline>
    <contour>
      <point x="427" y="-138" type="line"/>
      <point x="437" y="-77" type="line"/>
      <point x="248" y="-77" type="line"/>
      <point x="261" y="1" type="line" smooth="yes"/>
      <point x="270" y="56"/>
      <point x="292" y="79"/>
      <point x="318" y="107" type="curve" smooth="yes"/>
      <point x="354" y="146"/>
      <point x="383" y="177"/>
      <point x="383" y="222" type="curve" smooth="yes"/>
      <point x="383" y="269"/>
      <point x="351" y="300"/>
      <point x="292" y="307" type="curve"/>
      <point x="292" y="311" type="line"/>
      <point x="375" y="324"/>
      <point x="417" y="366"/>
      <point x="417" y="425" type="curve" smooth="yes" name="hr01"/>
      <point x="417" y="462"/>
      <point x="401" y="490"/>
      <point x="386" y="515" type="curve" smooth="yes"/>
      <point x="373" y="537"/>
      <point x="361" y="556"/>
      <point x="361" y="590" type="curve" smooth="yes" name="hr02"/>
      <point x="361" y="599"/>
      <point x="362" y="610"/>
      <point x="377" y="699" type="curve"/>
      <point x="567" y="699" type="line"/>
      <point x="577" y="760" type="line"/>
      <point x="402" y="760" type="line" smooth="yes"/>
      <point x="349" y="760"/>
      <point x="313" y="725"/>
      <point x="306" y="679" type="curve" smooth="yes"/>
      <point x="294" y="603"/>
      <point x="293" y="592"/>
      <point x="293" y="581" type="curve" smooth="yes"/>
      <point x="293" y="531"/>
      <point x="313" y="506"/>
      <point x="329" y="480" type="curve" smooth="yes"/>
      <point x="343" y="458"/>
      <point x="349" y="442"/>
      <point x="349" y="423" type="curve" smooth="yes" name="hr03"/>
      <point x="349" y="369"/>
      <point x="303" y="341"/>
      <point x="218" y="341" type="curve" smooth="yes"/>
      <point x="121" y="341" type="line"/>
      <point x="111" y="281" type="line"/>
      <point x="208" y="281" type="line" smooth="yes"/>
      <point x="278" y="281"/>
      <point x="314" y="260"/>
      <point x="314" y="215" type="curve" smooth="yes" name="hr04"/>
      <point x="314" y="194"/>
      <point x="306" y="177"/>
      <point x="272" y="142" type="curve" smooth="yes"/>
      <point x="243" y="112"/>
      <point x="205" y="79"/>
      <point x="194" y="7" type="curve" smooth="yes"/>
      <point x="184" y="-59"/>
      <point x="183" y="-66"/>
      <point x="183" y="-74" type="curve" smooth="yes"/>
      <point x="183" y="-110"/>
      <point x="205" y="-138"/>
      <point x="253" y="-138" type="curve" smooth="yes"/>
    </contour>
  </outline>
</glyph>
<glyph name="bar" format="1">
  <advance width="600"/>
  <unicode hex="007C"/>
  <outline>
    <contour>
      <point x="268" y="-138" type="line" name="hr00"/>
      <point x="418" y="760" type="line"/>
      <point x="350" y="760" type="line"/>
      <point x="200" y="-138" type="line"/>
    </contour>
  </outline>
</glyph>
<glyph name="braceright" format="1">
  <advance width="600"/>
  <unicode hex="007D"/>
  <outline>
    <contour>
      <point x="193" y="760" type="line"/>
      <point x="183" y="699" type="line"/>
      <point x="372" y="699" type="line"/>
      <point x="359" y="621" type="line" smooth="yes"/>
      <point x="350" y="566"/>
      <point x="328" y="543"/>
      <point x="302" y="515" type="curve" smooth="yes"/>
      <point x="266" y="476"/>
      <point x="237" y="445"/>
      <point x="237" y="400" type="curve" smooth="yes"/>
      <point x="237" y="353"/>
      <point x="269" y="322"/>
      <point x="328" y="315" type="curve"/>
      <point x="328" y="311" type="line"/>
      <point x="245" y="298"/>
      <point x="203" y="256"/>
      <point x="203" y="197" type="curve" smooth="yes" name="hr01"/>
      <point x="203" y="160"/>
      <point x="220" y="132"/>
      <point x="234" y="107" type="curve" smooth="yes"/>
      <point x="246" y="85"/>
      <point x="259" y="66"/>
      <point x="259" y="32" type="curve" smooth="yes" name="hr02"/>
      <point x="259" y="23"/>
      <point x="258" y="12"/>
      <point x="243" y="-77" type="curve"/>
      <point x="53" y="-77" type="line"/>
      <point x="43" y="-138" type="line"/>
      <point x="218" y="-138" type="line" smooth="yes"/>
      <point x="271" y="-138"/>
      <point x="307" y="-103"/>
      <point x="314" y="-57" type="curve" smooth="yes"/>
      <point x="326" y="19"/>
      <point x="327" y="30"/>
      <point x="327" y="41" type="curve" smooth="yes"/>
      <point x="327" y="91"/>
      <point x="307" y="116"/>
      <point x="291" y="142" type="curve" smooth="yes"/>
      <point x="277" y="164"/>
      <point x="271" y="180"/>
      <point x="271" y="199" type="curve" smooth="yes" name="hr03"/>
      <point x="271" y="253"/>
      <point x="317" y="281"/>
      <point x="402" y="281" type="curve" smooth="yes"/>
      <point x="499" y="281" type="line"/>
      <point x="509" y="341" type="line"/>
      <point x="412" y="341" type="line" smooth="yes"/>
      <point x="342" y="341"/>
      <point x="306" y="362"/>
      <point x="306" y="407" type="curve" smooth="yes" name="hr04"/>
      <point x="306" y="428"/>
      <point x="314" y="445"/>
      <point x="348" y="480" type="curve" smooth="yes"/>
      <point x="377" y="510"/>
      <point x="415" y="543"/>
      <point x="426" y="615" type="curve" smooth="yes"/>
      <point x="436" y="681"/>
      <point x="437" y="688"/>
      <point x="437" y="696" type="curve" smooth="yes"/>
      <point x="437" y="732"/>
      <point x="415" y="760"/>
      <point x="367" y="760" type="curve" smooth="yes"/>
    </contour>
  </outline>
</glyph>
<glyph name="asciitilde" format="1">
  <advance width="600"/>
  <unicode hex="007E"/>
  <outline>
    <contour>
      <point x="398" y="197" type="curve" smooth="yes" name="hr00"/>
      <point x="483" y="197"/>
      <point x="535" y="286"/>
      <point x="569" y="385" type="curve"/>
      <point x="508" y="403" type="line"/>
      <point x="484" y="341"/>
      <point x="455" y="264"/>
      <point x="402" y="264" type="curve" smooth="yes"/>
      <point x="364" y="264"/>
      <point x="346" y="308"/>
      <point x="323" y="343" type="curve" smooth="yes"/>
      <point x="299" y="379"/>
      <point x="272" y="413"/>
      <point x="217" y="413" type="curve" smooth="yes"/>
      <point x="131" y="413"/>
      <point x="80" y="324"/>
      <point x="46" y="225" type="curve"/>
      <point x="107" y="207" type="line"/>
      <point x="131" y="269"/>
      <point x="160" y="346"/>
      <point x="213" y="346" type="curve" smooth="yes"/>
      <point x="251" y="346"/>
      <point x="269" y="302"/>
      <point x="292" y="267" type="curve" smooth="yes"/>
      <point x="316" y="231"/>
      <point x="343" y="197"/>
    </contour>
  </outline>
</glyph>
<glyph name="exclamdown" format="1">
  <advance width="600"/>
  <unicode hex="00A1"/>
  <outline>
    <contour>
      <point x="269" y="-182" type="line" name="hr00"/>
      <point x="303" y="21" type="line"/>
      <point x="320" y="283" type="line"/>
      <point x="289" y="283" type="line"/>
      <point x="217" y="21" type="line"/>
      <point x="183" y="-182" type="line"/>
    </contour>
    <contour>
      <point x="323" y="389" type="curve" smooth="yes"/>
      <point x="376" y="389"/>
      <point x="398" y="412"/>
      <point x="404" y="448" type="curve" smooth="yes"/>
      <point x="407" y="466"/>
      <point x="408" y="475"/>
      <point x="408" y="481" type="curve" smooth="yes"/>
      <point x="408" y="506"/>
      <point x="390" y="525"/>
      <point x="343" y="525" type="curve" smooth="yes"/>
      <point x="290" y="525"/>
      <point x="268" y="502"/>
      <point x="262" y="466" type="curve" smooth="yes"/>
      <point x="259" y="448"/>
      <point x="258" y="439"/>
      <point x="258" y="433" type="curve" smooth="yes"/>
      <point x="258" y="408"/>
      <point x="276" y="389"/>
    </contour>
  </outline>
</glyph>
<glyph name="cent" format="1">
  <advance width="600"/>
  <unicode hex="00A2"/>
  <outline>
    <contour>
      <point x="209" y="-114" type="line" name="hr00"/>
      <point x="271" y="-114" type="line"/>
      <point x="288" y="-11" type="line"/>
      <point x="385" y="-5"/>
      <point x="446" y="50"/>
      <point x="508" y="149" type="curve"/>
      <point x="452" y="182" type="line"/>
      <point x="380" y="84"/>
      <point x="338" y="61"/>
      <point x="298" y="57" type="curve"/>
      <point x="364" y="458" type="line"/>
      <point x="409" y="451"/>
      <point x="437" y="429"/>
      <point x="454" y="378" type="curve"/>
      <point x="521" y="404" type="line"/>
      <point x="505" y="464"/>
      <point x="462" y="514"/>
      <point x="378" y="525" type="curve"/>
      <point x="395" y="630" type="line"/>
      <point x="333" y="630" type="line"/>
      <point x="316" y="526" type="line"/>
      <point x="180" y="513"/>
      <point x="75" y="391"/>
      <point x="75" y="206" type="curve" smooth="yes"/>
      <point x="75" y="92"/>
      <point x="127" y="10"/>
      <point x="226" y="-8" type="curve"/>
    </contour>
    <contour>
      <point x="154" y="185" type="curve" smooth="yes"/>
      <point x="154" y="198"/>
      <point x="155" y="209"/>
      <point x="159" y="233" type="curve" smooth="yes"/>
      <point x="169" y="293" type="line" smooth="yes"/>
      <point x="185" y="390"/>
      <point x="234" y="448"/>
      <point x="306" y="458" type="curve"/>
      <point x="240" y="60" type="line"/>
      <point x="187" y="73"/>
      <point x="154" y="113"/>
    </contour>
  </outline>
</glyph>
<glyph name="sterling" format="1">
  <advance width="600"/>
  <unicode hex="00A3"/>
  <outline>
    <contour>
      <point x="463" y="-12" type="curve" smooth="yes"/>
      <point x="518" y="-12"/>
      <point x="547" y="24"/>
      <point x="547" y="75" type="curve" smooth="yes"/>
      <point x="547" y="107"/>
      <point x="536" y="148"/>
      <point x="521" y="184" type="curve" smooth="yes"/>
      <point x="505" y="222" type="line"/>
      <point x="443" y="203" type="line"/>
      <point x="475" y="73" type="line"/>
      <point x="464" y="62" type="line"/>
      <point x="138" y="125" type="line"/>
      <point x="140" y="129" type="line"/>
      <point x="210" y="138"/>
      <point x="237" y="203"/>
      <point x="237" y="268" type="curve" smooth="yes"/>
      <point x="237" y="280"/>
      <point x="236" y="295"/>
      <point x="234" y="306" type="curve"/>
      <point x="391" y="306" type="line"/>
      <point x="402" y="374" type="line"/>
      <point x="222" y="374" type="line"/>
      <point x="217" y="398"/>
      <point x="214" y="422"/>
      <point x="214" y="450" type="curve" smooth="yes" name="hr01"/>
      <point x="214" y="570"/>
      <point x="269" y="641"/>
      <point x="368" y="641" type="curve" smooth="yes"/>
      <point x="449" y="641"/>
      <point x="487" y="595"/>
      <point x="503" y="539" type="curve"/>
      <point x="574" y="567" type="line"/>
      <point x="562" y="634"/>
      <point x="499" y="710"/>
      <point x="373" y="710" type="curve" smooth="yes"/>
      <point x="228" y="710"/>
      <point x="131" y="604"/>
      <point x="131" y="458" type="curve" smooth="yes"/>
      <point x="131" y="428"/>
      <point x="135" y="401"/>
      <point x="141" y="374" type="curve"/>
      <point x="63" y="374" type="line"/>
      <point x="52" y="306" type="line"/>
      <point x="153" y="306" type="line"/>
      <point x="155" y="294"/>
      <point x="156" y="280"/>
      <point x="156" y="265" type="curve" smooth="yes" name="hr02"/>
      <point x="156" y="159"/>
      <point x="104" y="113"/>
      <point x="30" y="79" type="curve"/>
      <point x="18" y="0" type="line"/>
      <point x="101" y="0" type="line"/>
      <point x="111" y="65" type="line"/>
      <point x="338" y="12" type="line" smooth="yes"/>
      <point x="384" y="1"/>
      <point x="430" y="-12"/>
    </contour>
  </outline>
</glyph>
<glyph name="currency" format="1">
  <advance width="600"/>
  <unicode hex="00A4"/>
  <outline>
    <contour>
      <point x="280" y="119" type="curve" smooth="yes" name="hr00"/>
      <point x="316" y="119"/>
      <point x="348" y="125"/>
      <point x="376" y="138" type="curve"/>
      <point x="425" y="23" type="line"/>
      <point x="487" y="56" type="line"/>
      <point x="435" y="178" type="line"/>
      <point x="475" y="217"/>
      <point x="502" y="273"/>
      <point x="514" y="343" type="curve" smooth="yes"/>
      <point x="517" y="362"/>
      <point x="519" y="379"/>
      <point x="519" y="396" type="curve" smooth="yes"/>
      <point x="519" y="442"/>
      <point x="508" y="481"/>
      <point x="487" y="512" type="curve"/>
      <point x="585" y="638" type="line"/>
      <point x="525" y="675" type="line"/>
      <point x="435" y="558" type="line"/>
      <point x="412" y="571"/>
      <point x="380" y="579"/>
      <point x="345" y="579" type="curve" smooth="yes"/>
      <point x="309" y="579"/>
      <point x="277" y="573"/>
      <point x="249" y="560" type="curve"/>
      <point x="200" y="675" type="line"/>
      <point x="138" y="642" type="line"/>
      <point x="190" y="520" type="line"/>
      <point x="150" y="481"/>
      <point x="123" y="425"/>
      <point x="111" y="355" type="curve" smooth="yes"/>
      <point x="108" y="336"/>
      <point x="106" y="319"/>
      <point x="106" y="302" type="curve" smooth="yes"/>
      <point x="106" y="256"/>
      <point x="117" y="217"/>
      <point x="138" y="186" type="curve"/>
      <point x="40" y="60" type="line"/>
      <point x="100" y="23" type="line"/>
      <point x="190" y="140" type="line"/>
      <point x="213" y="127"/>
      <point x="245" y="119"/>
    </contour>
    <contour>
      <point x="285" y="185" type="curve" smooth="yes"/>
      <point x="225" y="185"/>
      <point x="186" y="218"/>
      <point x="186" y="283" type="curve" smooth="yes"/>
      <point x="186" y="294"/>
      <point x="187" y="307"/>
      <point x="189" y="319" type="curve" smooth="yes"/>
      <point x="199" y="381" type="line" smooth="yes"/>
      <point x="214" y="469"/>
      <point x="269" y="513"/>
      <point x="340" y="513" type="curve" smooth="yes"/>
      <point x="400" y="513"/>
      <point x="439" y="480"/>
      <point x="439" y="415" type="curve" smooth="yes"/>
      <point x="439" y="404"/>
      <point x="438" y="391"/>
      <point x="436" y="379" type="curve" smooth="yes"/>
      <point x="426" y="317" type="line" smooth="yes"/>
      <point x="411" y="229"/>
      <point x="356" y="185"/>
    </contour>
  </outline>
</glyph>
<glyph name="yen" format="1">
  <advance width="600"/>
  <unicode hex="00A5"/>
  <outline>
    <contour>
      <point x="33" y="0" type="line" name="hr00"/>
      <point x="483" y="0" type="line"/>
      <point x="494" y="68" type="line"/>
      <point x="307" y="68" type="line"/>
      <point x="339" y="256" type="line"/>
      <point x="525" y="256" type="line"/>
      <point x="536" y="324" type="line"/>
      <point x="394" y="324" type="line"/>
      <point x="651" y="698" type="line"/>
      <point x="556" y="698" type="line"/>
      <point x="309" y="324" type="line"/>
      <point x="305" y="324" type="line"/>
      <point x="184" y="698" type="line"/>
      <point x="97" y="698" type="line"/>
      <point x="228" y="324" type="line"/>
      <point x="86" y="324" type="line"/>
      <point x="75" y="256" type="line"/>
      <point x="261" y="256" type="line"/>
      <point x="229" y="68" type="line"/>
      <point x="44" y="68" type="line"/>
    </contour>
  </outline>
</glyph>
<glyph name="brokenbar" format="1">
  <advance width="600"/>
  <unicode hex="00A6"/>
  <outline>
    <contour>
      <point x="358" y="400" type="line" name="hr00"/>
      <point x="418" y="760" type="line"/>
      <point x="350" y="760" type="line"/>
      <point x="290" y="400" type="line"/>
    </contour>
    <contour>
      <point x="268" y="-138" type="line"/>
      <point x="328" y="222" type="line"/>
      <point x="260" y="222" type="line"/>
      <point x="200" y="-138" type="line"/>
    </contour>
  </outline>
</glyph>
<glyph name="section" format="1">
  <advance width="600"/>
  <unicode hex="00A7"/>
  <outline>
    <contour>
      <point x="449" y="19" type="curve" smooth="yes" name="hr00"/>
      <point x="449" y="66"/>
      <point x="430" y="107"/>
      <point x="390" y="134" type="curve"/>
      <point x="390" y="141" type="line"/>
      <point x="487" y="166"/>
      <point x="530" y="223"/>
      <point x="530" y="297" type="curve" smooth="yes"/>
      <point x="530" y="353"/>
      <point x="506" y="405"/>
      <point x="399" y="437" type="curve" smooth="yes"/>
      <point x="339" y="455" type="line" smooth="yes"/>
      <point x="279" y="473"/>
      <point x="248" y="498"/>
      <point x="248" y="544" type="curve" smooth="yes"/>
      <point x="248" y="601"/>
      <point x="298" y="642"/>
      <point x="378" y="642" type="curve" smooth="yes"/>
      <point x="428" y="642"/>
      <point x="472" y="626"/>
      <point x="500" y="598" type="curve"/>
      <point x="551" y="650" type="line"/>
      <point x="513" y="691"/>
      <point x="442" y="710"/>
      <point x="379" y="710" type="curve" smooth="yes"/>
      <point x="255" y="710"/>
      <point x="169" y="638"/>
      <point x="169" y="536" type="curve" smooth="yes"/>
      <point x="169" y="489"/>
      <point x="188" y="448"/>
      <point x="228" y="421" type="curve"/>
      <point x="228" y="414" type="line"/>
      <point x="131" y="389"/>
      <point x="88" y="332"/>
      <point x="88" y="258" type="curve" smooth="yes"/>
      <point x="88" y="202"/>
      <point x="112" y="150"/>
      <point x="219" y="118" type="curve" smooth="yes"/>
      <point x="279" y="100" type="line" smooth="yes"/>
      <point x="339" y="82"/>
      <point x="370" y="57"/>
      <point x="370" y="11" type="curve" smooth="yes"/>
      <point x="370" y="-46"/>
      <point x="320" y="-87"/>
      <point x="240" y="-87" type="curve" smooth="yes"/>
      <point x="190" y="-87"/>
      <point x="146" y="-71"/>
      <point x="118" y="-43" type="curve"/>
      <point x="67" y="-95" type="line"/>
      <point x="105" y="-136"/>
      <point x="176" y="-155"/>
      <point x="239" y="-155" type="curve" smooth="yes"/>
      <point x="363" y="-155"/>
      <point x="449" y="-83"/>
    </contour>
    <contour>
      <point x="452" y="280" type="curve" smooth="yes"/>
      <point x="452" y="225"/>
      <point x="416" y="178"/>
      <point x="356" y="152" type="curve"/>
      <point x="348" y="155"/>
      <point x="340" y="158"/>
      <point x="331" y="160" type="curve" smooth="yes"/>
      <point x="271" y="177" type="line" smooth="yes"/>
      <point x="191" y="200"/>
      <point x="166" y="229"/>
      <point x="166" y="274" type="curve" smooth="yes"/>
      <point x="166" y="329"/>
      <point x="202" y="376"/>
      <point x="262" y="402" type="curve"/>
      <point x="270" y="399"/>
      <point x="278" y="396"/>
      <point x="287" y="394" type="curve" smooth="yes"/>
      <point x="347" y="377" type="line" smooth="yes"/>
      <point x="427" y="354"/>
      <point x="452" y="325"/>
    </contour>
  </outline>
</glyph>
<glyph name="dieresis" format="1">
  <advance width="600"/>
  <unicode hex="00A8"/>
  <outline>
    <contour>
      <point x="226" y="619" type="curve" smooth="yes" name="hr00"/>
      <point x="266" y="619"/>
      <point x="279" y="636"/>
      <point x="285" y="662" type="curve" smooth="yes"/>
      <point x="287" y="671"/>
      <point x="289" y="680"/>
      <point x="289" y="687" type="curve" smooth="yes"/>
      <point x="289" y="706"/>
      <point x="276" y="723"/>
      <point x="237" y="723" type="curve" smooth="yes"/>
      <point x="197" y="723"/>
      <point x="184" y="706"/>
      <point x="178" y="680" type="curve" smooth="yes"/>
      <point x="176" y="671"/>
      <point x="174" y="662"/>
      <point x="174" y="655" type="curve" smooth="yes"/>
      <point x="174" y="636"/>
      <point x="187" y="619"/>
    </contour>
    <contour>
      <point x="412" y="619" type="curve" smooth="yes"/>
      <point x="452" y="619"/>
      <point x="465" y="636"/>
      <point x="471" y="662" type="curve" smooth="yes"/>
      <point x="473" y="671"/>
      <point x="475" y="680"/>
      <point x="475" y="687" type="curve" smooth="yes"/>
      <point x="475" y="706"/>
      <point x="462" y="723"/>
      <point x="423" y="723" type="curve" smooth="yes"/>
      <point x="383" y="723"/>
      <point x="370" y="706"/>
      <point x="364" y="680" type="curve" smooth="yes"/>
      <point x="362" y="671"/>
      <point x="360" y="662"/>
      <point x="360" y="655" type="curve" smooth="yes"/>
      <point x="360" y="636"/>
      <point x="373" y="619"/>
    </contour>
    <contour>
      <point x="300" y="516" type="move" name="_top"/>
    </contour>
  </outline>
</glyph>
<glyph name="copyright" format="1">
  <advance width="600"/>
  <unicode hex="00A9"/>
  <outline>
    <contour>
      <point x="271" y="18" type="curve" smooth="yes" name="hr00"/>
      <point x="471" y="18"/>
      <point x="616" y="174"/>
      <point x="616" y="398" type="curve" smooth="yes"/>
      <point x="616" y="573"/>
      <point x="508" y="680"/>
      <point x="356" y="680" type="curve" smooth="yes"/>
      <point x="156" y="680"/>
      <point x="11" y="524"/>
      <point x="11" y="300" type="curve" smooth="yes"/>
      <point x="11" y="125"/>
      <point x="119" y="18"/>
    </contour>
    <contour>
      <point x="276" y="72" type="curve" smooth="yes"/>
      <point x="129" y="72"/>
      <point x="71" y="182"/>
      <point x="71" y="300" type="curve" smooth="yes"/>
      <point x="71" y="315"/>
      <point x="72" y="334"/>
      <point x="82" y="389" type="curve" smooth="yes"/>
      <point x="107" y="530"/>
      <point x="213" y="626"/>
      <point x="351" y="626" type="curve" smooth="yes"/>
      <point x="498" y="626"/>
      <point x="556" y="516"/>
      <point x="556" y="398" type="curve" smooth="yes"/>
      <point x="556" y="383"/>
      <point x="555" y="364"/>
      <point x="545" y="309" type="curve" smooth="yes"/>
      <point x="520" y="168"/>
      <point x="414" y="72"/>
    </contour>
    <contour>
      <point x="290" y="172" type="curve" smooth="yes"/>
      <point x="355" y="172"/>
      <point x="403" y="205"/>
      <point x="433" y="252" type="curve"/>
      <point x="388" y="283" type="line"/>
      <point x="364" y="250"/>
      <point x="335" y="228"/>
      <point x="294" y="228" type="curve" smooth="yes"/>
      <point x="250" y="228"/>
      <point x="230" y="253"/>
      <point x="230" y="295" type="curve" smooth="yes"/>
      <point x="230" y="304"/>
      <point x="231" y="312"/>
      <point x="232" y="322" type="curve" smooth="yes"/>
      <point x="241" y="379" type="line" smooth="yes"/>
      <point x="250" y="434"/>
      <point x="278" y="472"/>
      <point x="336" y="472" type="curve" smooth="yes"/>
      <point x="378" y="472"/>
      <point x="395" y="453"/>
      <point x="403" y="421" type="curve"/>
      <point x="461" y="445" type="line"/>
      <point x="446" y="495"/>
      <point x="406" y="528"/>
      <point x="343" y="528" type="curve" smooth="yes"/>
      <point x="235" y="528"/>
      <point x="162" y="431"/>
      <point x="162" y="317" type="curve" smooth="yes"/>
      <point x="162" y="227"/>
      <point x="207" y="172"/>
    </contour>
  </outline>
</glyph>
<glyph name="ordfeminine" format="1">
  <advance width="600"/>
  <unicode hex="00AA"/>
  <outline>
    <contour>
      <point x="443" y="355" type="line" name="hr00"/>
      <point x="479" y="577" type="line" smooth="yes"/>
      <point x="481" y="590"/>
      <point x="482" y="604"/>
      <point x="482" y="613" type="curve" smooth="yes"/>
      <point x="482" y="673"/>
      <point x="433" y="710"/>
      <point x="355" y="710" type="curve" smooth="yes"/>
      <point x="285" y="710"/>
      <point x="237" y="674"/>
      <point x="213" y="641" type="curve"/>
      <point x="251" y="606" type="line"/>
      <point x="270" y="635"/>
      <point x="305" y="658"/>
      <point x="348" y="658" type="curve" smooth="yes"/>
      <point x="393" y="658"/>
      <point x="419" y="641"/>
      <point x="419" y="605" type="curve" smooth="yes"/>
      <point x="419" y="598"/>
      <point x="419" y="589"/>
      <point x="417" y="580" type="curve" smooth="yes"/>
      <point x="412" y="553" type="line"/>
      <point x="338" y="553" type="line" smooth="yes"/>
      <point x="229" y="553"/>
      <point x="172" y="515"/>
      <point x="172" y="436" type="curve" smooth="yes"/>
      <point x="172" y="384"/>
      <point x="207" y="349"/>
      <point x="278" y="349" type="curve" smooth="yes"/>
      <point x="329" y="349"/>
      <point x="363" y="381"/>
      <point x="380" y="412" type="curve"/>
      <point x="388" y="412" type="line"/>
      <point x="379" y="355" type="line"/>
    </contour>
    <contour>
      <point x="405" y="506" type="line"/>
      <point x="398" y="465" type="line" smooth="yes"/>
      <point x="391" y="425"/>
      <point x="342" y="400"/>
      <point x="291" y="400" type="curve" smooth="yes"/>
      <point x="255" y="400"/>
      <point x="235" y="412"/>
      <point x="235" y="437" type="curve" smooth="yes"/>
      <point x="235" y="441"/>
      <point x="236" y="450"/>
      <point x="239" y="463" type="curve" smooth="yes"/>
      <point x="246" y="494"/>
      <point x="276" y="506"/>
      <point x="331" y="506" type="curve" smooth="yes"/>
    </contour>
  </outline>
</glyph>
<glyph name="logicalnot" format="1">
  <advance width="600"/>
  <unicode hex="00AC"/>
  <outline>
    <contour>
      <point x="495" y="78" type="line" name="hr00"/>
      <point x="538" y="338" type="line"/>
      <point x="78" y="338" type="line"/>
      <point x="67" y="272" type="line"/>
      <point x="459" y="272" type="line"/>
      <point x="427" y="78" type="line"/>
    </contour>
  </outline>
</glyph>
<glyph name="registered" format="1">
  <advance width="600"/>
  <unicode hex="00AE"/>
  <outline>
    <contour>
      <point x="311" y="346" type="curve" smooth="yes" name="hr00"/>
      <point x="426" y="346"/>
      <point x="514" y="439"/>
      <point x="514" y="549" type="curve" smooth="yes"/>
      <point x="514" y="647"/>
      <point x="443" y="710"/>
      <point x="349" y="710" type="curve" smooth="yes"/>
      <point x="234" y="710"/>
      <point x="146" y="617"/>
      <point x="146" y="507" type="curve" smooth="yes"/>
      <point x="146" y="409"/>
      <point x="217" y="346"/>
    </contour>
    <contour>
      <point x="309" y="386" type="curve" smooth="yes"/>
      <point x="228" y="386"/>
      <point x="193" y="437"/>
      <point x="193" y="506" type="curve" smooth="yes"/>
      <point x="193" y="519"/>
      <point x="194" y="527"/>
      <point x="199" y="551" type="curve" smooth="yes"/>
      <point x="214" y="624"/>
      <point x="267" y="670"/>
      <point x="351" y="670" type="curve" smooth="yes"/>
      <point x="432" y="670"/>
      <point x="467" y="619"/>
      <point x="467" y="550" type="curve" smooth="yes"/>
      <point x="467" y="537"/>
      <point x="466" y="529"/>
      <point x="461" y="505" type="curve" smooth="yes"/>
      <point x="446" y="432"/>
      <point x="393" y="386"/>
    </contour>
    <contour>
      <point x="297" y="509" type="line"/>
      <point x="326" y="509" type="line"/>
      <point x="353" y="439" type="line"/>
      <point x="397" y="439" type="line"/>
      <point x="364" y="515" type="line"/>
      <point x="392" y="524"/>
      <point x="411" y="546"/>
      <point x="411" y="577" type="curve" smooth="yes"/>
      <point x="411" y="606"/>
      <point x="393" y="624"/>
      <point x="361" y="624" type="curve" smooth="yes"/>
      <point x="277" y="624" type="line"/>
      <point x="246" y="439" type="line"/>
      <point x="285" y="439" type="line"/>
    </contour>
    <contour>
      <point x="302" y="538" type="line"/>
      <point x="311" y="593" type="line"/>
      <point x="347" y="593" type="line" smooth="yes"/>
      <point x="361" y="593"/>
      <point x="368" y="586"/>
      <point x="368" y="574" type="curve" smooth="yes"/>
      <point x="368" y="572"/>
      <point x="368" y="567"/>
      <point x="367" y="562" type="curve" smooth="yes"/>
      <point x="364" y="547"/>
      <point x="353" y="538"/>
      <point x="337" y="538" type="curve" smooth="yes"/>
    </contour>
  </outline>
</glyph>
<glyph name="macron" format="1">
  <advance width="600"/>
  <unicode hex="00AF"/>
  <outline>
    <contour>
      <point x="180" y="638" type="line" name="hr00"/>
      <point x="457" y="638" type="line"/>
      <point x="468" y="705" type="line"/>
      <point x="191" y="705" type="line"/>
    </contour>
    <contour>
      <point x="300" y="516" type="move" name="_top"/>
    </contour>
  </outline>
</glyph>
<glyph name="degree" format="1">
  <advance width="600"/>
  <unicode hex="00B0"/>
  <outline>
    <contour>
      <point x="331" y="368" type="curve" smooth="yes" name="hr00"/>
      <point x="440" y="368"/>
      <point x="518" y="451"/>
      <point x="518" y="556" type="curve" smooth="yes"/>
      <point x="518" y="653"/>
      <point x="452" y="710"/>
      <point x="361" y="710" type="curve" smooth="yes"/>
      <point x="252" y="710"/>
      <point x="174" y="627"/>
      <point x="174" y="522" type="curve" smooth="yes"/>
      <point x="174" y="425"/>
      <point x="240" y="368"/>
    </contour>
    <contour>
      <point x="333" y="431" type="curve" smooth="yes"/>
      <point x="276" y="431"/>
      <point x="243" y="468"/>
      <point x="243" y="525" type="curve" smooth="yes"/>
      <point x="243" y="593"/>
      <point x="291" y="647"/>
      <point x="359" y="647" type="curve" smooth="yes"/>
      <point x="416" y="647"/>
      <point x="449" y="610"/>
      <point x="449" y="553" type="curve" smooth="yes"/>
      <point x="449" y="485"/>
      <point x="401" y="431"/>
    </contour>
  </outline>
</glyph>
<glyph name="plusminus" format="1">
  <advance width="600"/>
  <unicode hex="00B1"/>
  <outline>
    <contour>
      <point x="319" y="151" type="line" name="hr00"/>
      <point x="352" y="351" type="line"/>
      <point x="550" y="351" type="line"/>
      <point x="560" y="417" type="line"/>
      <point x="362" y="417" type="line"/>
      <point x="395" y="617" type="line"/>
      <point x="321" y="617" type="line"/>
      <point x="288" y="417" type="line"/>
      <point x="90" y="417" type="line"/>
      <point x="79" y="351" type="line"/>
      <point x="278" y="351" type="line"/>
      <point x="245" y="151" type="line"/>
    </contour>
    <contour>
      <point x="494" y="0" type="line"/>
      <point x="505" y="66" type="line"/>
      <point x="32" y="66" type="line"/>
      <point x="21" y="0" type="line"/>
    </contour>
  </outline>
</glyph>
<glyph name="twosuperior" format="1">
  <advance width="600"/>
  <unicode hex="00B2"/>
  <outline>
    <contour>
      <point x="450" y="378" type="line" name="hr00"/>
      <point x="259" y="378" type="line"/>
      <point x="353" y="445" type="line" smooth="yes"/>
      <point x="405" y="482"/>
      <point x="478" y="527"/>
      <point x="478" y="604" type="curve" smooth="yes"/>
      <point x="478" y="672"/>
      <point x="421" y="704"/>
      <point x="356" y="704" type="curve" smooth="yes"/>
      <point x="282" y="704"/>
      <point x="242" y="663"/>
      <point x="221" y="614" type="curve"/>
      <point x="273" y="591" type="line"/>
      <point x="285" y="620"/>
      <point x="308" y="651"/>
      <point x="352" y="651" type="curve" smooth="yes"/>
      <point x="385" y="651"/>
      <point x="412" y="633"/>
      <point x="412" y="604" type="curve" smooth="yes"/>
      <point x="412" y="598"/>
      <point x="411" y="589"/>
      <point x="410" y="584" type="curve" smooth="yes"/>
      <point x="402" y="542"/>
      <point x="375" y="523"/>
      <point x="322" y="484" type="curve" smooth="yes"/>
      <point x="191" y="388" type="line"/>
      <point x="181" y="329" type="line"/>
      <point x="442" y="329" type="line"/>
    </contour>
  </outline>
</glyph>
<glyph name="threesuperior" format="1">
  <advance width="600"/>
  <unicode hex="00B3"/>
  <outline>
    <contour>
      <point x="291" y="545" type="line"/>
      <point x="283" y="496" type="line"/>
      <point x="325" y="496" type="line" smooth="yes"/>
      <point x="367" y="496"/>
      <point x="394" y="475"/>
      <point x="394" y="445" type="curve" smooth="yes"/>
      <point x="394" y="440"/>
      <point x="393" y="434"/>
      <point x="392" y="429" type="curve" smooth="yes"/>
      <point x="384" y="388"/>
      <point x="358" y="372"/>
      <point x="313" y="372" type="curve" smooth="yes"/>
      <point x="263" y="372"/>
      <point x="237" y="392"/>
      <point x="222" y="423" type="curve"/>
      <point x="178" y="392" type="line"/>
      <point x="196" y="354"/>
      <point x="240" y="323"/>
      <point x="311" y="323" type="curve" smooth="yes"/>
      <point x="401" y="323"/>
      <point x="455" y="373"/>
      <point x="455" y="438" type="curve" smooth="yes"/>
      <point x="455" y="484"/>
      <point x="428" y="510"/>
      <point x="390" y="516" type="curve"/>
      <point x="390" y="518" type="line"/>
      <point x="437" y="527"/>
      <point x="475" y="561"/>
      <point x="475" y="611" type="curve" smooth="yes" name="hr01"/>
      <point x="475" y="663"/>
      <point x="435" y="704"/>
      <point x="360" y="704" type="curve" smooth="yes"/>
      <point x="301" y="704"/>
      <point x="259" y="678"/>
      <point x="231" y="641" type="curve"/>
      <point x="269" y="607" type="line"/>
      <point x="291" y="639"/>
      <point x="324" y="655"/>
      <point x="358" y="655" type="curve" smooth="yes"/>
      <point x="394" y="655"/>
      <point x="413" y="637"/>
      <point x="413" y="613" type="curve" smooth="yes"/>
      <point x="413" y="608"/>
      <point x="412" y="601"/>
      <point x="411" y="595" type="curve" smooth="yes"/>
      <point x="406" y="567"/>
      <point x="391" y="545"/>
      <point x="337" y="545" type="curve" smooth="yes"/>
    </contour>
  </outline>
</glyph>
<glyph name="acute" format="1">
  <advance width="600"/>
  <unicode hex="00B4"/>
  <outline>
    <contour>
      <point x="449" y="740" type="line" name="hr00"/>
      <point x="381" y="779" type="line"/>
      <point x="273" y="613" type="line"/>
      <point x="320" y="585" type="line"/>
    </contour>
    <contour>
      <point x="300" y="516" type="move" name="_top"/>
    </contour>
  </outline>
</glyph>
<glyph name="mu" format="1">
  <advance width="600"/>
  <unicode hex="00B5"/>
  <outline>
    <contour>
      <point x="100" y="-200" type="line"/>
      <point x="126" y="-44" type="line"/>
      <point x="136" y="55" type="line"/>
      <point x="140" y="55" type="line"/>
      <point x="149" y="11"/>
      <point x="183" y="-12"/>
      <point x="231" y="-12" type="curve" smooth="yes"/>
      <point x="320" y="-12"/>
      <point x="368" y="59"/>
      <point x="396" y="122" type="curve"/>
      <point x="400" y="122" type="line"/>
      <point x="380" y="0" type="line" name="hr01"/>
      <point x="458" y="0" type="line"/>
      <point x="543" y="516" type="line"/>
      <point x="465" y="516" type="line"/>
      <point x="418" y="231" type="line" smooth="yes"/>
      <point x="408" y="172"/>
      <point x="370" y="126"/>
      <point x="359" y="113" type="curve" smooth="yes"/>
      <point x="330" y="79"/>
      <point x="295" y="57"/>
      <point x="250" y="57" type="curve" smooth="yes" name="hr02"/>
      <point x="192" y="57"/>
      <point x="163" y="95"/>
      <point x="163" y="156" type="curve" smooth="yes"/>
      <point x="163" y="167"/>
      <point x="164" y="185"/>
      <point x="168" y="208" type="curve" smooth="yes"/>
      <point x="219" y="516" type="line"/>
      <point x="141" y="516" type="line"/>
      <point x="23" y="-200" type="line"/>
    </contour>
  </outline>
</glyph>
<glyph name="paragraph" format="1">
  <advance width="600"/>
  <unicode hex="00B6"/>
  <outline>
    <contour>
      <point x="204" y="-149" type="line" name="hr00"/>
      <point x="274" y="-149" type="line"/>
      <point x="405" y="636" type="line"/>
      <point x="495" y="636" type="line"/>
      <point x="364" y="-149" type="line"/>
      <point x="434" y="-149" type="line"/>
      <point x="576" y="698" type="line"/>
      <point x="345" y="698" type="line" smooth="yes"/>
      <point x="209" y="698"/>
      <point x="81" y="601"/>
      <point x="81" y="444" type="curve" smooth="yes"/>
      <point x="81" y="321"/>
      <point x="160" y="246"/>
      <point x="270" y="246" type="curve"/>
    </contour>
  </outline>
</glyph>
<glyph name="periodcentered" format="1">
  <advance width="600"/>
  <unicode hex="00B7"/>
  <outline>
    <contour>
      <point x="297" y="236" type="curve" smooth="yes" name="hr00"/>
      <point x="348" y="236"/>
      <point x="372" y="259"/>
      <point x="378" y="295" type="curve" smooth="yes"/>
      <point x="380" y="307"/>
      <point x="382" y="319"/>
      <point x="382" y="327" type="curve" smooth="yes"/>
      <point x="382" y="352"/>
      <point x="364" y="372"/>
      <point x="317" y="372" type="curve" smooth="yes"/>
      <point x="266" y="372"/>
      <point x="242" y="349"/>
      <point x="236" y="313" type="curve" smooth="yes"/>
      <point x="234" y="301"/>
      <point x="232" y="289"/>
      <point x="232" y="281" type="curve" smooth="yes"/>
      <point x="232" y="256"/>
      <point x="250" y="236"/>
    </contour>
  </outline>
</glyph>
<glyph name="cedilla" format="1">
  <advance width="600"/>
  <unicode hex="00B8"/>
  <outline>
    <contour>
      <point x="285" y="-207" type="curve" smooth="yes" name="hr00"/>
      <point x="346" y="-207"/>
      <point x="400" y="-181"/>
      <point x="400" y="-119" type="curve" smooth="yes"/>
      <point x="400" y="-80"/>
      <point x="378" y="-60"/>
      <point x="341" y="-60" type="curve" smooth="yes"/>
      <point x="333" y="-60"/>
      <point x="318" y="-61"/>
      <point x="304" y="-64" type="curve"/>
      <point x="302" y="-61" type="line"/>
      <point x="331" y="20" type="line"/>
      <point x="281" y="20" type="line"/>
      <point x="246" y="-76" type="line"/>
      <point x="275" y="-80" type="line" smooth="yes"/>
      <point x="326" y="-87"/>
      <point x="335" y="-105"/>
      <point x="335" y="-119" type="curve" smooth="yes"/>
      <point x="335" y="-141"/>
      <point x="314" y="-153"/>
      <point x="285" y="-153" type="curve" smooth="yes"/>
      <point x="256" y="-153"/>
      <point x="239" y="-141"/>
      <point x="229" y="-126" type="curve"/>
      <point x="189" y="-166" type="line"/>
      <point x="202" y="-187"/>
      <point x="233" y="-207"/>
    </contour>
    <contour>
      <point x="300" y="0" type="move" name="_bottom"/>
    </contour>
  </outline>
</glyph>
<glyph name="onesuperior" format="1">
  <advance width="600"/>
  <unicode hex="00B9"/>
  <outline>
    <contour>
      <point x="460" y="329" type="line" name="hr00"/>
      <point x="468" y="378" type="line"/>
      <point x="374" y="378" type="line"/>
      <point x="428" y="698" type="line"/>
      <point x="365" y="698" type="line"/>
      <point x="233" y="626" type="line"/>
      <point x="253" y="582" type="line"/>
      <point x="358" y="639" type="line"/>
      <point x="314" y="378" type="line"/>
      <point x="208" y="378" type="line"/>
      <point x="200" y="329" type="line"/>
    </contour>
  </outline>
</glyph>
<glyph name="ordmasculine" format="1">
  <advance width="600"/>
  <unicode hex="00BA"/>
  <outline>
    <contour>
      <point x="320" y="349" type="curve" smooth="yes" name="hr00"/>
      <point x="435" y="349"/>
      <point x="509" y="440"/>
      <point x="509" y="568" type="curve" smooth="yes"/>
      <point x="509" y="651"/>
      <point x="453" y="710"/>
      <point x="372" y="710" type="curve" smooth="yes"/>
      <point x="257" y="710"/>
      <point x="183" y="619"/>
      <point x="183" y="491" type="curve" smooth="yes"/>
      <point x="183" y="408"/>
      <point x="239" y="349"/>
    </contour>
    <contour>
      <point x="328" y="403" type="curve" smooth="yes"/>
      <point x="276" y="403"/>
      <point x="249" y="434"/>
      <point x="249" y="477" type="curve" smooth="yes"/>
      <point x="249" y="485"/>
      <point x="249" y="490"/>
      <point x="251" y="502" type="curve" smooth="yes"/>
      <point x="261" y="562" type="line" smooth="yes"/>
      <point x="270" y="617"/>
      <point x="304" y="656"/>
      <point x="364" y="656" type="curve" smooth="yes"/>
      <point x="416" y="656"/>
      <point x="443" y="625"/>
      <point x="443" y="582" type="curve" smooth="yes"/>
      <point x="443" y="574"/>
      <point x="443" y="569"/>
      <point x="441" y="557" type="curve" smooth="yes"/>
      <point x="431" y="497" type="line" smooth="yes"/>
      <point x="422" y="442"/>
      <point x="388" y="403"/>
    </contour>
  </outline>
</glyph>
<glyph name="questiondown" format="1">
  <advance width="600"/>
  <unicode hex="00BF"/>
  <outline>
    <contour>
      <point x="238" y="-194" type="curve" smooth="yes" name="hr00"/>
      <point x="368" y="-194"/>
      <point x="441" y="-118"/>
      <point x="473" y="-34" type="curve"/>
      <point x="402" y="-4" type="line"/>
      <point x="376" y="-73"/>
      <point x="330" y="-123"/>
      <point x="245" y="-123" type="curve" smooth="yes"/>
      <point x="176" y="-123"/>
      <point x="131" y="-86"/>
      <point x="131" y="-28" type="curve" smooth="yes"/>
      <point x="131" y="-26"/>
      <point x="131" y="-11"/>
      <point x="133" y="1" type="curve" smooth="yes"/>
      <point x="148" y="91"/>
      <point x="201" y="126"/>
      <point x="342" y="144" type="curve"/>
      <point x="368" y="301" type="line"/>
      <point x="291" y="301" type="line"/>
      <point x="274" y="201" type="line"/>
      <point x="147" y="183"/>
      <point x="46" y="108"/>
      <point x="46" y="-27" type="curve" smooth="yes"/>
      <point x="46" y="-128"/>
      <point x="118" y="-194"/>
    </contour>
    <contour>
      <point x="342" y="389" type="curve" smooth="yes"/>
      <point x="393" y="389"/>
      <point x="417" y="412"/>
      <point x="423" y="448" type="curve" smooth="yes"/>
      <point x="425" y="460"/>
      <point x="427" y="472"/>
      <point x="427" y="480" type="curve" smooth="yes"/>
      <point x="427" y="505"/>
      <point x="409" y="525"/>
      <point x="362" y="525" type="curve" smooth="yes"/>
      <point x="311" y="525"/>
      <point x="287" y="502"/>
      <point x="281" y="466" type="curve" smooth="yes"/>
      <point x="279" y="454"/>
      <point x="277" y="442"/>
      <point x="277" y="434" type="curve" smooth="yes"/>
      <point x="277" y="409"/>
      <point x="295" y="389"/>
    </contour>
  </outline>
</glyph>
<glyph name="AE" format="1">
  <advance width="600"/>
  <unicode hex="00C6"/>
  <outline>
    <contour>
      <point x="266" y="0" type="line" name="hr00"/>
      <point x="512" y="0" type="line"/>
      <point x="523" y="69" type="line"/>
      <point x="356" y="69" type="line"/>
      <point x="397" y="319" type="line"/>
      <point x="553" y="319" type="line"/>
      <point x="564" y="388" type="line"/>
      <point x="408" y="388" type="line"/>
      <point x="448" y="629" type="line"/>
      <point x="616" y="629" type="line"/>
      <point x="627" y="698" type="line"/>
      <point x="297" y="698" type="line"/>
      <point x="-23" y="0" type="line"/>
      <point x="62" y="0" type="line"/>
      <point x="151" y="201" type="line"/>
      <point x="299" y="201" type="line"/>
    </contour>
    <contour>
      <point x="372" y="638" type="line"/>
      <point x="311" y="270" type="line"/>
      <point x="181" y="270" type="line"/>
      <point x="344" y="638" type="line"/>
    </contour>
    <contour>
      <point x="419" y="698" type="move" name="top"/>
    </contour>
  </outline>
</glyph>
<glyph name="Ccedilla" format="1">
  <advance width="600"/>
  <unicode hex="00C7"/>
  <outline>
    <contour>
      <point x="385" y="638" type="curve" smooth="yes" name="hr00"/>
      <point x="468" y="638"/>
      <point x="494" y="588"/>
      <point x="508" y="528" type="curve"/>
      <point x="582" y="552" type="line"/>
      <point x="567" y="629"/>
      <point x="520" y="710"/>
      <point x="391" y="710" type="curve" smooth="yes"/>
      <point x="138" y="710"/>
      <point x="78" y="401"/>
      <point x="78" y="240" type="curve" smooth="yes"/>
      <point x="78" y="88"/>
      <point x="134" y="0"/>
      <point x="259" y="-11" type="curve"/>
      <point x="236" y="-76" type="line"/>
      <point x="265" y="-80" type="line" smooth="yes"/>
      <point x="316" y="-87"/>
      <point x="325" y="-105"/>
      <point x="325" y="-119" type="curve" smooth="yes"/>
      <point x="325" y="-141"/>
      <point x="304" y="-153"/>
      <point x="275" y="-153" type="curve" smooth="yes"/>
      <point x="246" y="-153"/>
      <point x="229" y="-141"/>
      <point x="219" y="-126" type="curve"/>
      <point x="179" y="-166" type="line"/>
      <point x="192" y="-187"/>
      <point x="223" y="-207"/>
      <point x="275" y="-207" type="curve" smooth="yes"/>
      <point x="336" y="-207"/>
      <point x="390" y="-181"/>
      <point x="390" y="-119" type="curve" smooth="yes"/>
      <point x="390" y="-80"/>
      <point x="368" y="-60"/>
      <point x="331" y="-60" type="curve" smooth="yes"/>
      <point x="323" y="-60"/>
      <point x="308" y="-61"/>
      <point x="294" y="-64" type="curve"/>
      <point x="292" y="-61" type="line"/>
      <point x="310" y="-11" type="line"/>
      <point x="420" y="-3"/>
      <point x="482" y="62"/>
      <point x="532" y="165" type="curve"/>
      <point x="467" y="198" type="line"/>
      <point x="414" y="104"/>
      <point x="376" y="60"/>
      <point x="296" y="60" type="curve" smooth="yes"/>
      <point x="200" y="60"/>
      <point x="160" y="123"/>
      <point x="160" y="219" type="curve" smooth="yes"/>
      <point x="160" y="247"/>
      <point x="163" y="277"/>
      <point x="168" y="307" type="curve" smooth="yes"/>
      <point x="184" y="403" type="line" smooth="yes"/>
      <point x="208" y="547"/>
      <point x="273" y="638"/>
    </contour>
  </outline>
</glyph>
<glyph name="multiply" format="1">
  <advance width="600"/>
  <unicode hex="00D7"/>
  <outline>
    <contour>
      <point x="440" y="95" type="line" name="hr00"/>
      <point x="491" y="138" type="line"/>
      <point x="356" y="301" type="line"/>
      <point x="549" y="467" type="line"/>
      <point x="507" y="517" type="line"/>
      <point x="315" y="352" type="line"/>
      <point x="179" y="517" type="line"/>
      <point x="128" y="474" type="line"/>
      <point x="263" y="311" type="line"/>
      <point x="70" y="145" type="line"/>
      <point x="112" y="95" type="line"/>
      <point x="304" y="261" type="line"/>
    </contour>
  </outline>
</glyph>
<glyph name="Oslash" format="1">
  <advance width="600"/>
  <unicode hex="00D8"/>
  <outline>
    <contour>
      <point x="260" y="-12" type="curve" smooth="yes" name="hr00"/>
      <point x="510" y="-12"/>
      <point x="570" y="297"/>
      <point x="570" y="473" type="curve" smooth="yes"/>
      <point x="570" y="524"/>
      <point x="563" y="567"/>
      <point x="549" y="602" type="curve"/>
      <point x="622" y="698" type="line"/>
      <point x="565" y="734" type="line"/>
      <point x="511" y="661" type="line"/>
      <point x="478" y="693"/>
      <point x="433" y="710"/>
      <point x="372" y="710" type="curve" smooth="yes"/>
      <point x="122" y="710"/>
      <point x="62" y="401"/>
      <point x="62" y="225" type="curve" smooth="yes"/>
      <point x="62" y="174"/>
      <point x="69" y="131"/>
      <point x="83" y="96" type="curve"/>
      <point x="10" y="0" type="line"/>
      <point x="67" y="-36" type="line"/>
      <point x="121" y="37" type="line"/>
      <point x="154" y="5"/>
      <point x="199" y="-12"/>
    </contour>
    <contour>
      <point x="150" y="292" type="curve" smooth="yes"/>
      <point x="169" y="406" type="line" smooth="yes"/>
      <point x="193" y="549"/>
      <point x="259" y="638"/>
      <point x="366" y="638" type="curve" smooth="yes"/>
      <point x="411" y="638"/>
      <point x="444" y="623"/>
      <point x="463" y="596" type="curve"/>
      <point x="145" y="175" type="line"/>
      <point x="143" y="186"/>
      <point x="143" y="197"/>
      <point x="143" y="210" type="curve" smooth="yes"/>
      <point x="143" y="233"/>
      <point x="145" y="262"/>
    </contour>
    <contour>
      <point x="266" y="60" type="curve" smooth="yes"/>
      <point x="221" y="60"/>
      <point x="188" y="75"/>
      <point x="169" y="102" type="curve"/>
      <point x="487" y="523" type="line"/>
      <point x="489" y="512"/>
      <point x="489" y="501"/>
      <point x="489" y="488" type="curve" smooth="yes"/>
      <point x="489" y="465"/>
      <point x="487" y="436"/>
      <point x="482" y="406" type="curve" smooth="yes"/>
      <point x="463" y="292" type="line" smooth="yes"/>
      <point x="439" y="149"/>
      <point x="373" y="60"/>
    </contour>
    <contour>
      <point x="365" y="698" type="move" name="top"/>
    </contour>
  </outline>
</glyph>
<glyph name="Thorn" format="1">
  <advance width="600"/>
  <unicode hex="00DE"/>
  <outline>
    <contour>
      <point x="130" y="0" type="line" name="hr00"/>
      <point x="156" y="154" type="line"/>
      <point x="331" y="154" type="line" smooth="yes"/>
      <point x="477" y="154"/>
      <point x="560" y="243"/>
      <point x="560" y="391" type="curve" smooth="yes"/>
      <point x="560" y="488"/>
      <point x="506" y="555"/>
      <point x="389" y="555" type="curve" smooth="yes"/>
      <point x="223" y="555" type="line"/>
      <point x="247" y="698" type="line"/>
      <point x="165" y="698" type="line"/>
      <point x="48" y="0" type="line"/>
    </contour>
    <contour>
      <point x="211" y="483" type="line"/>
      <point x="379" y="483" type="line" smooth="yes"/>
      <point x="440" y="483"/>
      <point x="476" y="455"/>
      <point x="476" y="400" type="curve" smooth="yes"/>
      <point x="476" y="387"/>
      <point x="475" y="373"/>
      <point x="473" y="361" type="curve" smooth="yes"/>
      <point x="467" y="325" type="line" smooth="yes"/>
      <point x="457" y="265"/>
      <point x="414" y="226"/>
      <point x="339" y="226" type="curve" smooth="yes"/>
      <point x="168" y="226" type="line"/>
    </contour>
  </outline>
</glyph>
<glyph name="germandbls" format="1">
  <advance width="600"/>
  <unicode hex="00DF"/>
  <outline>
    <contour>
      <point x="141" y="0" type="line" name="hr00"/>
      <point x="215" y="449" type="line"/>
      <point x="478" y="449" type="line"/>
      <point x="272" y="220" type="line"/>
      <point x="261" y="153" type="line"/>
      <point x="277" y="153" type="line" smooth="yes"/>
      <point x="399" y="153"/>
      <point x="452" y="129"/>
      <point x="452" y="57" type="curve" smooth="yes"/>
      <point x="452" y="47"/>
      <point x="451" y="34"/>
      <point x="447" y="2" type="curve" smooth="yes"/>
      <point x="435" y="-92"/>
      <point x="356" y="-133"/>
      <point x="247" y="-133" type="curve" smooth="yes"/>
      <point x="182" y="-133" type="line"/>
      <point x="170" y="-200" type="line"/>
      <point x="240" y="-200" type="line" smooth="yes"/>
      <point x="428" y="-200"/>
      <point x="533" y="-102"/>
      <point x="533" y="46" type="curve" smooth="yes"/>
      <point x="533" y="147"/>
      <point x="465" y="200"/>
      <point x="349" y="209" type="curve"/>
      <point x="555" y="438" type="line"/>
      <point x="568" y="516" type="line"/>
      <point x="226" y="516" type="line"/>
      <point x="252" y="673" type="line"/>
      <point x="424" y="673" type="line"/>
      <point x="435" y="740" type="line"/>
      <point x="298" y="740" type="line" smooth="yes"/>
      <point x="238" y="740"/>
      <point x="182" y="716"/>
      <point x="167" y="623" type="curve" smooth="yes"/>
      <point x="64" y="0" type="line"/>
    </contour>
  </outline>
</glyph>
<glyph name="ae" format="1">
  <advance width="600"/>
  <unicode hex="00E6"/>
  <outline>
    <contour>
      <point x="121" y="-12" type="curve" smooth="yes" name="hr00"/>
      <point x="195" y="-12"/>
      <point x="241" y="36"/>
      <point x="261" y="122" type="curve"/>
      <point x="267" y="122" type="line"/>
      <point x="270" y="36"/>
      <point x="323" y="-12"/>
      <point x="396" y="-12" type="curve" smooth="yes"/>
      <point x="479" y="-12"/>
      <point x="533" y="52"/>
      <point x="561" y="114" type="curve"/>
      <point x="507" y="141" type="line"/>
      <point x="481" y="91"/>
      <point x="453" y="50"/>
      <point x="401" y="50" type="curve" smooth="yes"/>
      <point x="351" y="50"/>
      <point x="323" y="87"/>
      <point x="323" y="159" type="curve" smooth="yes"/>
      <point x="323" y="172"/>
      <point x="324" y="194"/>
      <point x="327" y="212" type="curve" smooth="yes"/>
      <point x="331" y="236" type="line"/>
      <point x="536" y="242"/>
      <point x="596" y="324"/>
      <point x="596" y="408" type="curve" smooth="yes"/>
      <point x="596" y="485"/>
      <point x="545" y="528"/>
      <point x="476" y="528" type="curve" smooth="yes"/>
      <point x="412" y="528"/>
      <point x="366" y="492"/>
      <point x="335" y="430" type="curve"/>
      <point x="331" y="430" type="line"/>
      <point x="331" y="478"/>
      <point x="299" y="528"/>
      <point x="214" y="528" type="curve" smooth="yes"/>
      <point x="134" y="528"/>
      <point x="79" y="483"/>
      <point x="49" y="428" type="curve"/>
      <point x="95" y="393" type="line"/>
      <point x="126" y="442"/>
      <point x="158" y="469"/>
      <point x="208" y="469" type="curve" smooth="yes"/>
      <point x="258" y="469"/>
      <point x="282" y="442"/>
      <point x="282" y="388" type="curve" smooth="yes"/>
      <point x="282" y="377"/>
      <point x="281" y="361"/>
      <point x="278" y="343" type="curve" smooth="yes"/>
      <point x="268" y="287" type="line"/>
      <point x="206" y="284" type="line" smooth="yes"/>
      <point x="82" y="278"/>
      <point x="0" y="222"/>
      <point x="0" y="116" type="curve" smooth="yes"/>
      <point x="0" y="32"/>
      <point x="52" y="-12"/>
    </contour>
    <contour>
      <point x="138" y="47" type="curve" smooth="yes"/>
      <point x="95" y="47"/>
      <point x="68" y="70"/>
      <point x="68" y="110" type="curve" smooth="yes"/>
      <point x="68" y="117"/>
      <point x="68" y="125"/>
      <point x="71" y="143" type="curve" smooth="yes"/>
      <point x="82" y="209"/>
      <point x="127" y="227"/>
      <point x="205" y="231" type="curve" smooth="yes"/>
      <point x="259" y="234" type="line"/>
      <point x="245" y="150" type="line" smooth="yes"/>
      <point x="235" y="90"/>
      <point x="190" y="47"/>
    </contour>
    <contour>
      <point x="471" y="469" type="curve" smooth="yes"/>
      <point x="510" y="469"/>
      <point x="530" y="446"/>
      <point x="530" y="406" type="curve" smooth="yes"/>
      <point x="530" y="345"/>
      <point x="485" y="294"/>
      <point x="339" y="289" type="curve"/>
      <point x="342" y="307" type="line" smooth="yes"/>
      <point x="355" y="392"/>
      <point x="400" y="469"/>
    </contour>
    <contour>
      <point x="350" y="516" type="move" name="top"/>
    </contour>
  </outline>
</glyph>
<glyph name="ccedilla" format="1">
  <advance width="600"/>
  <unicode hex="00E7"/>
  <outline>
    <contour>
      <point x="341" y="528" type="curve" smooth="yes" name="hr00"/>
      <point x="194" y="528"/>
      <point x="75" y="403"/>
      <point x="75" y="206" type="curve" smooth="yes"/>
      <point x="75" y="87"/>
      <point x="132" y="2"/>
      <point x="242" y="-10" type="curve"/>
      <point x="218" y="-76" type="line"/>
      <point x="247" y="-80" type="line" smooth="yes"/>
      <point x="298" y="-87"/>
      <point x="307" y="-105"/>
      <point x="307" y="-119" type="curve" smooth="yes"/>
      <point x="307" y="-141"/>
      <point x="286" y="-153"/>
      <point x="257" y="-153" type="curve" smooth="yes"/>
      <point x="228" y="-153"/>
      <point x="211" y="-141"/>
      <point x="201" y="-126" type="curve"/>
      <point x="161" y="-166" type="line"/>
      <point x="174" y="-187"/>
      <point x="205" y="-207"/>
      <point x="257" y="-207" type="curve" smooth="yes"/>
      <point x="318" y="-207"/>
      <point x="372" y="-181"/>
      <point x="372" y="-119" type="curve" smooth="yes"/>
      <point x="372" y="-80"/>
      <point x="350" y="-60"/>
      <point x="313" y="-60" type="curve" smooth="yes"/>
      <point x="305" y="-60"/>
      <point x="290" y="-61"/>
      <point x="276" y="-64" type="curve"/>
      <point x="274" y="-61" type="line"/>
      <point x="292" y="-11" type="line"/>
      <point x="387" y="-4"/>
      <point x="448" y="51"/>
      <point x="508" y="149" type="curve"/>
      <point x="452" y="182" type="line"/>
      <point x="370" y="69"/>
      <point x="326" y="56"/>
      <point x="280" y="56" type="curve" smooth="yes"/>
      <point x="205" y="56"/>
      <point x="154" y="97"/>
      <point x="154" y="185" type="curve" smooth="yes"/>
      <point x="154" y="198"/>
      <point x="155" y="209"/>
      <point x="159" y="233" type="curve" smooth="yes"/>
      <point x="169" y="293" type="line" smooth="yes"/>
      <point x="187" y="401"/>
      <point x="244" y="460"/>
      <point x="332" y="460" type="curve" smooth="yes"/>
      <point x="396" y="460"/>
      <point x="434" y="441"/>
      <point x="454" y="378" type="curve"/>
      <point x="521" y="404" type="line"/>
      <point x="503" y="472"/>
      <point x="450" y="528"/>
    </contour>
  </outline>
</glyph>
<glyph name="eth" format="1">
  <advance width="600"/>
  <unicode hex="00F0"/>
  <outline>
    <contour>
      <point x="531" y="707" type="line" name="hr00"/>
      <point x="500" y="753" type="line"/>
      <point x="396" y="687" type="line"/>
      <point x="374" y="709"/>
      <point x="351" y="727"/>
      <point x="333" y="740" type="curve"/>
      <point x="208" y="740" type="line"/>
      <point x="257" y="714"/>
      <point x="299" y="683"/>
      <point x="334" y="649" type="curve"/>
      <point x="238" y="588" type="line"/>
      <point x="269" y="542" type="line"/>
      <point x="373" y="607" type="line"/>
      <point x="424" y="545"/>
      <point x="455" y="477"/>
      <point x="467" y="415" type="curve"/>
      <point x="462" y="413" type="line"/>
      <point x="441" y="466"/>
      <point x="383" y="504"/>
      <point x="317" y="504" type="curve" smooth="yes"/>
      <point x="168" y="504"/>
      <point x="60" y="369"/>
      <point x="60" y="198" type="curve" smooth="yes"/>
      <point x="60" y="72"/>
      <point x="138" y="-12"/>
      <point x="256" y="-12" type="curve" smooth="yes"/>
      <point x="438" y="-12"/>
      <point x="539" y="125"/>
      <point x="539" y="335" type="curve" smooth="yes"/>
      <point x="539" y="473"/>
      <point x="489" y="575"/>
      <point x="433" y="645" type="curve"/>
    </contour>
    <contour>
      <point x="269" y="56" type="curve" smooth="yes"/>
      <point x="191" y="56"/>
      <point x="140" y="95"/>
      <point x="140" y="176" type="curve" smooth="yes"/>
      <point x="140" y="187"/>
      <point x="141" y="203"/>
      <point x="145" y="227" type="curve" smooth="yes"/>
      <point x="154" y="281" type="line" smooth="yes"/>
      <point x="171" y="385"/>
      <point x="240" y="436"/>
      <point x="329" y="436" type="curve" smooth="yes"/>
      <point x="407" y="436"/>
      <point x="458" y="397"/>
      <point x="458" y="316" type="curve" smooth="yes"/>
      <point x="458" y="305"/>
      <point x="457" y="289"/>
      <point x="453" y="265" type="curve" smooth="yes"/>
      <point x="444" y="211" type="line" smooth="yes"/>
      <point x="427" y="109"/>
      <point x="359" y="56"/>
    </contour>
  </outline>
</glyph>
<glyph name="divide" format="1">
  <advance width="600"/>
  <unicode hex="00F7"/>
  <outline>
    <contour>
      <point x="538" y="272" type="line"/>
      <point x="549" y="338" type="line"/>
      <point x="78" y="338" type="line"/>
      <point x="67" y="272" type="line"/>
    </contour>
    <contour>
      <point x="269" y="52" type="curve" smooth="yes"/>
      <point x="313" y="52"/>
      <point x="331" y="72"/>
      <point x="336" y="102" type="curve" smooth="yes"/>
      <point x="337" y="108"/>
      <point x="339" y="119"/>
      <point x="339" y="129" type="curve" smooth="yes" name="hr01"/>
      <point x="339" y="151"/>
      <point x="325" y="169"/>
      <point x="282" y="169" type="curve" smooth="yes"/>
      <point x="238" y="169"/>
      <point x="220" y="149"/>
      <point x="215" y="119" type="curve" smooth="yes"/>
      <point x="214" y="113"/>
      <point x="212" y="102"/>
      <point x="212" y="92" type="curve" smooth="yes"/>
      <point x="212" y="70"/>
      <point x="226" y="52"/>
    </contour>
    <contour>
      <point x="334" y="441" type="curve" smooth="yes"/>
      <point x="378" y="441"/>
      <point x="396" y="461"/>
      <point x="401" y="491" type="curve" smooth="yes"/>
      <point x="402" y="497"/>
      <point x="404" y="508"/>
      <point x="404" y="518" type="curve" smooth="yes" name="hr02"/>
      <point x="404" y="540"/>
      <point x="390" y="558"/>
      <point x="347" y="558" type="curve" smooth="yes"/>
      <point x="303" y="558"/>
      <point x="285" y="538"/>
      <point x="280" y="508" type="curve" smooth="yes"/>
      <point x="279" y="502"/>
      <point x="277" y="491"/>
      <point x="277" y="481" type="curve" smooth="yes"/>
      <point x="277" y="459"/>
      <point x="291" y="441"/>
    </contour>
  </outline>
</glyph>
<glyph name="oslash" format="1">
  <advance width="600"/>
  <unicode hex="00F8"/>
  <outline>
    <contour>
      <point x="51" y="-34" type="line" name="hr00"/>
      <point x="123" y="40" type="line"/>
      <point x="157" y="7"/>
      <point x="204" y="-12"/>
      <point x="265" y="-12" type="curve" smooth="yes"/>
      <point x="417" y="-12"/>
      <point x="536" y="113"/>
      <point x="536" y="310" type="curve" smooth="yes"/>
      <point x="536" y="357"/>
      <point x="526" y="398"/>
      <point x="509" y="431" type="curve"/>
      <point x="592" y="516" type="line"/>
      <point x="549" y="550" type="line"/>
      <point x="477" y="476" type="line"/>
      <point x="443" y="509"/>
      <point x="396" y="528"/>
      <point x="335" y="528" type="curve" smooth="yes"/>
      <point x="183" y="528"/>
      <point x="64" y="403"/>
      <point x="64" y="206" type="curve" smooth="yes"/>
      <point x="64" y="159"/>
      <point x="74" y="118"/>
      <point x="91" y="85" type="curve"/>
      <point x="8" y="0" type="line"/>
    </contour>
    <contour>
      <point x="331" y="460" type="curve" smooth="yes"/>
      <point x="371" y="460"/>
      <point x="404" y="449"/>
      <point x="426" y="426" type="curve"/>
      <point x="148" y="140" type="line"/>
      <point x="144" y="153"/>
      <point x="143" y="167"/>
      <point x="143" y="183" type="curve" smooth="yes"/>
      <point x="143" y="195"/>
      <point x="144" y="210"/>
      <point x="148" y="234" type="curve" smooth="yes"/>
      <point x="158" y="294" type="line" smooth="yes"/>
      <point x="175" y="396"/>
      <point x="234" y="460"/>
    </contour>
    <contour>
      <point x="269" y="56" type="curve" smooth="yes"/>
      <point x="229" y="56"/>
      <point x="196" y="67"/>
      <point x="174" y="90" type="curve"/>
      <point x="452" y="376" type="line"/>
      <point x="456" y="363"/>
      <point x="457" y="349"/>
      <point x="457" y="333" type="curve" smooth="yes"/>
      <point x="457" y="321"/>
      <point x="456" y="306"/>
      <point x="452" y="282" type="curve" smooth="yes"/>
      <point x="442" y="222" type="line" smooth="yes"/>
      <point x="425" y="120"/>
      <point x="366" y="56"/>
    </contour>
    <contour>
      <point x="343" y="516" type="move" name="top"/>
    </contour>
  </outline>
</glyph>
<glyph name="Aogonek" format="1">
  <advance width="600"/>
  <unicode hex="0104"/>
  <outline>
    <contour>
      <point x="-9" y="0" type="line" name="hr00"/>
      <point x="79" y="0" type="line"/>
      <point x="171" y="199" type="line"/>
      <point x="417" y="199" type="line"/>
      <point x="442" y="0" type="line"/>
      <point x="465" y="0" type="line"/>
      <point x="465" y="-5" type="line"/>
      <point x="390" y="-40"/>
      <point x="339" y="-77"/>
      <point x="339" y="-132" type="curve" smooth="yes"/>
      <point x="339" y="-186"/>
      <point x="386" y="-207"/>
      <point x="437" y="-207" type="curve" smooth="yes"/>
      <point x="484" y="-207"/>
      <point x="517" y="-189"/>
      <point x="535" y="-170" type="curve"/>
      <point x="497" y="-127" type="line"/>
      <point x="478" y="-144"/>
      <point x="458" y="-153"/>
      <point x="441" y="-153" type="curve" smooth="yes"/>
      <point x="423" y="-153"/>
      <point x="407" y="-144"/>
      <point x="407" y="-122" type="curve" smooth="yes"/>
      <point x="407" y="-101"/>
      <point x="421" y="-70"/>
      <point x="528" y="0" type="curve"/>
      <point x="431" y="698" type="line"/>
      <point x="321" y="698" type="line"/>
    </contour>
    <contour>
      <point x="409" y="272" type="line"/>
      <point x="202" y="272" type="line"/>
      <point x="357" y="614" type="line"/>
      <point x="366" y="614" type="line"/>
    </contour>
  </outline>
</glyph>
<glyph name="aogonek" format="1">
  <advance width="600"/>
  <unicode hex="0105"/>
  <outline>
    <contour>
      <point x="433" y="-207" type="curve" smooth="yes"/>
      <point x="480" y="-207"/>
      <point x="513" y="-189"/>
      <point x="531" y="-170" type="curve"/>
      <point x="493" y="-127" type="line"/>
      <point x="474" y="-144"/>
      <point x="454" y="-153"/>
      <point x="437" y="-153" type="curve" smooth="yes"/>
      <point x="419" y="-153"/>
      <point x="403" y="-144"/>
      <point x="403" y="-122" type="curve" smooth="yes"/>
      <point x="403" y="-101"/>
      <point x="417" y="-70"/>
      <point x="524" y="0" type="curve"/>
      <point x="536" y="70" type="line"/>
      <point x="465" y="70" type="line"/>
      <point x="539" y="516" type="line"/>
      <point x="461" y="516" type="line"/>
      <point x="446" y="426" type="line"/>
      <point x="443" y="426" type="line"/>
      <point x="421" y="493"/>
      <point x="370" y="528"/>
      <point x="296" y="528" type="curve" smooth="yes" name="hr01"/>
      <point x="117" y="528"/>
      <point x="56" y="326"/>
      <point x="56" y="188" type="curve" smooth="yes"/>
      <point x="56" y="56"/>
      <point x="112" y="-12"/>
      <point x="213" y="-12" type="curve" smooth="yes"/>
      <point x="302" y="-12"/>
      <point x="352" y="41"/>
      <point x="392" y="122" type="curve"/>
      <point x="395" y="122" type="line"/>
      <point x="389" y="85" type="line" smooth="yes"/>
      <point x="381" y="39"/>
      <point x="401" y="2"/>
      <point x="461" y="0" type="curve" name="hr02"/>
      <point x="461" y="-5" type="line"/>
      <point x="386" y="-40"/>
      <point x="335" y="-77"/>
      <point x="335" y="-132" type="curve" smooth="yes"/>
      <point x="335" y="-186"/>
      <point x="382" y="-207"/>
    </contour>
    <contour>
      <point x="240" y="57" type="curve" smooth="yes" name="hr03"/>
      <point x="171" y="57"/>
      <point x="135" y="103"/>
      <point x="135" y="180" type="curve" smooth="yes"/>
      <point x="135" y="193"/>
      <point x="136" y="207"/>
      <point x="139" y="225" type="curve" smooth="yes"/>
      <point x="151" y="297" type="line" smooth="yes"/>
      <point x="167" y="393"/>
      <point x="222" y="459"/>
      <point x="318" y="459" type="curve" smooth="yes"/>
      <point x="394" y="459"/>
      <point x="445" y="418"/>
      <point x="433" y="346" type="curve" smooth="yes"/>
      <point x="414" y="232" type="line" smooth="yes"/>
      <point x="406" y="185"/>
      <point x="385" y="144"/>
      <point x="359" y="114" type="curve" smooth="yes"/>
      <point x="324" y="74"/>
      <point x="282" y="57"/>
    </contour>
    <contour>
      <point x="316.0" y="516.0" type="move" name="top"/>
    </contour>
  </outline>
</glyph>
<glyph name="dcaron" format="1">
  <advance width="600"/>
  <unicode hex="010F"/>
  <outline>
    <contour>
      <point x="193" y="-12" type="curve" smooth="yes"/>
      <point x="280" y="-12"/>
      <point x="331" y="41"/>
      <point x="369" y="122" type="curve"/>
      <point x="372" y="122" type="line"/>
      <point x="352" y="0" type="line" name="hr01"/>
      <point x="430" y="0" type="line"/>
      <point x="554" y="740" type="line"/>
      <point x="476" y="740" type="line"/>
      <point x="424" y="426" type="line"/>
      <point x="421" y="426" type="line"/>
      <point x="401" y="493"/>
      <point x="348" y="528"/>
      <point x="275" y="528" type="curve" smooth="yes"/>
      <point x="100" y="528"/>
      <point x="40" y="325"/>
      <point x="40" y="188" type="curve" smooth="yes"/>
      <point x="40" y="56"/>
      <point x="95" y="-12"/>
    </contour>
    <contour>
      <point x="222" y="57" type="curve" smooth="yes"/>
      <point x="154" y="57"/>
      <point x="119" y="103"/>
      <point x="119" y="181" type="curve" smooth="yes"/>
      <point x="119" y="194"/>
      <point x="120" y="208"/>
      <point x="123" y="226" type="curve" smooth="yes"/>
      <point x="135" y="298" type="line" smooth="yes"/>
      <point x="151" y="394"/>
      <point x="205" y="459"/>
      <point x="298" y="459" type="curve" smooth="yes"/>
      <point x="368" y="459"/>
      <point x="423" y="421"/>
      <point x="410" y="346" type="curve" smooth="yes"/>
      <point x="391" y="233" type="line" smooth="yes"/>
      <point x="383" y="185"/>
      <point x="360" y="142"/>
      <point x="337" y="115" type="curve" smooth="yes"/>
      <point x="299" y="70"/>
      <point x="258" y="57"/>
    </contour>
    <contour>
      <point x="590" y="553" type="line"/>
      <point x="648" y="553" type="line"/>
      <point x="728" y="740" type="line"/>
      <point x="626" y="740" type="line"/>
    </contour>
  </outline>
</glyph>
<glyph name="Dcroat" format="1">
  <advance width="600"/>
  <unicode hex="0110"/>
  <outline>
    <contour>
      <point x="55" y="0" type="line" name="hr00"/>
      <point x="248" y="0" type="line" smooth="yes"/>
      <point x="443" y="0"/>
      <point x="565" y="148"/>
      <point x="565" y="473" type="curve" smooth="yes"/>
      <point x="565" y="602"/>
      <point x="489" y="698"/>
      <point x="343" y="698" type="curve" smooth="yes"/>
      <point x="172" y="698" type="line"/>
      <point x="122" y="399" type="line"/>
      <point x="41" y="399" type="line"/>
      <point x="31" y="337" type="line"/>
      <point x="111" y="337" type="line"/>
    </contour>
    <contour>
      <point x="149" y="72" type="line"/>
      <point x="194" y="337" type="line"/>
      <point x="333" y="337" type="line"/>
      <point x="343" y="399" type="line"/>
      <point x="204" y="399" type="line"/>
      <point x="242" y="626" type="line"/>
      <point x="333" y="626" type="line" smooth="yes"/>
      <point x="431" y="626"/>
      <point x="483" y="572"/>
      <point x="483" y="471" type="curve" smooth="yes"/>
      <point x="483" y="443"/>
      <point x="480" y="409"/>
      <point x="476" y="385" type="curve" smooth="yes"/>
      <point x="460" y="289" type="line" smooth="yes"/>
      <point x="436" y="146"/>
      <point x="366" y="72"/>
      <point x="255" y="72" type="curve" smooth="yes"/>
    </contour>
  </outline>
</glyph>
<glyph name="Eogonek" format="1">
  <advance width="600"/>
  <unicode hex="0118"/>
  <outline>
    <contour>
      <point x="47" y="0" type="line" name="hr00"/>
      <point x="414" y="0" type="line"/>
      <point x="415" y="-5" type="line"/>
      <point x="338" y="-39"/>
      <point x="288" y="-77"/>
      <point x="288" y="-132" type="curve" smooth="yes"/>
      <point x="288" y="-186"/>
      <point x="335" y="-207"/>
      <point x="386" y="-207" type="curve" smooth="yes"/>
      <point x="433" y="-207"/>
      <point x="466" y="-189"/>
      <point x="484" y="-170" type="curve"/>
      <point x="446" y="-127" type="line"/>
      <point x="427" y="-144"/>
      <point x="407" y="-153"/>
      <point x="390" y="-153" type="curve" smooth="yes"/>
      <point x="372" y="-153"/>
      <point x="356" y="-144"/>
      <point x="356" y="-122" type="curve" smooth="yes"/>
      <point x="356" y="-101"/>
      <point x="370" y="-70"/>
      <point x="477" y="0" type="curve"/>
      <point x="489" y="72" type="line"/>
      <point x="141" y="72" type="line"/>
      <point x="182" y="318" type="line"/>
      <point x="517" y="318" type="line"/>
      <point x="529" y="390" type="line"/>
      <point x="194" y="390" type="line"/>
      <point x="234" y="626" type="line"/>
      <point x="580" y="626" type="line"/>
      <point x="592" y="698" type="line"/>
      <point x="164" y="698" type="line"/>
    </contour>
  </outline>
</glyph>
<glyph name="eogonek" format="1">
  <advance width="600"/>
  <unicode hex="0119"/>
  <outline>
    <contour>
      <point x="319" y="-207" type="curve" smooth="yes" name="hr00"/>
      <point x="366" y="-207"/>
      <point x="399" y="-189"/>
      <point x="417" y="-170" type="curve"/>
      <point x="379" y="-127" type="line"/>
      <point x="360" y="-144"/>
      <point x="341" y="-153"/>
      <point x="325" y="-153" type="curve" smooth="yes"/>
      <point x="306" y="-153"/>
      <point x="289" y="-143"/>
      <point x="289" y="-119" type="curve" smooth="yes"/>
      <point x="289" y="-85"/>
      <point x="311" y="-45"/>
      <point x="410" y="24" type="curve" smooth="yes"/>
      <point x="450" y="52"/>
      <point x="484" y="85"/>
      <point x="514" y="135" type="curve"/>
      <point x="459" y="169" type="line"/>
      <point x="401" y="87"/>
      <point x="358" y="55"/>
      <point x="284" y="55" type="curve" smooth="yes"/>
      <point x="176" y="55"/>
      <point x="155" y="122"/>
      <point x="155" y="194" type="curve" smooth="yes"/>
      <point x="155" y="196"/>
      <point x="155" y="207"/>
      <point x="156" y="217" type="curve"/>
      <point x="485" y="226"/>
      <point x="532" y="316"/>
      <point x="532" y="389" type="curve" smooth="yes"/>
      <point x="532" y="479"/>
      <point x="458" y="528"/>
      <point x="357" y="528" type="curve" smooth="yes"/>
      <point x="191" y="528"/>
      <point x="73" y="396"/>
      <point x="73" y="209" type="curve" smooth="yes"/>
      <point x="73" y="61"/>
      <point x="147" y="-12"/>
      <point x="277" y="-12" type="curve" smooth="yes"/>
      <point x="293" y="-12"/>
      <point x="309" y="-11"/>
      <point x="323" y="-9" type="curve"/>
      <point x="324" y="-13" type="line"/>
      <point x="261" y="-43"/>
      <point x="221" y="-80"/>
      <point x="221" y="-132" type="curve" smooth="yes"/>
      <point x="221" y="-186"/>
      <point x="268" y="-207"/>
    </contour>
    <contour>
      <point x="350" y="463" type="curve" smooth="yes"/>
      <point x="425" y="463"/>
      <point x="452" y="428"/>
      <point x="452" y="386" type="curve" smooth="yes"/>
      <point x="452" y="336"/>
      <point x="414" y="279"/>
      <point x="162" y="271" type="curve"/>
      <point x="163" y="281" type="line" smooth="yes"/>
      <point x="178" y="398"/>
      <point x="246" y="463"/>
    </contour>
  </outline>
</glyph>
<glyph name="Hbar" format="1">
  <advance width="600"/>
  <unicode hex="0126"/>
  <outline>
    <contour>
      <point x="393" y="0" type="line" name="hr00"/>
      <point x="475" y="0" type="line"/>
      <point x="562" y="518" type="line"/>
      <point x="632" y="518" type="line"/>
      <point x="642" y="581" type="line"/>
      <point x="572" y="581" type="line"/>
      <point x="592" y="698" type="line"/>
      <point x="510" y="698" type="line"/>
      <point x="491" y="581" type="line"/>
      <point x="218" y="581" type="line"/>
      <point x="238" y="698" type="line"/>
      <point x="156" y="698" type="line"/>
      <point x="137" y="581" type="line"/>
      <point x="67" y="581" type="line"/>
      <point x="57" y="518" type="line"/>
      <point x="126" y="518" type="line"/>
      <point x="39" y="0" type="line"/>
      <point x="121" y="0" type="line"/>
      <point x="174" y="318" type="line"/>
      <point x="446" y="318" type="line"/>
    </contour>
    <contour>
      <point x="185" y="390" type="line"/>
      <point x="208" y="518" type="line"/>
      <point x="480" y="518" type="line"/>
      <point x="458" y="390" type="line"/>
    </contour>
  </outline>
</glyph>
<glyph name="hbar" format="1">
  <advance width="600"/>
  <unicode hex="0127"/>
  <outline>
    <contour>
      <point x="59" y="0" type="line" name="hr00"/>
      <point x="137" y="0" type="line"/>
      <point x="185" y="285" type="line" smooth="yes"/>
      <point x="195" y="344"/>
      <point x="233" y="390"/>
      <point x="244" y="403" type="curve" smooth="yes"/>
      <point x="273" y="437"/>
      <point x="308" y="459"/>
      <point x="353" y="459" type="curve" smooth="yes"/>
      <point x="411" y="459"/>
      <point x="439" y="421"/>
      <point x="439" y="360" type="curve" smooth="yes"/>
      <point x="439" y="349"/>
      <point x="438" y="329"/>
      <point x="434" y="305" type="curve" smooth="yes"/>
      <point x="383" y="0" type="line"/>
      <point x="461" y="0" type="line"/>
      <point x="513" y="312" type="line" smooth="yes"/>
      <point x="517" y="335"/>
      <point x="519" y="359"/>
      <point x="519" y="379" type="curve" smooth="yes"/>
      <point x="519" y="473"/>
      <point x="465" y="528"/>
      <point x="379" y="528" type="curve" smooth="yes"/>
      <point x="296" y="528"/>
      <point x="245" y="476"/>
      <point x="207" y="394" type="curve"/>
      <point x="203" y="394" type="line"/>
      <point x="239" y="609" type="line"/>
      <point x="390" y="609" type="line"/>
      <point x="400" y="669" type="line"/>
      <point x="249" y="669" type="line"/>
      <point x="261" y="740" type="line"/>
      <point x="183" y="740" type="line"/>
      <point x="171" y="669" type="line"/>
      <point x="106" y="669" type="line"/>
      <point x="96" y="609" type="line"/>
      <point x="161" y="609" type="line"/>
    </contour>
  </outline>
</glyph>
<glyph name="Iogonek" format="1">
  <advance width="600"/>
  <unicode hex="012E"/>
  <outline>
    <contour>
      <point x="41" y="0" type="line" name="hr00"/>
      <point x="410" y="0" type="line"/>
      <point x="411" y="-5" type="line"/>
      <point x="334" y="-39"/>
      <point x="284" y="-77"/>
      <point x="284" y="-132" type="curve" smooth="yes"/>
      <point x="284" y="-186"/>
      <point x="331" y="-207"/>
      <point x="382" y="-207" type="curve" smooth="yes"/>
      <point x="429" y="-207"/>
      <point x="462" y="-189"/>
      <point x="480" y="-170" type="curve"/>
      <point x="442" y="-127" type="line"/>
      <point x="423" y="-144"/>
      <point x="403" y="-153"/>
      <point x="386" y="-153" type="curve" smooth="yes"/>
      <point x="368" y="-153"/>
      <point x="352" y="-144"/>
      <point x="352" y="-122" type="curve" smooth="yes"/>
      <point x="352" y="-101"/>
      <point x="366" y="-70"/>
      <point x="473" y="0" type="curve"/>
      <point x="484" y="66" type="line"/>
      <point x="309" y="66" type="line"/>
      <point x="404" y="632" type="line"/>
      <point x="579" y="632" type="line"/>
      <point x="590" y="698" type="line"/>
      <point x="158" y="698" type="line"/>
      <point x="147" y="632" type="line"/>
      <point x="322" y="632" type="line"/>
      <point x="227" y="66" type="line"/>
      <point x="52" y="66" type="line"/>
    </contour>
  </outline>
</glyph>
<glyph name="iogonek" format="1">
  <advance width="600"/>
  <unicode hex="012F"/>
  <outline>
    <contour>
      <point x="264" y="-207" type="curve" smooth="yes"/>
      <point x="311" y="-207"/>
      <point x="344" y="-189"/>
      <point x="362" y="-170" type="curve"/>
      <point x="324" y="-127" type="line"/>
      <point x="305" y="-144"/>
      <point x="285" y="-153"/>
      <point x="268" y="-153" type="curve" smooth="yes"/>
      <point x="250" y="-153"/>
      <point x="234" y="-144"/>
      <point x="234" y="-122" type="curve" smooth="yes"/>
      <point x="234" y="-98"/>
      <point x="252" y="-68"/>
      <point x="354" y="21" type="curve" smooth="yes"/>
      <point x="539" y="183" type="line"/>
      <point x="492" y="227" type="line"/>
      <point x="295" y="57" type="line"/>
      <point x="272" y="66" type="line" name="hr01"/>
      <point x="359" y="516" type="line"/>
      <point x="93" y="516" type="line"/>
      <point x="82" y="449" type="line"/>
      <point x="268" y="449" type="line"/>
      <point x="200" y="97" type="line" smooth="yes"/>
      <point x="198" y="85"/>
      <point x="195" y="70"/>
      <point x="195" y="57" type="curve" smooth="yes"/>
      <point x="195" y="24"/>
      <point x="214" y="-10"/>
      <point x="253" y="-10" type="curve" smooth="yes"/>
      <point x="268" y="-10" type="line"/>
      <point x="269" y="-15" type="line"/>
      <point x="209" y="-47"/>
      <point x="166" y="-81"/>
      <point x="166" y="-132" type="curve" smooth="yes" name="hr02"/>
      <point x="166" y="-186"/>
      <point x="213" y="-207"/>
    </contour>
    <contour>
      <point x="340" y="631" type="curve" smooth="yes"/>
      <point x="380" y="631"/>
      <point x="401" y="649"/>
      <point x="406" y="679" type="curve" smooth="yes"/>
      <point x="408" y="691"/>
      <point x="410" y="700"/>
      <point x="410" y="708" type="curve" smooth="yes"/>
      <point x="410" y="729"/>
      <point x="395" y="748"/>
      <point x="352" y="748" type="curve" smooth="yes"/>
      <point x="312" y="748"/>
      <point x="291" y="730"/>
      <point x="286" y="700" type="curve" smooth="yes"/>
      <point x="284" y="688"/>
      <point x="282" y="679"/>
      <point x="282" y="671" type="curve" smooth="yes"/>
      <point x="282" y="650"/>
      <point x="297" y="631"/>
    </contour>
  </outline>
</glyph>
<glyph name="dotlessi" format="1">
  <advance width="600"/>
  <unicode hex="0131"/>
  <outline>
    <contour>
      <point x="272" y="-12" type="curve" smooth="yes" name="hr00"/>
      <point x="317" y="-12"/>
      <point x="354" y="12"/>
      <point x="448" y="99" type="curve" smooth="yes"/>
      <point x="539" y="183" type="line"/>
      <point x="492" y="227" type="line"/>
      <point x="295" y="57" type="line"/>
      <point x="272" y="66" type="line"/>
      <point x="359" y="516" type="line"/>
      <point x="93" y="516" type="line"/>
      <point x="82" y="449" type="line"/>
      <point x="268" y="449" type="line"/>
      <point x="200" y="97" type="line" smooth="yes"/>
      <point x="198" y="85"/>
      <point x="195" y="70"/>
      <point x="195" y="57" type="curve" smooth="yes"/>
      <point x="195" y="17"/>
      <point x="222" y="-12"/>
    </contour>
    <contour>
      <point x="264" y="0" type="move" name="bottom"/>
    </contour>
    <contour>
      <point x="322" y="0" type="move" name="bottomright"/>
    </contour>
    <contour>
      <point x="316" y="516" type="move" name="top"/>
    </contour>
  </outline>
</glyph>
<glyph name="IJ" format="1">
  <advance width="600"/>
  <unicode hex="0132"/>
  <outline>
    <contour>
      <point x="499" y="698" type="line" name="hr00"/>
      <point x="415" y="195" type="line" smooth="yes"/>
      <point x="400" y="105"/>
      <point x="351" y="61"/>
      <point x="269" y="61" type="curve" smooth="yes"/>
      <point x="175" y="61"/>
      <point x="153" y="109"/>
      <point x="145" y="168" type="curve"/>
      <point x="66" y="151" type="line"/>
      <point x="78" y="43"/>
      <point x="154" y="-12"/>
      <point x="267" y="-12" type="curve" smooth="yes"/>
      <point x="386" y="-12"/>
      <point x="472" y="45"/>
      <point x="493" y="170" type="curve" smooth="yes"/>
      <point x="581" y="698" type="line"/>
    </contour>
    <contour>
      <point x="98" y="290" type="line"/>
      <point x="180" y="290" type="line"/>
      <point x="247" y="698" type="line"/>
      <point x="165" y="698" type="line"/>
    </contour>
  </outline>
</glyph>
<glyph name="ij" format="1">
  <advance width="600"/>
  <unicode hex="0133"/>
  <outline>
    <contour>
      <point x="63" y="0" type="line" name="hr00"/>
      <point x="141" y="0" type="line"/>
      <point x="227" y="516" type="line"/>
      <point x="149" y="516" type="line"/>
    </contour>
    <contour>
      <point x="335" y="-212" type="curve" smooth="yes"/>
      <point x="395" y="-212"/>
      <point x="422" y="-163"/>
      <point x="431" y="-107" type="curve" smooth="yes"/>
      <point x="535" y="516" type="line"/>
      <point x="457" y="516" type="line"/>
      <point x="348" y="-138" type="line"/>
      <point x="330" y="-142" type="line"/>
      <point x="226" y="-32" type="line"/>
      <point x="173" y="-80" type="line"/>
      <point x="208" y="-118" type="line" smooth="yes"/>
      <point x="263" y="-177"/>
      <point x="293" y="-212"/>
    </contour>
    <contour>
      <point x="210" y="631" type="curve" smooth="yes"/>
      <point x="250" y="631"/>
      <point x="271" y="649"/>
      <point x="276" y="679" type="curve" smooth="yes"/>
      <point x="278" y="691"/>
      <point x="280" y="700"/>
      <point x="280" y="708" type="curve" smooth="yes"/>
      <point x="280" y="729"/>
      <point x="265" y="748"/>
      <point x="222" y="748" type="curve" smooth="yes"/>
      <point x="182" y="748"/>
      <point x="161" y="730"/>
      <point x="156" y="700" type="curve" smooth="yes"/>
      <point x="154" y="688"/>
      <point x="152" y="679"/>
      <point x="152" y="671" type="curve" smooth="yes"/>
      <point x="152" y="650"/>
      <point x="167" y="631"/>
    </contour>
    <contour>
      <point x="518" y="631" type="curve" smooth="yes"/>
      <point x="558" y="631"/>
      <point x="579" y="649"/>
      <point x="584" y="679" type="curve" smooth="yes"/>
      <point x="586" y="691"/>
      <point x="588" y="700"/>
      <point x="588" y="708" type="curve" smooth="yes"/>
      <point x="588" y="729"/>
      <point x="573" y="748"/>
      <point x="530" y="748" type="curve" smooth="yes"/>
      <point x="490" y="748"/>
      <point x="469" y="730"/>
      <point x="464" y="700" type="curve" smooth="yes"/>
      <point x="462" y="688"/>
      <point x="460" y="679"/>
      <point x="460" y="671" type="curve" smooth="yes"/>
      <point x="460" y="650"/>
      <point x="475" y="631"/>
    </contour>
  </outline>
</glyph>
<glyph name="kgreenlandic" format="1">
  <advance width="600"/>
  <unicode hex="0138"/>
  <outline>
    <contour>
      <point x="447" y="0" type="line" name="hr00"/>
      <point x="537" y="0" type="line"/>
      <point x="358" y="307" type="line"/>
      <point x="591" y="516" type="line"/>
      <point x="490" y="516" type="line"/>
      <point x="305" y="351" type="line"/>
      <point x="196" y="254" type="line"/>
      <point x="191" y="254" type="line"/>
      <point x="234" y="516" type="line"/>
      <point x="156" y="516" type="line"/>
      <point x="71" y="0" type="line"/>
      <point x="149" y="0" type="line"/>
      <point x="176" y="157" type="line"/>
      <point x="296" y="259" type="line"/>
    </contour>
  </outline>
</glyph>
<glyph name="Lslash" format="1">
  <advance width="600"/>
  <unicode hex="0141"/>
  <outline>
    <contour>
      <point x="503" y="72" type="line" name="hr00"/>
      <point x="172" y="72" type="line"/>
      <point x="209" y="296" type="line"/>
      <point x="429" y="365" type="line"/>
      <point x="440" y="434" type="line"/>
      <point x="221" y="365" type="line"/>
      <point x="276" y="698" type="line"/>
      <point x="195" y="698" type="line"/>
      <point x="136" y="343" type="line"/>
      <point x="49" y="317" type="line"/>
      <point x="38" y="248" type="line"/>
      <point x="124" y="274" type="line"/>
      <point x="78" y="0" type="line"/>
      <point x="491" y="0" type="line"/>
    </contour>
  </outline>
</glyph>
<glyph name="lslash" format="1">
  <advance width="600"/>
  <unicode hex="0142"/>
  <outline>
    <contour>
      <point x="249" y="-12" type="curve" smooth="yes" name="hr00"/>
      <point x="289" y="-12"/>
      <point x="325" y="5"/>
      <point x="422" y="93" type="curve" smooth="yes"/>
      <point x="526" y="187" type="line"/>
      <point x="481" y="231" type="line"/>
      <point x="276" y="57" type="line"/>
      <point x="251" y="65" type="line"/>
      <point x="299" y="312" type="line"/>
      <point x="456" y="360" type="line"/>
      <point x="467" y="429" type="line"/>
      <point x="312" y="382" type="line"/>
      <point x="381" y="740" type="line"/>
      <point x="118" y="740" type="line"/>
      <point x="107" y="673" type="line"/>
      <point x="289" y="673" type="line"/>
      <point x="228" y="357" type="line"/>
      <point x="71" y="309" type="line"/>
      <point x="59" y="240" type="line"/>
      <point x="215" y="287" type="line"/>
      <point x="177" y="91" type="line" smooth="yes"/>
      <point x="175" y="82"/>
      <point x="174" y="68"/>
      <point x="174" y="59" type="curve" smooth="yes"/>
      <point x="174" y="18"/>
      <point x="195" y="-12"/>
    </contour>
  </outline>
</glyph>
